<?xml version="1.0" encoding="UTF-8"?>
<!DOCTYPE svg PUBLIC "-//W3C//DTD SVG 1.1//EN" "http://www.w3.org/Graphics/SVG/1.1/DTD/svg11.dtd">
<!-- Creator: CorelDRAW -->
<svg xmlns="http://www.w3.org/2000/svg" xml:space="preserve" width="9.7342mm" height="21.1929mm" version="1.1" style="shape-rendering:geometricPrecision; text-rendering:geometricPrecision; image-rendering:optimizeQuality; fill-rule:evenodd; clip-rule:evenodd"
viewBox="0 0 54.56 118.79"
 xmlns:xlink="http://www.w3.org/1999/xlink"
 xmlns:xodm="http://www.corel.com/coreldraw/odm/2003">
 <defs>
  <style type="text/css">
   <![CDATA[
    .fil0 {fill:#025936}
    .fil2 {fill:white}
    .fil1 {fill:white;fill-rule:nonzero}
   ]]>
  </style>
 </defs>
 <g id="Camada_x0020_1">
  <metadata id="CorelCorpID_0Corel-Layer"/>
  <path class="fil0" d="M15.89 0l22.77 0c8.74,0 15.89,7.15 15.89,15.89l0 87c0,8.74 -7.15,15.89 -15.89,15.89l-22.77 0c-8.74,0 -15.89,-7.15 -15.89,-15.89l0 -87c0,-8.74 7.15,-15.89 15.89,-15.89z"/>
  <path class="fil1" d="M19.31 21.25l-4.35 0.41c-0.15,-0.77 -0.23,-1.5 -0.23,-2.2 0,-2.12 0.48,-3.97 1.46,-5.55 0.98,-1.57 2.48,-2.87 4.51,-3.89 2.03,-1.03 4.28,-1.54 6.76,-1.54 2.28,0 4.35,0.45 6.19,1.34 1.84,0.89 3.23,2.05 4.16,3.46 0.93,1.42 1.4,2.91 1.4,4.47 0,1.58 -0.33,3.05 -0.99,4.42 -0.73,1.53 -1.92,3.01 -3.58,4.44 -1.66,1.43 -5,3.72 -10.02,6.87l7.23 0c1.17,0 1.92,-0.06 2.23,-0.19 0.32,-0.12 0.6,-0.37 0.82,-0.74 0.23,-0.37 0.42,-1 0.58,-1.9l0.17 -1.02 4.18 0 -1.96 11.32 -2.84 0 -0.26 -1.09 -19.83 0 0 -4.26c2.92,-1.95 6.61,-4.82 11.09,-8.62 2.3,-1.95 3.82,-3.62 4.59,-5.04 0.56,-1.03 0.84,-2.11 0.84,-3.24 0,-1.31 -0.53,-2.42 -1.58,-3.33 -1.06,-0.91 -2.47,-1.36 -4.24,-1.36 -1.3,0 -2.44,0.25 -3.4,0.74 -0.96,0.49 -1.71,1.2 -2.26,2.11 -0.54,0.91 -0.81,1.87 -0.81,2.89 0,0.37 0.04,0.87 0.13,1.5z"/>
  <path class="fil2" d="M27.28 52.22c6.05,0 10.96,4.91 10.96,10.96 0,3.09 -1.28,5.87 -3.33,7.87 1.51,-0.78 3.21,-1.22 5.03,-1.22 6.05,0 10.96,4.91 10.96,10.96 0,6.05 -4.91,10.96 -10.96,10.96 -5.24,0 -9.61,-3.67 -10.7,-8.58 -0.35,6.43 2.31,10.3 5.25,13.93 -1.75,-0.96 -4.2,-1.37 -7.21,-1.32 -3.02,-0.05 -5.46,0.36 -7.21,1.32 2.94,-3.63 5.6,-7.5 5.25,-13.94l0 -0.01c-1.08,4.91 -5.46,8.59 -10.7,8.59 -6.05,0 -10.96,-4.91 -10.96,-10.96 0,-6.05 4.91,-10.96 10.96,-10.96 1.81,0 3.52,0.44 5.03,1.22 -2.05,-1.99 -3.33,-4.78 -3.33,-7.87 0,-6.05 4.91,-10.96 10.96,-10.96z"/>
 </g>
</svg>
