<?xml version="1.0" encoding="UTF-8"?>
<!DOCTYPE svg PUBLIC "-//W3C//DTD SVG 1.1//EN" "http://www.w3.org/Graphics/SVG/1.1/DTD/svg11.dtd">
<!-- Creator: CorelDRAW -->
<svg xmlns="http://www.w3.org/2000/svg" xml:space="preserve" width="9.7342mm" height="21.1929mm" version="1.1" style="shape-rendering:geometricPrecision; text-rendering:geometricPrecision; image-rendering:optimizeQuality; fill-rule:evenodd; clip-rule:evenodd"
viewBox="0 0 67.25 146.41"
 xmlns:xlink="http://www.w3.org/1999/xlink"
 xmlns:xodm="http://www.corel.com/coreldraw/odm/2003">
 <defs>
  <style type="text/css">
   <![CDATA[
    .fil0 {fill:#003399}
    .fil2 {fill:white}
    .fil1 {fill:white;fill-rule:nonzero}
   ]]>
  </style>
 </defs>
 <g id="Camada_x0020_1">
  <metadata id="CorelCorpID_0Corel-Layer"/>
  <path class="fil0" d="M19.59 0l28.07 0c10.77,0 19.59,8.81 19.59,19.59l0 107.23c0,10.77 -8.82,19.59 -19.59,19.59l-28.07 0c-10.77,0 -19.59,-8.81 -19.59,-19.59l0 -107.23c0,-10.77 8.81,-19.59 19.59,-19.59z"/>
  <path class="fil1" d="M25.29 23.35l-5.48 0c0,-0.42 0,-0.76 0,-1.03 0,-2.34 0.52,-4.37 1.55,-6.06 1.03,-1.7 2.65,-3.09 4.85,-4.18 2.2,-1.08 4.71,-1.62 7.54,-1.62 2.69,0 5.09,0.48 7.23,1.45 2.14,0.98 3.74,2.22 4.79,3.75 1.05,1.52 1.57,3.09 1.57,4.71 0,1.26 -0.33,2.51 -0.98,3.74 -0.66,1.22 -1.54,2.26 -2.65,3.11 -0.74,0.56 -1.85,1.13 -3.31,1.71 1.34,0.15 2.52,0.47 3.57,0.99 1.05,0.52 1.96,1.17 2.74,1.96 0.77,0.79 1.35,1.68 1.74,2.68 0.38,1 0.57,2.08 0.57,3.25 0,2.09 -0.6,4.04 -1.8,5.86 -1.2,1.81 -2.99,3.28 -5.37,4.4 -2.37,1.12 -5.12,1.67 -8.25,1.67 -3.06,0 -5.78,-0.53 -8.17,-1.58 -2.39,-1.05 -4.19,-2.39 -5.39,-4 -1.2,-1.62 -1.8,-3.23 -1.8,-4.83 0,-1.21 0.42,-2.26 1.27,-3.12 0.85,-0.87 1.87,-1.31 3.08,-1.31 1.15,0 2.16,0.41 3.04,1.23 0.57,0.52 1.05,1.42 1.46,2.7 0.52,1.66 0.98,2.74 1.39,3.28 0.42,0.53 1.09,1.01 2.03,1.43 0.93,0.42 1.88,0.62 2.86,0.62 1.13,0 2.22,-0.28 3.27,-0.85 1.05,-0.57 1.82,-1.27 2.32,-2.14 0.5,-0.86 0.74,-1.91 0.74,-3.12 0,-2.24 -0.84,-3.89 -2.52,-4.94 -1.29,-0.82 -3.3,-1.23 -6.02,-1.23l-1.73 0 0 -5.25 1.73 0c2.15,0 3.7,-0.16 4.62,-0.48 0.93,-0.33 1.66,-0.87 2.19,-1.65 0.53,-0.76 0.8,-1.59 0.8,-2.47 0,-1.21 -0.44,-2.25 -1.32,-3.11 -1.11,-1.11 -2.81,-1.66 -5.09,-1.66 -1.52,0 -2.77,0.23 -3.75,0.71 -0.99,0.46 -1.75,1.13 -2.31,1.99 -0.56,0.86 -0.89,1.99 -0.99,3.39z"/>
  <path class="fil2" d="M33.62 121.13c8.31,-12.99 15.38,-22.33 21.64,-29.31 -7.99,-7.55 -15.12,-17.4 -21.64,-28.92 -6.51,11.52 -13.65,21.37 -21.64,28.92 6.26,6.97 13.33,16.32 21.64,29.31z"/>
 </g>
</svg>
