<?xml version="1.0" encoding="UTF-8"?>
<!DOCTYPE svg PUBLIC "-//W3C//DTD SVG 1.1//EN" "http://www.w3.org/Graphics/SVG/1.1/DTD/svg11.dtd">
<!-- Creator: CorelDRAW -->
<svg xmlns="http://www.w3.org/2000/svg" xml:space="preserve" width="9.7342mm" height="21.1929mm" version="1.1" style="shape-rendering:geometricPrecision; text-rendering:geometricPrecision; image-rendering:optimizeQuality; fill-rule:evenodd; clip-rule:evenodd"
viewBox="0 0 87.61 190.75"
 xmlns:xlink="http://www.w3.org/1999/xlink"
 xmlns:xodm="http://www.corel.com/coreldraw/odm/2003">
 <defs>
  <style type="text/css">
   <![CDATA[
    .fil0 {fill:#025936}
    .fil2 {fill:white}
    .fil1 {fill:white;fill-rule:nonzero}
   ]]>
  </style>
 </defs>
 <g id="Camada_x0020_1">
  <metadata id="CorelCorpID_0Corel-Layer"/>
  <path class="fil0" d="M25.52 0l36.57 0c14.04,0 25.52,11.48 25.52,25.52l0 139.71c0,14.04 -11.49,25.52 -25.52,25.52l-36.57 0c-14.04,0 -25.52,-11.48 -25.52,-25.52l0 -139.71c0,-14.04 11.48,-25.52 25.52,-25.52z"/>
  <path class="fil1" d="M45.19 14.49l10.96 0 0 26.83 9.05 0 0 9.02 -9.05 0 0 13.67 -11.03 0 0 -13.67 -22.71 0 0 -11.07 22.78 -24.77zm-0.07 11.43l-14.32 15.4 14.32 0 0 -15.4z"/>
  <path class="fil2" d="M43.81 83.85c9.72,0 17.6,7.88 17.6,17.6 0,4.96 -2.05,9.43 -5.34,12.63 2.42,-1.25 5.16,-1.96 8.07,-1.96 9.72,0 17.6,7.88 17.6,17.6 0,9.72 -7.88,17.6 -17.6,17.6 -8.41,0 -15.44,-5.89 -17.18,-13.78 -0.56,10.33 3.71,16.55 8.43,22.37 -2.81,-1.55 -6.74,-2.2 -11.58,-2.12 -4.84,-0.08 -8.77,0.58 -11.58,2.12 4.73,-5.83 8.99,-12.05 8.43,-22.38l0 -0.01c-1.74,7.89 -8.77,13.79 -17.19,13.79 -9.72,0 -17.6,-7.88 -17.6,-17.6 0,-9.72 7.88,-17.6 17.6,-17.6 2.91,0 5.65,0.71 8.07,1.96 -3.3,-3.2 -5.34,-7.67 -5.34,-12.63 0,-9.72 7.88,-17.6 17.6,-17.6z"/>
 </g>
</svg>
