<?xml version="1.0" encoding="UTF-8"?>
<!DOCTYPE svg PUBLIC "-//W3C//DTD SVG 1.1//EN" "http://www.w3.org/Graphics/SVG/1.1/DTD/svg11.dtd">
<!-- Creator: CorelDRAW -->
<svg xmlns="http://www.w3.org/2000/svg" xml:space="preserve" width="9.7342mm" height="21.1929mm" version="1.1" style="shape-rendering:geometricPrecision; text-rendering:geometricPrecision; image-rendering:optimizeQuality; fill-rule:evenodd; clip-rule:evenodd"
viewBox="0 0 87.61 190.75"
 xmlns:xlink="http://www.w3.org/1999/xlink"
 xmlns:xodm="http://www.corel.com/coreldraw/odm/2003">
 <defs>
  <style type="text/css">
   <![CDATA[
    .fil0 {fill:#003399}
    .fil2 {fill:white}
    .fil1 {fill:white;fill-rule:nonzero}
   ]]>
  </style>
 </defs>
 <g id="Camada_x0020_1">
  <metadata id="CorelCorpID_0Corel-Layer"/>
  <path class="fil0" d="M25.52 0l36.57 0c14.04,0 25.52,11.48 25.52,25.52l0 139.71c0,14.04 -11.49,25.52 -25.52,25.52l-36.57 0c-14.04,0 -25.52,-11.48 -25.52,-25.52l0 -139.71c0,-14.04 11.48,-25.52 25.52,-25.52z"/>
  <path class="fil1" d="M45.19 14.5l10.96 0 0 26.82 9.05 0 0 9.02 -9.05 0 0 13.67 -11.03 0 0 -13.67 -22.71 0 0 -11.07 22.78 -24.77zm-0.07 11.43l-14.32 15.4 14.32 0 0 -15.4z"/>
  <path class="fil2" d="M43.81 157.82c10.83,-16.92 20.03,-29.1 28.19,-38.18 -10.41,-9.83 -19.7,-22.67 -28.19,-37.68 -8.49,15.01 -17.78,27.85 -28.19,37.68 8.16,9.09 17.36,21.26 28.19,38.18z"/>
 </g>
</svg>
