<?xml version="1.0" encoding="UTF-8"?>
<!DOCTYPE svg PUBLIC "-//W3C//DTD SVG 1.1//EN" "http://www.w3.org/Graphics/SVG/1.1/DTD/svg11.dtd">
<!-- Creator: CorelDRAW -->
<svg xmlns="http://www.w3.org/2000/svg" xml:space="preserve" width="9.7342mm" height="21.1929mm" version="1.1" style="shape-rendering:geometricPrecision; text-rendering:geometricPrecision; image-rendering:optimizeQuality; fill-rule:evenodd; clip-rule:evenodd"
viewBox="0 0 87.61 190.75"
 xmlns:xlink="http://www.w3.org/1999/xlink"
 xmlns:xodm="http://www.corel.com/coreldraw/odm/2003">
 <defs>
  <style type="text/css">
   <![CDATA[
    .fil0 {fill:#DF0000}
    .fil2 {fill:white}
    .fil1 {fill:white;fill-rule:nonzero}
   ]]>
  </style>
 </defs>
 <g id="Camada_x0020_1">
  <metadata id="CorelCorpID_0Corel-Layer"/>
  <path class="fil0" d="M25.52 0l36.57 0c14.04,0 25.52,11.48 25.52,25.52l0 139.71c0,14.04 -11.49,25.52 -25.52,25.52l-36.57 0c-14.04,0 -25.52,-11.48 -25.52,-25.52l0 -139.71c0,-14.04 11.48,-25.52 25.52,-25.52z"/>
  <path class="fil1" d="M45.19 14.49l10.96 0 0 26.83 9.05 0 0 9.02 -9.05 0 0 13.67 -11.03 0 0 -13.67 -22.71 0 0 -11.07 22.78 -24.77zm-0.07 11.43l-14.32 15.4 14.32 0 0 -15.4z"/>
  <path class="fil2" d="M43.81 93.05c-6.72,-11.07 -18.61,-13.46 -29.21,-8.93 -12.88,5.77 -17.37,27.74 -6.18,40.1 7.67,10.14 28.08,22.93 35.39,33.6 7.31,-10.67 27.72,-23.46 35.39,-33.6 11.19,-12.35 6.7,-34.33 -6.18,-40.1 -10.6,-4.53 -22.48,-2.14 -29.21,8.93z"/>
 </g>
</svg>
