<?xml version="1.0" encoding="UTF-8"?>
<!DOCTYPE svg PUBLIC "-//W3C//DTD SVG 1.1//EN" "http://www.w3.org/Graphics/SVG/1.1/DTD/svg11.dtd">
<!-- Creator: CorelDRAW -->
<svg xmlns="http://www.w3.org/2000/svg" xml:space="preserve" width="9.7342mm" height="21.1929mm" version="1.1" style="shape-rendering:geometricPrecision; text-rendering:geometricPrecision; image-rendering:optimizeQuality; fill-rule:evenodd; clip-rule:evenodd"
viewBox="0 0 30.75 66.95"
 xmlns:xlink="http://www.w3.org/1999/xlink"
 xmlns:xodm="http://www.corel.com/coreldraw/odm/2003">
 <defs>
  <style type="text/css">
   <![CDATA[
    .fil0 {fill:#333333}
    .fil1 {fill:white}
    .fil2 {fill:white;fill-rule:nonzero}
   ]]>
  </style>
 </defs>
 <g id="Camada_x0020_1">
  <metadata id="CorelCorpID_0Corel-Layer"/>
  <g id="_2258397143072">
   <path class="fil0" d="M8.96 0l12.84 0c4.93,0 8.96,4.03 8.96,8.96l0 49.04c0,4.93 -4.03,8.96 -8.96,8.96l-12.84 0c-4.93,0 -8.96,-4.03 -8.96,-8.96l0 -49.04c0,-4.93 4.03,-8.96 8.96,-8.96z"/>
   <path class="fil1" d="M15.38 28.77c-4.88,6.63 -6.96,7.38 -10.45,10.48 -3.43,3.25 -3.66,6.59 -0.16,10.03 3.28,2.63 7.07,1.74 9.19,-0.44 0.22,-0.24 0.69,0.16 0.56,0.63 -0.83,2.94 -1.68,4.89 -2.91,5.92 1.01,-0.68 2.17,-0.69 3.77,-0.66 1.59,-0.02 2.76,-0.01 3.77,0.66 -1.23,-1.03 -2.08,-2.98 -2.91,-5.92 -0.13,-0.48 0.34,-0.88 0.56,-0.63 2.12,2.19 5.91,3.07 9.19,0.44 3.49,-3.45 3.27,-6.79 -0.16,-10.03 -3.48,-3.1 -5.57,-3.85 -10.45,-10.48z"/>
   <path class="fil2" d="M15.86 5.09l3.85 0 0 9.42 3.18 0 0 3.16 -3.18 0 0 4.8 -3.87 0 0 -4.8 -7.97 0 0 -3.89 7.99 -8.69zm-0.02 4.01l-5.03 5.41 5.03 0 0 -5.41z"/>
  </g>
 </g>
</svg>
