<?xml version="1.0" encoding="UTF-8"?>
<!DOCTYPE svg PUBLIC "-//W3C//DTD SVG 1.1//EN" "http://www.w3.org/Graphics/SVG/1.1/DTD/svg11.dtd">
<!-- Creator: CorelDRAW -->
<svg xmlns="http://www.w3.org/2000/svg" xml:space="preserve" width="9.7342mm" height="21.1929mm" version="1.1" style="shape-rendering:geometricPrecision; text-rendering:geometricPrecision; image-rendering:optimizeQuality; fill-rule:evenodd; clip-rule:evenodd"
viewBox="0 0 125.68 273.63"
 xmlns:xlink="http://www.w3.org/1999/xlink"
 xmlns:xodm="http://www.corel.com/coreldraw/odm/2003">
 <defs>
  <style type="text/css">
   <![CDATA[
    .fil0 {fill:#003399}
    .fil2 {fill:white}
    .fil1 {fill:white;fill-rule:nonzero}
   ]]>
  </style>
 </defs>
 <g id="Camada_x0020_1">
  <metadata id="CorelCorpID_0Corel-Layer"/>
  <path class="fil0" d="M36.61 0l52.46 0c20.14,0 36.61,16.47 36.61,36.61l0 200.41c0,20.14 -16.48,36.61 -36.61,36.61l-52.46 0c-20.14,0 -36.61,-16.48 -36.61,-36.61l0 -200.41c0,-20.14 16.48,-36.61 36.61,-36.61z"/>
  <path class="fil1" d="M38.19 59.73l1.72 -39.04 34.89 0c2.18,0 3.57,-0.17 4.18,-0.52 0.62,-0.35 0.98,-0.97 1.07,-1.88l6.65 0 0 17.62 -36.12 0 -0.41 9.18c4.03,-0.42 7.68,-0.63 10.94,-0.63 6.77,0 12.41,1.03 16.93,3.06 4.53,2.03 7.88,4.76 10.06,8.19 2.18,3.42 3.26,7.42 3.26,12.01 0,7.98 -3.13,14.3 -9.4,18.98 -5.61,4.17 -12.43,6.26 -20.45,6.26 -5.34,0 -10.16,-0.94 -14.46,-2.81 -4.28,-1.9 -7.47,-4.24 -9.57,-7.04 -2.1,-2.82 -3.15,-5.65 -3.15,-8.5 0,-2.28 0.74,-4.17 2.25,-5.72 1.51,-1.55 3.35,-2.31 5.51,-2.31 1.55,0 2.98,0.44 4.26,1.32 1.29,0.89 2.4,2.35 3.37,4.41 1.35,2.85 2.6,4.9 3.75,6.17 1.15,1.29 2.5,2.26 4.06,2.94 1.54,0.68 3.28,1.01 5.19,1.01 2.54,0 4.8,-0.52 6.82,-1.55 2.01,-1.04 3.53,-2.43 4.55,-4.22 1.03,-1.77 1.54,-3.81 1.54,-6.12 0,-3.88 -1.59,-7.06 -4.79,-9.49 -3.2,-2.43 -8.24,-3.65 -15.12,-3.65 -6.12,0 -11.97,0.78 -17.54,2.33z"/>
  <path class="fil2" d="M62.84 226.4c15.53,-24.28 28.74,-41.74 40.44,-54.78 -14.93,-14.1 -28.26,-32.52 -40.44,-54.05 -12.18,21.53 -25.51,39.95 -40.44,54.05 11.7,13.03 24.91,30.5 40.44,54.78z"/>
 </g>
</svg>
