<?xml version="1.0" encoding="UTF-8"?>
<!DOCTYPE svg PUBLIC "-//W3C//DTD SVG 1.1//EN" "http://www.w3.org/Graphics/SVG/1.1/DTD/svg11.dtd">
<!-- Creator: CorelDRAW -->
<svg xmlns="http://www.w3.org/2000/svg" xml:space="preserve" width="9.7342mm" height="21.1929mm" version="1.1" style="shape-rendering:geometricPrecision; text-rendering:geometricPrecision; image-rendering:optimizeQuality; fill-rule:evenodd; clip-rule:evenodd"
viewBox="0 0 222.25 483.87"
 xmlns:xlink="http://www.w3.org/1999/xlink"
 xmlns:xodm="http://www.corel.com/coreldraw/odm/2003">
 <defs>
  <style type="text/css">
   <![CDATA[
    .fil0 {fill:#DF0000}
    .fil2 {fill:white}
    .fil1 {fill:white;fill-rule:nonzero}
   ]]>
  </style>
 </defs>
 <g id="Camada_x0020_1">
  <metadata id="CorelCorpID_0Corel-Layer"/>
  <path class="fil0" d="M64.74 0l92.77 0c35.61,0 64.74,29.13 64.74,64.74l0 354.39c0,35.61 -29.14,64.74 -64.74,64.74l-92.77 0c-35.61,0 -64.74,-29.13 -64.74,-64.74l0 -354.39c0,-35.61 29.13,-64.74 64.74,-64.74z"/>
  <path class="fil1" d="M150.6 34.56l0 17.7c-11.15,0.43 -20.07,1.5 -26.76,3.26 -6.7,1.72 -12.26,4.12 -16.69,7.1 -4.42,3.01 -8.04,6.58 -10.82,10.7 -2.78,4.12 -4.7,8.82 -5.74,14.14 5.14,-3.69 10.02,-6.27 14.59,-7.81 4.61,-1.54 9.57,-2.3 14.95,-2.3 8.52,0 16.15,1.78 22.88,5.38 6.73,3.6 11.84,8.45 15.4,14.57 3.53,6.12 5.29,13.16 5.29,21.21 0,13.34 -4.61,24.34 -13.82,32.95 -9.21,8.64 -21.65,12.94 -37.32,12.94 -16.18,0 -28.83,-4.42 -37.95,-13.31 -10.71,-10.33 -16.06,-24.56 -16.06,-42.76 0,-12.29 1.79,-22.75 5.39,-31.35 3.59,-8.61 9.27,-16.23 16.98,-22.84 7.69,-6.64 16.75,-11.53 27.13,-14.66 10.37,-3.17 24.55,-4.79 42.55,-4.92zm-38.46 63.25c-4.25,0 -8.04,0.98 -11.31,2.92 -3.26,1.94 -5.83,4.73 -7.62,8.36 -1.83,3.63 -2.72,7.77 -2.72,12.45 0,6.85 2,12.42 6.01,16.78 4.01,4.33 9.03,6.52 15.13,6.52 6.25,0 11.39,-2.18 15.46,-6.52 4.07,-4.37 6.1,-10.02 6.1,-17.06 0,-7.07 -1.97,-12.73 -5.92,-17.03 -3.95,-4.27 -8.97,-6.42 -15.13,-6.42z"/>
  <path class="fil2" d="M111.12 236.04c-17.05,-28.07 -47.2,-34.14 -74.08,-22.64 -32.67,14.63 -44.07,70.37 -15.69,101.71 19.46,25.72 71.23,58.16 89.77,85.23 18.54,-27.07 70.31,-59.51 89.77,-85.23 28.38,-31.34 16.98,-87.09 -15.69,-101.71 -26.89,-11.5 -57.03,-5.43 -74.08,22.64z"/>
 </g>
</svg>
