<?xml version="1.0" encoding="UTF-8"?>
<!DOCTYPE svg PUBLIC "-//W3C//DTD SVG 1.1//EN" "http://www.w3.org/Graphics/SVG/1.1/DTD/svg11.dtd">
<!-- Creator: CorelDRAW -->
<svg xmlns="http://www.w3.org/2000/svg" xml:space="preserve" width="9.7342mm" height="21.1929mm" version="1.1" style="shape-rendering:geometricPrecision; text-rendering:geometricPrecision; image-rendering:optimizeQuality; fill-rule:evenodd; clip-rule:evenodd"
viewBox="0 0 222.25 483.87"
 xmlns:xlink="http://www.w3.org/1999/xlink"
 xmlns:xodm="http://www.corel.com/coreldraw/odm/2003">
 <defs>
  <style type="text/css">
   <![CDATA[
    .fil0 {fill:#333333}
    .fil1 {fill:white}
    .fil2 {fill:white;fill-rule:nonzero}
   ]]>
  </style>
 </defs>
 <g id="Camada_x0020_1">
  <metadata id="CorelCorpID_0Corel-Layer"/>
  <path class="fil0" d="M64.74 0l92.77 0c35.61,0 64.74,29.13 64.74,64.74l0 354.39c0,35.61 -29.14,64.74 -64.74,64.74l-92.77 0c-35.61,0 -64.74,-29.13 -64.74,-64.74l0 -354.39c0,-35.61 29.13,-64.74 64.74,-64.74z"/>
  <path class="fil1" d="M111.12 207.9c-35.26,47.9 -50.33,53.34 -75.49,75.73 -24.82,23.48 -26.42,47.62 -1.18,72.52 23.73,19 51.12,12.6 66.44,-3.21 1.6,-1.75 4.99,1.15 4.03,4.58 -5.98,21.25 -12.15,35.35 -21.02,42.82 7.3,-4.91 15.72,-4.95 27.22,-4.8 11.5,-0.15 19.93,-0.11 27.22,4.8 -8.87,-7.47 -15.04,-21.57 -21.02,-42.82 -0.97,-3.44 2.43,-6.34 4.03,-4.58 15.32,15.81 42.7,22.21 66.44,3.21 25.24,-24.9 23.64,-49.04 -1.18,-72.52 -25.16,-22.38 -40.23,-27.83 -75.49,-75.73z"/>
  <path class="fil2" d="M150.6 34.55l0 17.7c-11.15,0.43 -20.07,1.5 -26.76,3.26 -6.7,1.72 -12.26,4.12 -16.69,7.1 -4.42,3.01 -8.04,6.58 -10.82,10.7 -2.78,4.12 -4.7,8.82 -5.74,14.14 5.14,-3.69 10.02,-6.27 14.59,-7.81 4.61,-1.54 9.57,-2.3 14.95,-2.3 8.52,0 16.15,1.78 22.88,5.38 6.73,3.6 11.84,8.45 15.4,14.57 3.53,6.12 5.29,13.16 5.29,21.21 0,13.34 -4.61,24.34 -13.82,32.95 -9.21,8.64 -21.65,12.94 -37.32,12.94 -16.18,0 -28.83,-4.42 -37.95,-13.31 -10.71,-10.33 -16.06,-24.56 -16.06,-42.76 0,-12.29 1.79,-22.75 5.39,-31.35 3.59,-8.61 9.27,-16.23 16.98,-22.84 7.69,-6.64 16.75,-11.53 27.13,-14.66 10.37,-3.17 24.55,-4.79 42.55,-4.92zm-38.46 63.25c-4.25,0 -8.04,0.98 -11.31,2.92 -3.26,1.94 -5.83,4.73 -7.62,8.36 -1.83,3.63 -2.72,7.77 -2.72,12.45 0,6.85 2,12.42 6.01,16.78 4.01,4.33 9.03,6.52 15.13,6.52 6.25,0 11.39,-2.18 15.46,-6.52 4.07,-4.37 6.1,-10.02 6.1,-17.06 0,-7.07 -1.97,-12.73 -5.92,-17.03 -3.95,-4.27 -8.97,-6.42 -15.13,-6.42z"/>
 </g>
</svg>
