<?xml version="1.0" encoding="UTF-8"?>
<!DOCTYPE svg PUBLIC "-//W3C//DTD SVG 1.1//EN" "http://www.w3.org/Graphics/SVG/1.1/DTD/svg11.dtd">
<!-- Creator: CorelDRAW -->
<svg xmlns="http://www.w3.org/2000/svg" xml:space="preserve" width="9.7342mm" height="21.1929mm" version="1.1" style="shape-rendering:geometricPrecision; text-rendering:geometricPrecision; image-rendering:optimizeQuality; fill-rule:evenodd; clip-rule:evenodd"
viewBox="0 0 959.37 2088.69"
 xmlns:xlink="http://www.w3.org/1999/xlink"
 xmlns:xodm="http://www.corel.com/coreldraw/odm/2003">
 <defs>
  <style type="text/css">
   <![CDATA[
    .fil0 {fill:#003399}
    .fil2 {fill:white}
    .fil1 {fill:white;fill-rule:nonzero}
   ]]>
  </style>
 </defs>
 <g id="Camada_x0020_1">
  <metadata id="CorelCorpID_0Corel-Layer"/>
  <path class="fil0" d="M279.47 0l400.43 0c153.7,0 279.47,125.75 279.47,279.47l0 1529.76c0,153.71 -125.77,279.47 -279.47,279.47l-400.43 0c-153.71,0 -279.47,-125.76 -279.47,-279.47l0 -1529.76c0,-153.72 125.76,-279.47 279.47,-279.47z"/>
  <path class="fil1" d="M302.18 142.02l49.97 0 5.29 16.72 352.66 0 0 74.96c-33.57,33.43 -60.68,64.87 -81.2,94.46 -20.53,29.59 -39.63,64.08 -57.19,103.61 -17.54,39.4 -30.59,76.56 -39.11,111.05 -8.64,34.62 -16.27,87.29 -23.11,158.01l-135.53 0c6.06,-64.08 16.26,-117.55 30.59,-160.13 14.33,-42.71 37.44,-88.89 69.19,-138.64 31.76,-49.75 65.19,-92.07 100.43,-127.1l-171.93 0c-21.96,0 -36.28,1.33 -43.12,3.84 -6.85,2.66 -12.26,6.77 -16.27,12.48 -4,5.71 -8.52,18.57 -13.55,38.6l-8 31.44 -72.03 -17.38 52.92 -201.92z"/>
  <path class="fil2" d="M479.67 1728.13c118.53,-185.32 219.36,-318.62 308.67,-418.11 -113.97,-107.65 -215.72,-248.25 -308.67,-412.6 -92.94,164.34 -194.7,304.94 -308.67,412.6 89.31,99.49 190.13,232.8 308.67,418.11z"/>
 </g>
</svg>
