<?xml version="1.0" encoding="UTF-8"?>
<!DOCTYPE svg PUBLIC "-//W3C//DTD SVG 1.1//EN" "http://www.w3.org/Graphics/SVG/1.1/DTD/svg11.dtd">
<!-- Creator: CorelDRAW -->
<svg xmlns="http://www.w3.org/2000/svg" xml:space="preserve" width="9.7342mm" height="21.1929mm" version="1.1" style="shape-rendering:geometricPrecision; text-rendering:geometricPrecision; image-rendering:optimizeQuality; fill-rule:evenodd; clip-rule:evenodd"
viewBox="0 0 959.37 2088.69"
 xmlns:xlink="http://www.w3.org/1999/xlink"
 xmlns:xodm="http://www.corel.com/coreldraw/odm/2003">
 <defs>
  <style type="text/css">
   <![CDATA[
    .fil0 {fill:#DF0000}
    .fil2 {fill:white}
    .fil1 {fill:white;fill-rule:nonzero}
   ]]>
  </style>
 </defs>
 <g id="Camada_x0020_1">
  <metadata id="CorelCorpID_0Corel-Layer"/>
  <path class="fil0" d="M279.47 0l400.43 0c153.7,0 279.47,125.75 279.47,279.47l0 1529.76c0,153.71 -125.77,279.47 -279.47,279.47l-400.43 0c-153.71,0 -279.47,-125.76 -279.47,-279.47l0 -1529.76c0,-153.72 125.76,-279.47 279.47,-279.47z"/>
  <path class="fil1" d="M302.17 142l49.97 0 5.29 16.72 352.67 0 0 74.96c-33.56,33.43 -60.67,64.88 -81.2,94.47 -20.52,29.59 -39.62,64.08 -57.18,103.61 -17.55,39.41 -30.6,76.56 -39.12,111.05 -8.64,34.62 -16.26,87.3 -23.11,158.02l-135.54 0c6.07,-64.08 16.26,-117.55 30.6,-160.13 14.33,-42.72 37.44,-88.9 69.19,-138.65 31.76,-49.75 65.19,-92.08 100.44,-127.1l-171.95 0c-21.95,0 -36.27,1.32 -43.12,3.84 -6.84,2.65 -12.26,6.76 -16.26,12.47 -4,5.71 -8.53,18.58 -13.56,38.61l-7.99 31.44 -72.04 -17.38 52.92 -201.93z"/>
  <path class="fil2" d="M479.67 1018.89c-73.6,-121.17 -203.73,-147.37 -319.8,-97.73 -141.01,63.14 -190.22,303.78 -67.71,439.06 84,111.01 307.47,251.05 387.5,367.9 80.04,-116.85 303.5,-256.89 387.5,-367.9 122.52,-135.28 73.31,-375.92 -67.71,-439.06 -116.07,-49.64 -246.19,-23.44 -319.8,97.73z"/>
 </g>
</svg>
