<?xml version="1.0" encoding="UTF-8"?>
<!DOCTYPE svg PUBLIC "-//W3C//DTD SVG 1.1//EN" "http://www.w3.org/Graphics/SVG/1.1/DTD/svg11.dtd">
<!-- Creator: CorelDRAW -->
<svg xmlns="http://www.w3.org/2000/svg" xml:space="preserve" width="9.7342mm" height="21.1929mm" version="1.1" style="shape-rendering:geometricPrecision; text-rendering:geometricPrecision; image-rendering:optimizeQuality; fill-rule:evenodd; clip-rule:evenodd"
viewBox="0 0 414.13 901.62"
 xmlns:xlink="http://www.w3.org/1999/xlink"
 xmlns:xodm="http://www.corel.com/coreldraw/odm/2003">
 <defs>
  <style type="text/css">
   <![CDATA[
    .fil0 {fill:#003399}
    .fil2 {fill:white}
    .fil1 {fill:white;fill-rule:nonzero}
   ]]>
  </style>
 </defs>
 <g id="Camada_x0020_1">
  <metadata id="CorelCorpID_0Corel-Layer"/>
  <path class="fil0" d="M120.64 0l172.85 0c66.35,0 120.64,54.28 120.64,120.64l0 660.35c0,66.35 -54.29,120.64 -120.64,120.64l-172.85 0c-66.35,0 -120.64,-54.29 -120.64,-120.64l0 -660.35c0,-66.36 54.29,-120.64 120.64,-120.64z"/>
  <path class="fil1" d="M251.54 172.35c16.83,6.82 29.75,16.09 38.89,27.84 7.19,9.04 10.75,20.27 10.75,33.67 0,20.5 -7.86,37.28 -23.58,50.51 -17.55,14.6 -41.07,21.93 -70.6,21.93 -19.78,0 -36.83,-3.09 -51.21,-9.22 -14.38,-6.13 -25.13,-14.03 -32.21,-23.71 -7.07,-9.68 -10.64,-19.64 -10.64,-29.95 0,-10.71 3.85,-20.96 11.54,-30.64 7.74,-9.73 19.77,-18.04 36.16,-24.85 -13.65,-6.36 -23.91,-14.55 -30.76,-24.63 -6.85,-10.08 -10.25,-21.13 -10.25,-33.21 0,-11.91 3.23,-22.79 9.75,-32.47 6.46,-9.73 16.55,-17.69 30.2,-23.93 13.71,-6.19 29.42,-9.28 47.14,-9.28 22.45,0 41.68,4.98 57.73,15.01 15.99,10.02 24.02,23.59 24.02,40.83 0,10.02 -2.68,19.24 -8.08,27.54 -5.4,8.36 -15.04,16.55 -28.86,24.57zm-31.21 -14.32l6.08 -6.93c3.9,-4.24 6.52,-7.56 7.85,-9.91 1.96,-3.26 3.35,-6.24 4.18,-8.99 0.84,-2.75 1.23,-5.56 1.23,-8.36 0,-6.02 -3.06,-11.4 -9.25,-16.04 -6.19,-4.64 -14.82,-6.99 -25.85,-6.99 -10.59,0 -18.83,2.18 -24.69,6.47 -5.85,4.35 -8.75,9.34 -8.75,15.06 0,5.04 1.73,9.33 5.24,12.94 4.74,4.81 13.32,9.85 25.74,15.18l18.22 7.56zm-27.69 45.59c-10.59,5.61 -18.33,11.63 -23.35,18.04 -5.02,6.47 -7.53,12.66 -7.53,18.61 0,4.69 1.73,9.39 5.13,14.03 3.4,4.69 8.58,8.42 15.49,11.28 6.96,2.87 15.1,4.3 24.41,4.3 9.25,0 17.38,-1.32 24.46,-3.95 7.02,-2.63 12.03,-5.9 14.99,-9.73 2.95,-3.9 4.46,-8.07 4.46,-12.54 0,-5.61 -1.9,-10.25 -5.63,-13.98 -5.35,-5.38 -14.66,-10.77 -27.86,-16.15l-24.57 -9.91z"/>
  <path class="fil2" d="M207.06 745.98c51.17,-79.99 94.69,-137.54 133.24,-180.49 -49.2,-46.47 -93.12,-107.16 -133.24,-178.1 -40.12,70.94 -84.04,131.63 -133.24,178.1 38.55,42.95 82.07,100.49 133.24,180.49z"/>
 </g>
</svg>
