<?xml version="1.0" encoding="UTF-8"?>
<!DOCTYPE svg PUBLIC "-//W3C//DTD SVG 1.1//EN" "http://www.w3.org/Graphics/SVG/1.1/DTD/svg11.dtd">
<!-- Creator: CorelDRAW -->
<svg xmlns="http://www.w3.org/2000/svg" xml:space="preserve" width="9.7342mm" height="21.1929mm" version="1.1" style="shape-rendering:geometricPrecision; text-rendering:geometricPrecision; image-rendering:optimizeQuality; fill-rule:evenodd; clip-rule:evenodd"
viewBox="0 0 170.31 370.78"
 xmlns:xlink="http://www.w3.org/1999/xlink"
 xmlns:xodm="http://www.corel.com/coreldraw/odm/2003">
 <defs>
  <style type="text/css">
   <![CDATA[
    .fil0 {fill:#333333}
    .fil1 {fill:white}
    .fil2 {fill:white;fill-rule:nonzero}
   ]]>
  </style>
 </defs>
 <g id="Camada_x0020_1">
  <metadata id="CorelCorpID_0Corel-Layer"/>
  <path class="fil0" d="M49.61 0l71.08 0c27.28,0 49.61,22.32 49.61,49.61l0 271.56c0,27.29 -22.33,49.61 -49.61,49.61l-71.08 0c-27.29,0 -49.61,-22.32 -49.61,-49.61l0 -271.56c0,-27.29 22.32,-49.61 49.61,-49.61z"/>
  <path class="fil1" d="M85.15 159.31c-27.02,36.7 -38.57,40.88 -57.85,58.03 -19.02,17.99 -20.24,36.49 -0.9,55.57 18.19,14.56 39.17,9.65 50.91,-2.46 1.22,-1.34 3.82,0.88 3.09,3.51 -4.58,16.28 -9.31,27.09 -16.1,32.81 5.59,-3.76 12.04,-3.79 20.86,-3.68 8.82,-0.12 15.27,-0.08 20.86,3.68 -6.8,-5.72 -11.53,-16.53 -16.1,-32.81 -0.74,-2.63 1.86,-4.86 3.08,-3.51 11.74,12.12 32.72,17.02 50.91,2.46 19.34,-19.08 18.11,-37.58 -0.9,-55.57 -19.28,-17.15 -30.83,-21.32 -57.85,-58.03z"/>
  <path class="fil2" d="M54.9 125.96l0 -13.57c8.59,-0.38 15.45,-1.2 20.56,-2.52 5.09,-1.32 9.35,-3.11 12.79,-5.42 3.42,-2.31 6.19,-5.04 8.3,-8.17 2.09,-3.16 3.57,-6.78 4.42,-10.88 -3.94,2.85 -7.7,4.85 -11.23,6.03 -3.55,1.15 -7.36,1.74 -11.44,1.74 -6.55,0 -12.42,-1.39 -17.6,-4.17 -5.18,-2.76 -9.1,-6.48 -11.8,-11.14 -2.68,-4.64 -4.03,-10.06 -4.03,-16.25 0,-10.22 3.5,-18.63 10.54,-25.25 7.04,-6.6 16.59,-9.89 28.65,-9.89 12.4,0 22.09,3.39 29.08,10.2 8.2,7.96 12.3,18.89 12.3,32.83 0,9.37 -1.4,17.36 -4.17,23.98 -2.77,6.62 -7.1,12.48 -12.97,17.55 -5.89,5.09 -12.81,8.83 -20.74,11.23 -7.95,2.43 -18.84,3.65 -32.66,3.7zm29.43 -48.47c3.28,0 6.19,-0.73 8.68,-2.21 2.52,-1.46 4.47,-3.6 5.87,-6.41 1.4,-2.83 2.09,-6.01 2.09,-9.61 0,-5.25 -1.54,-9.52 -4.61,-12.84 -3.07,-3.32 -6.94,-4.97 -11.62,-4.97 -4.77,0 -8.71,1.65 -11.82,4.97 -3.12,3.32 -4.67,7.65 -4.67,13.05 0,5.44 1.51,9.8 4.54,13.07 3.05,3.3 6.9,4.95 11.55,4.95z"/>
 </g>
</svg>
