<?xml version="1.0" encoding="UTF-8"?>
<!DOCTYPE svg PUBLIC "-//W3C//DTD SVG 1.1//EN" "http://www.w3.org/Graphics/SVG/1.1/DTD/svg11.dtd">
<!-- Creator: CorelDRAW -->
<svg xmlns="http://www.w3.org/2000/svg" xml:space="preserve" width="9.7342mm" height="21.1929mm" version="1.1" style="shape-rendering:geometricPrecision; text-rendering:geometricPrecision; image-rendering:optimizeQuality; fill-rule:evenodd; clip-rule:evenodd"
viewBox="0 0 45.9 99.94"
 xmlns:xlink="http://www.w3.org/1999/xlink"
 xmlns:xodm="http://www.corel.com/coreldraw/odm/2003">
 <defs>
  <style type="text/css">
   <![CDATA[
    .fil0 {fill:#003399}
    .fil2 {fill:white}
    .fil1 {fill:white;fill-rule:nonzero}
   ]]>
  </style>
 </defs>
 <g id="Camada_x0020_1">
  <metadata id="CorelCorpID_0Corel-Layer"/>
  <path class="fil0" d="M13.37 0l19.16 0c7.35,0 13.37,6.02 13.37,13.37l0 73.2c0,7.35 -6.02,13.37 -13.37,13.37l-19.16 0c-7.35,0 -13.37,-6.02 -13.37,-13.37l0 -73.2c0,-7.36 6.02,-13.37 13.37,-13.37z"/>
  <path class="fil1" d="M20.12 7.59l5.7 0 7.58 20.03c0.41,1.05 0.78,1.71 1.09,1.96 0.32,0.25 0.91,0.37 1.76,0.37l0 3.58 -11.93 0 0 -3.58 0.72 -0.02c0.66,0 1.12,-0.09 1.39,-0.27 0.27,-0.18 0.4,-0.4 0.4,-0.66 0,-0.22 -0.11,-0.68 -0.35,-1.38l-0.77 -2.36 -7.65 0 -0.95 2.62c-0.19,0.56 -0.29,0.92 -0.29,1.1 0,0.2 0.07,0.37 0.21,0.54 0.14,0.16 0.36,0.28 0.68,0.35 0.2,0.05 0.78,0.08 1.71,0.08l0 3.58 -9.78 0 0 -3.58c0.63,0 1.09,-0.06 1.38,-0.17 0.28,-0.11 0.52,-0.28 0.71,-0.5 0.19,-0.22 0.4,-0.64 0.62,-1.24l7.76 -20.45zm-0.73 13.98l5 0 -2.45 -7.1 -2.56 7.1z"/>
  <path class="fil2" d="M22.95 82.69c5.67,-8.87 10.5,-15.25 14.77,-20.01 -5.45,-5.15 -10.32,-11.88 -14.77,-19.74 -4.45,7.86 -9.32,14.59 -14.77,19.74 4.27,4.76 9.1,11.14 14.77,20.01z"/>
 </g>
</svg>
