<?xml version="1.0" encoding="UTF-8"?>
<!DOCTYPE svg PUBLIC "-//W3C//DTD SVG 1.1//EN" "http://www.w3.org/Graphics/SVG/1.1/DTD/svg11.dtd">
<!-- Creator: CorelDRAW -->
<svg xmlns="http://www.w3.org/2000/svg" xml:space="preserve" width="9.7342mm" height="21.1929mm" version="1.1" style="shape-rendering:geometricPrecision; text-rendering:geometricPrecision; image-rendering:optimizeQuality; fill-rule:evenodd; clip-rule:evenodd"
viewBox="0 0 78.21 170.28"
 xmlns:xlink="http://www.w3.org/1999/xlink"
 xmlns:xodm="http://www.corel.com/coreldraw/odm/2003">
 <defs>
  <style type="text/css">
   <![CDATA[
    .fil0 {fill:#DF0000}
    .fil2 {fill:white}
    .fil1 {fill:white;fill-rule:nonzero}
   ]]>
  </style>
 </defs>
 <g id="Camada_x0020_1">
  <metadata id="CorelCorpID_0Corel-Layer"/>
  <path class="fil0" d="M22.78 0l32.64 0c12.53,0 22.78,10.25 22.78,22.78l0 124.71c0,12.53 -10.25,22.78 -22.78,22.78l-32.64 0c-12.53,0 -22.78,-10.25 -22.78,-22.78l0 -124.71c0,-12.53 10.25,-22.78 22.78,-22.78z"/>
  <path class="fil1" d="M37.59 12.94l20.96 0 0 6.1 -1.77 0c-1.2,0 -1.98,0.1 -2.36,0.3 -0.37,0.2 -0.64,0.51 -0.8,0.93 -0.17,0.42 -0.25,1.38 -0.25,2.88l0 17.69c0,2.77 -0.15,4.78 -0.43,6.05 -0.39,1.82 -1.33,3.61 -2.8,5.39 -1.48,1.77 -3.38,3.15 -5.69,4.11 -2.3,0.97 -5.07,1.46 -8.27,1.46 -3.43,0 -6.36,-0.61 -8.77,-1.81 -2.42,-1.2 -4.31,-2.87 -5.69,-4.98 -1.38,-2.11 -2.06,-4.28 -2.06,-6.52 0,-2.05 0.59,-3.73 1.76,-5.04 1.17,-1.31 2.61,-1.97 4.34,-1.97 1.05,0 1.94,0.21 2.66,0.62 0.74,0.41 1.32,1.04 1.76,1.87 0.44,0.83 0.66,1.72 0.66,2.67l0 2.07c0,1.16 0.27,2.26 0.81,3.32 0.39,0.78 1.03,1.42 1.94,1.9 0.89,0.49 1.91,0.72 3.05,0.72 1.48,0 2.75,-0.44 3.78,-1.33 1.03,-0.89 1.71,-2.06 2.05,-3.52 0.2,-0.84 0.3,-2.59 0.3,-5.25l0 -18.32c0,-0.93 -0.04,-1.52 -0.13,-1.79 -0.17,-0.53 -0.45,-0.91 -0.85,-1.12 -0.41,-0.23 -1.12,-0.34 -2.1,-0.34l-2.09 0 0 -6.1z"/>
  <path class="fil2" d="M39.1 83.06c-6,-9.88 -16.61,-12.01 -26.07,-7.97 -11.5,5.15 -15.51,24.77 -5.52,35.79 6.85,9.05 25.07,20.47 31.59,29.99 6.52,-9.53 24.74,-20.94 31.59,-29.99 9.99,-11.03 5.98,-30.65 -5.52,-35.79 -9.46,-4.05 -20.07,-1.91 -26.07,7.97z"/>
 </g>
</svg>
