<?xml version="1.0" encoding="UTF-8"?>
<!DOCTYPE svg PUBLIC "-//W3C//DTD SVG 1.1//EN" "http://www.w3.org/Graphics/SVG/1.1/DTD/svg11.dtd">
<!-- Creator: CorelDRAW -->
<svg xmlns="http://www.w3.org/2000/svg" xml:space="preserve" width="9.7342mm" height="21.1929mm" version="1.1" style="shape-rendering:geometricPrecision; text-rendering:geometricPrecision; image-rendering:optimizeQuality; fill-rule:evenodd; clip-rule:evenodd"
viewBox="0 0 50.76 110.52"
 xmlns:xlink="http://www.w3.org/1999/xlink"
 xmlns:xodm="http://www.corel.com/coreldraw/odm/2003">
 <defs>
  <style type="text/css">
   <![CDATA[
    .fil0 {fill:#003399}
    .fil2 {fill:white}
    .fil1 {fill:white;fill-rule:nonzero}
   ]]>
  </style>
 </defs>
 <g id="Camada_x0020_1">
  <metadata id="CorelCorpID_0Corel-Layer"/>
  <path class="fil0" d="M14.79 0l21.19 0c8.13,0 14.79,6.65 14.79,14.79l0 80.94c0,8.13 -6.65,14.79 -14.79,14.79l-21.19 0c-8.13,0 -14.79,-6.65 -14.79,-14.79l0 -80.94c0,-8.13 6.65,-14.79 14.79,-14.79z"/>
  <path class="fil1" d="M9.7 8.4l13.61 0 0 3.96 -0.89 0c-0.86,0 -1.39,0.05 -1.58,0.15 -0.31,0.15 -0.54,0.36 -0.68,0.63 -0.14,0.27 -0.2,0.79 -0.2,1.54l0 7.63 8.68 -8.28c0.39,-0.37 0.62,-0.62 0.7,-0.76 0.08,-0.13 0.12,-0.25 0.12,-0.34 0,-0.2 -0.08,-0.34 -0.23,-0.43 -0.15,-0.1 -0.54,-0.15 -1.17,-0.15l-1.13 0 0 -3.96 12.66 0 0 3.96 -0.42 0c-0.59,0 -1,0.03 -1.22,0.09 -0.23,0.06 -0.51,0.2 -0.83,0.4 -0.33,0.21 -0.75,0.55 -1.27,1.01l-6.77 6.01 8.07 11.18c0.7,0.96 1.2,1.53 1.52,1.71 0.43,0.25 1.05,0.37 1.86,0.37l0.54 0 0 3.96 -14.14 0 0 -3.96 0.57 0c1.03,0 1.66,-0.05 1.89,-0.15 0.22,-0.09 0.33,-0.22 0.33,-0.37 0,-0.16 -0.2,-0.55 -0.62,-1.18l-4.93 -7.18 -4.19 3.73 0 2.91c0,0.72 0.07,1.21 0.2,1.48 0.13,0.28 0.32,0.47 0.56,0.59 0.25,0.12 0.74,0.18 1.47,0.18l1.13 0 0 3.96 -13.61 0 0 -3.96 1.03 0c0.79,0 1.32,-0.06 1.59,-0.2 0.27,-0.13 0.46,-0.34 0.58,-0.62 0.11,-0.23 0.16,-0.8 0.16,-1.69l0 -15.68c0,-0.85 -0.06,-1.42 -0.18,-1.71 -0.12,-0.29 -0.31,-0.51 -0.58,-0.65 -0.27,-0.15 -0.75,-0.22 -1.45,-0.22l-1.15 0 0 -3.96z"/>
  <path class="fil2" d="M25.38 91.44c6.27,-9.81 11.61,-16.86 16.33,-22.12 -6.03,-5.7 -11.41,-13.14 -16.33,-21.83 -4.92,8.7 -10.3,16.13 -16.33,21.83 4.73,5.26 10.06,12.32 16.33,22.12z"/>
 </g>
</svg>
