<?xml version="1.0" encoding="UTF-8"?>
<!DOCTYPE svg PUBLIC "-//W3C//DTD SVG 1.1//EN" "http://www.w3.org/Graphics/SVG/1.1/DTD/svg11.dtd">
<!-- Creator: CorelDRAW -->
<svg xmlns="http://www.w3.org/2000/svg" xml:space="preserve" width="9.7342mm" height="21.1929mm" version="1.1" style="shape-rendering:geometricPrecision; text-rendering:geometricPrecision; image-rendering:optimizeQuality; fill-rule:evenodd; clip-rule:evenodd"
viewBox="0 0 61.56 134.04"
 xmlns:xlink="http://www.w3.org/1999/xlink"
 xmlns:xodm="http://www.corel.com/coreldraw/odm/2003">
 <defs>
  <style type="text/css">
   <![CDATA[
    .fil0 {fill:#025936}
    .fil2 {fill:white}
    .fil1 {fill:white;fill-rule:nonzero}
   ]]>
  </style>
 </defs>
 <g id="Camada_x0020_1">
  <metadata id="CorelCorpID_0Corel-Layer"/>
  <path class="fil0" d="M17.93 0l25.7 0c9.86,0 17.93,8.07 17.93,17.93l0 98.17c0,9.86 -8.07,17.93 -17.93,17.93l-25.7 0c-9.86,0 -17.93,-8.07 -17.93,-17.93l0 -98.17c0,-9.86 8.07,-17.93 17.93,-17.93z"/>
  <path class="fil1" d="M26.53 45.23c-3.67,-0.6 -6.79,-2.28 -9.36,-5.06 -3.04,-3.3 -4.56,-7.45 -4.56,-12.47 0,-5.3 1.68,-9.64 5.04,-13.01 3.36,-3.38 7.76,-5.07 13.21,-5.07 5.41,0 9.77,1.68 13.1,5.03 3.32,3.35 4.99,7.67 4.99,12.93 0,3.09 -0.58,5.87 -1.74,8.36 -1.16,2.49 -2.78,4.51 -4.84,6.09 -2.06,1.58 -4.57,2.65 -7.54,3.19 0.05,1.47 0.55,2.58 1.52,3.33 0.97,0.74 2.15,1.12 3.53,1.12 1.04,0 2.13,-0.17 3.25,-0.52 1.12,-0.35 2.11,-0.83 2.98,-1.44l2.37 4.21c-1.79,1.16 -3.53,1.99 -5.23,2.5 -1.69,0.51 -3.5,0.77 -5.42,0.77 -2.39,0 -4.46,-0.42 -6.21,-1.26 -1.75,-0.84 -3.06,-2.09 -3.96,-3.73 -0.7,-1.32 -1.08,-2.98 -1.13,-4.97zm4.48 -30.09c-2.58,0 -4.62,0.99 -6.14,2.97 -1.91,2.49 -2.87,5.71 -2.87,9.66 0,3.94 0.89,7.07 2.67,9.36 1.54,1.97 3.57,2.95 6.1,2.95 2.53,0 4.56,-0.98 6.09,-2.95 1.8,-2.34 2.69,-5.48 2.69,-9.41 0,-2.76 -0.38,-5.08 -1.15,-6.96 -0.77,-1.87 -1.81,-3.28 -3.12,-4.21 -1.31,-0.93 -2.73,-1.4 -4.27,-1.4z"/>
  <path class="fil2" d="M30.78 58.92c6.83,0 12.37,5.54 12.37,12.37 0,3.48 -1.44,6.63 -3.75,8.88 1.7,-0.88 3.63,-1.37 5.67,-1.37 6.83,0 12.37,5.54 12.37,12.37 0,6.83 -5.54,12.37 -12.37,12.37 -5.91,0 -10.85,-4.14 -12.07,-9.68 -0.39,7.26 2.6,11.63 5.92,15.72 -1.97,-1.09 -4.73,-1.55 -8.14,-1.49 -3.4,-0.06 -6.16,0.4 -8.14,1.49 3.32,-4.1 6.32,-8.46 5.93,-15.73l0 -0.01c-1.22,5.54 -6.16,9.69 -12.08,9.69 -6.83,0 -12.37,-5.54 -12.37,-12.37 0,-6.83 5.54,-12.37 12.37,-12.37 2.04,0 3.97,0.5 5.67,1.37 -2.32,-2.25 -3.76,-5.39 -3.76,-8.88 0,-6.83 5.54,-12.37 12.37,-12.37z"/>
 </g>
</svg>
