<?xml version="1.0" encoding="UTF-8"?>
<!DOCTYPE svg PUBLIC "-//W3C//DTD SVG 1.1//EN" "http://www.w3.org/Graphics/SVG/1.1/DTD/svg11.dtd">
<!-- Creator: CorelDRAW -->
<svg xmlns="http://www.w3.org/2000/svg" xml:space="preserve" width="9.7342mm" height="21.1929mm" version="1.1" style="shape-rendering:geometricPrecision; text-rendering:geometricPrecision; image-rendering:optimizeQuality; fill-rule:evenodd; clip-rule:evenodd"
viewBox="0 0 61.56 134.04"
 xmlns:xlink="http://www.w3.org/1999/xlink"
 xmlns:xodm="http://www.corel.com/coreldraw/odm/2003">
 <defs>
  <style type="text/css">
   <![CDATA[
    .fil0 {fill:#003399}
    .fil2 {fill:white}
    .fil1 {fill:white;fill-rule:nonzero}
   ]]>
  </style>
 </defs>
 <g id="Camada_x0020_1">
  <metadata id="CorelCorpID_0Corel-Layer"/>
  <path class="fil0" d="M17.93 0l25.7 0c9.86,0 17.93,8.07 17.93,17.93l0 98.17c0,9.86 -8.07,17.93 -17.93,17.93l-25.7 0c-9.86,0 -17.93,-8.07 -17.93,-17.93l0 -98.17c0,-9.86 8.07,-17.93 17.93,-17.93z"/>
  <path class="fil1" d="M43.82 39.59l6.27 8.29 -8.17 0 -3.11 -4.12c-2.6,1.42 -5.5,2.13 -8.7,2.13 -5.35,0 -9.79,-1.9 -13.33,-5.7 -3.54,-3.8 -5.31,-8.33 -5.31,-13.58 0,-3.5 0.83,-6.73 2.48,-9.65 1.65,-2.94 3.92,-5.26 6.8,-6.99 2.89,-1.73 6,-2.6 9.31,-2.6 5.06,0 9.41,1.87 13.04,5.63 3.64,3.75 5.45,8.33 5.45,13.73 0,4.96 -1.57,9.25 -4.73,12.86zm-4.26 -5.64c1.42,-2.19 2.13,-4.61 2.13,-7.27 0,-3.47 -1.13,-6.41 -3.41,-8.83 -2.27,-2.43 -5.02,-3.64 -8.24,-3.64 -3.32,0 -6.11,1.18 -8.34,3.54 -2.25,2.36 -3.36,5.36 -3.36,9 0,4.05 1.41,7.26 4.23,9.62 2.21,1.85 4.71,2.77 7.52,2.77 1.62,0 3.13,-0.31 4.55,-0.91l-6.45 -8.54 8.17 0 3.21 4.26z"/>
  <path class="fil2" d="M30.78 110.9c7.61,-11.89 14.08,-20.45 19.81,-26.83 -7.31,-6.91 -13.84,-15.93 -19.81,-26.48 -5.96,10.55 -12.49,19.57 -19.81,26.48 5.73,6.38 12.2,14.94 19.81,26.83z"/>
 </g>
</svg>
