<?xml version="1.0" encoding="UTF-8"?>
<!DOCTYPE svg PUBLIC "-//W3C//DTD SVG 1.1//EN" "http://www.w3.org/Graphics/SVG/1.1/DTD/svg11.dtd">
<!-- Creator: CorelDRAW -->
<svg xmlns="http://www.w3.org/2000/svg" xml:space="preserve" width="9.7342mm" height="21.1929mm" version="1.1" style="shape-rendering:geometricPrecision; text-rendering:geometricPrecision; image-rendering:optimizeQuality; fill-rule:evenodd; clip-rule:evenodd"
viewBox="0 0 107.19 233.38"
 xmlns:xlink="http://www.w3.org/1999/xlink"
 xmlns:xodm="http://www.corel.com/coreldraw/odm/2003">
 <defs>
  <style type="text/css">
   <![CDATA[
    .fil0 {fill:#DF0000}
    .fil2 {fill:white}
    .fil1 {fill:white;fill-rule:nonzero}
   ]]>
  </style>
 </defs>
 <g id="Camada_x0020_1">
  <metadata id="CorelCorpID_0Corel-Layer"/>
  <path class="fil0" d="M31.23 0l44.74 0c17.17,0 31.23,14.05 31.23,31.23l0 170.93c0,17.17 -14.05,31.23 -31.23,31.23l-44.74 0c-17.17,0 -31.23,-14.05 -31.23,-31.23l0 -170.93c0,-17.18 14.05,-31.23 31.23,-31.23z"/>
  <path class="fil1" d="M30.72 15.69l5.57 0 0.59 2.05 33.3 0 0.72 -2.05 5.57 0 7.24 21.29 -7.79 2.83c-1.75,-3.53 -3,-5.83 -3.77,-6.89 -1.49,-2.11 -3.22,-3.78 -5.16,-4.98 -1.46,-0.93 -2.91,-1.39 -4.36,-1.39 -0.68,0 -1.14,0.16 -1.4,0.5 -0.25,0.33 -0.38,1.08 -0.38,2.27l0 34.78c0,2.06 0.07,3.34 0.22,3.85 0.14,0.53 0.37,0.93 0.72,1.25 0.33,0.3 0.81,0.5 1.4,0.61 0.59,0.1 2.18,0.15 4.76,0.15l0 8.36 -28.73 0 0 -8.36 1.75 0c1.92,0 3.16,-0.12 3.69,-0.37 0.53,-0.24 0.95,-0.68 1.24,-1.3 0.27,-0.62 0.42,-1.91 0.42,-3.87l0 -35.56c0,-1.01 -0.11,-1.65 -0.35,-1.91 -0.22,-0.25 -0.71,-0.39 -1.43,-0.39 -1.47,0 -3.12,0.56 -4.92,1.69 -1.82,1.13 -3.43,2.71 -4.85,4.77 -0.56,0.8 -1.76,3.07 -3.59,6.8l-7.72 -2.83 7.24 -21.29z"/>
  <path class="fil2" d="M53.6 113.85c-8.22,-13.54 -22.76,-16.47 -35.73,-10.92 -15.76,7.05 -21.25,33.94 -7.57,49.06 9.39,12.4 34.35,28.05 43.3,41.11 8.94,-13.06 33.91,-28.7 43.3,-41.11 13.69,-15.12 8.19,-42 -7.57,-49.06 -12.97,-5.55 -27.51,-2.62 -35.73,10.92z"/>
 </g>
</svg>
