<?xml version="1.0" encoding="UTF-8"?>
<!DOCTYPE svg PUBLIC "-//W3C//DTD SVG 1.1//EN" "http://www.w3.org/Graphics/SVG/1.1/DTD/svg11.dtd">
<!-- Creator: CorelDRAW -->
<svg xmlns="http://www.w3.org/2000/svg" xml:space="preserve" width="14.5523mm" height="21.194mm" version="1.1" style="shape-rendering:geometricPrecision; text-rendering:geometricPrecision; image-rendering:optimizeQuality; fill-rule:evenodd; clip-rule:evenodd"
viewBox="0 0 30.94 45.06"
 xmlns:xlink="http://www.w3.org/1999/xlink"
 xmlns:xodm="http://www.corel.com/coreldraw/odm/2003">
 <defs>
  <style type="text/css">
   <![CDATA[
    .fil0 {fill:#025936}
    .fil2 {fill:white}
    .fil1 {fill:white;fill-rule:nonzero}
   ]]>
  </style>
 </defs>
 <g id="Camada_x0020_1">
  <metadata id="CorelCorpID_0Corel-Layer"/>
  <path class="fil0" d="M6.08 0l18.79 0c3.34,0 6.08,2.73 6.08,6.08l0 32.91c0,3.34 -2.73,6.08 -6.08,6.08l-18.79 0c-3.34,0 -6.08,-2.73 -6.08,-6.08l0 -32.91c0,-3.34 2.73,-6.08 6.08,-6.08z"/>
  <path class="fil1" d="M12.45 10.94l-1.65 0.15c-0.06,-0.29 -0.09,-0.57 -0.09,-0.83 0,-0.8 0.18,-1.51 0.55,-2.1 0.37,-0.6 0.94,-1.09 1.71,-1.48 0.77,-0.39 1.62,-0.58 2.56,-0.58 0.87,0 1.65,0.17 2.35,0.51 0.7,0.34 1.23,0.78 1.58,1.31 0.35,0.54 0.53,1.1 0.53,1.69 0,0.6 -0.13,1.16 -0.38,1.68 -0.28,0.58 -0.73,1.14 -1.36,1.68 -0.63,0.54 -1.9,1.41 -3.8,2.61l2.74 0c0.45,0 0.73,-0.02 0.85,-0.07 0.12,-0.05 0.23,-0.14 0.31,-0.28 0.09,-0.14 0.16,-0.38 0.22,-0.72l0.06 -0.39 1.58 0 -0.74 4.29 -1.08 0 -0.1 -0.41 -7.52 0 0 -1.62c1.11,-0.74 2.51,-1.83 4.21,-3.27 0.87,-0.74 1.45,-1.37 1.74,-1.91 0.21,-0.39 0.32,-0.8 0.32,-1.23 0,-0.5 -0.2,-0.92 -0.6,-1.26 -0.4,-0.34 -0.94,-0.52 -1.61,-0.52 -0.49,0 -0.92,0.09 -1.29,0.28 -0.36,0.19 -0.65,0.45 -0.86,0.8 -0.21,0.35 -0.31,0.71 -0.31,1.1 0,0.14 0.02,0.33 0.05,0.57z"/>
  <path class="fil2" d="M15.47 23c2.3,0 4.16,1.86 4.16,4.16 0,1.17 -0.48,2.23 -1.26,2.98 0.57,-0.3 1.22,-0.46 1.91,-0.46 2.3,0 4.16,1.86 4.16,4.16 0,2.3 -1.86,4.16 -4.16,4.16 -1.99,0 -3.65,-1.39 -4.06,-3.25 -0.13,2.44 0.88,3.91 1.99,5.29 -0.66,-0.37 -1.59,-0.52 -2.73,-0.5 -1.14,-0.02 -2.07,0.14 -2.74,0.5 1.12,-1.38 2.12,-2.85 1.99,-5.29l0 -0c-0.41,1.86 -2.07,3.26 -4.06,3.26 -2.3,0 -4.16,-1.86 -4.16,-4.16 0,-2.3 1.86,-4.16 4.16,-4.16 0.69,0 1.34,0.17 1.91,0.46 -0.78,-0.76 -1.26,-1.81 -1.26,-2.98 0,-2.3 1.86,-4.16 4.16,-4.16z"/>
 </g>
</svg>
