<?xml version="1.0" encoding="UTF-8"?>
<!DOCTYPE svg PUBLIC "-//W3C//DTD SVG 1.1//EN" "http://www.w3.org/Graphics/SVG/1.1/DTD/svg11.dtd">
<!-- Creator: CorelDRAW -->
<svg xmlns="http://www.w3.org/2000/svg" xml:space="preserve" width="14.5523mm" height="21.194mm" version="1.1" style="shape-rendering:geometricPrecision; text-rendering:geometricPrecision; image-rendering:optimizeQuality; fill-rule:evenodd; clip-rule:evenodd"
viewBox="0 0 34.08 49.64"
 xmlns:xlink="http://www.w3.org/1999/xlink"
 xmlns:xodm="http://www.corel.com/coreldraw/odm/2003">
 <defs>
  <style type="text/css">
   <![CDATA[
    .fil0 {fill:#003399}
    .fil2 {fill:white}
    .fil1 {fill:white;fill-rule:nonzero}
   ]]>
  </style>
 </defs>
 <g id="Camada_x0020_1">
  <metadata id="CorelCorpID_0Corel-Layer"/>
  <path class="fil0" d="M6.69 0l20.7 0c3.68,0 6.69,3.01 6.69,6.69l0 36.25c0,3.68 -3.01,6.69 -6.69,6.69l-20.7 0c-3.68,0 -6.69,-3.01 -6.69,-6.69l0 -36.25c0,-3.68 3.01,-6.69 6.69,-6.69z"/>
  <path class="fil1" d="M13.71 12.05l-1.82 0.17c-0.06,-0.32 -0.1,-0.63 -0.1,-0.92 0,-0.89 0.2,-1.66 0.61,-2.32 0.41,-0.66 1.04,-1.2 1.89,-1.63 0.85,-0.43 1.79,-0.64 2.83,-0.64 0.95,0 1.82,0.19 2.59,0.56 0.77,0.37 1.35,0.85 1.74,1.44 0.39,0.59 0.59,1.21 0.59,1.87 0,0.66 -0.14,1.27 -0.41,1.85 -0.31,0.64 -0.8,1.26 -1.5,1.85 -0.69,0.6 -2.09,1.55 -4.19,2.87l3.02 0c0.49,0 0.8,-0.03 0.93,-0.08 0.13,-0.05 0.25,-0.15 0.34,-0.31 0.1,-0.15 0.17,-0.42 0.24,-0.79l0.07 -0.43 1.75 0 -0.82 4.73 -1.19 0 -0.11 -0.45 -8.29 0 0 -1.78c1.22,-0.81 2.76,-2.01 4.64,-3.6 0.96,-0.81 1.6,-1.51 1.92,-2.11 0.23,-0.43 0.35,-0.88 0.35,-1.36 0,-0.55 -0.22,-1.01 -0.66,-1.39 -0.44,-0.38 -1.03,-0.57 -1.77,-0.57 -0.54,0 -1.02,0.1 -1.42,0.31 -0.4,0.2 -0.71,0.5 -0.94,0.88 -0.23,0.38 -0.34,0.78 -0.34,1.21 0,0.15 0.02,0.36 0.06,0.63z"/>
  <path class="fil2" d="M17.04 44.58c2.82,-4.4 5.21,-7.57 7.34,-9.94 -2.71,-2.56 -5.13,-5.9 -7.34,-9.81 -2.21,3.91 -4.63,7.25 -7.34,9.81 2.12,2.36 4.52,5.53 7.34,9.94z"/>
 </g>
</svg>
