<?xml version="1.0" encoding="UTF-8"?>
<!DOCTYPE svg PUBLIC "-//W3C//DTD SVG 1.1//EN" "http://www.w3.org/Graphics/SVG/1.1/DTD/svg11.dtd">
<!-- Creator: CorelDRAW -->
<svg xmlns="http://www.w3.org/2000/svg" xml:space="preserve" width="14.5523mm" height="21.194mm" version="1.1" style="shape-rendering:geometricPrecision; text-rendering:geometricPrecision; image-rendering:optimizeQuality; fill-rule:evenodd; clip-rule:evenodd"
viewBox="0 0 83.5 121.6"
 xmlns:xlink="http://www.w3.org/1999/xlink"
 xmlns:xodm="http://www.corel.com/coreldraw/odm/2003">
 <defs>
  <style type="text/css">
   <![CDATA[
    .fil0 {fill:#DF0000}
    .fil2 {fill:white}
    .fil1 {fill:white;fill-rule:nonzero}
   ]]>
  </style>
 </defs>
 <g id="Camada_x0020_1">
  <metadata id="CorelCorpID_0Corel-Layer"/>
  <path class="fil0" d="M16.4 0l50.7 0c9.02,0 16.4,7.38 16.4,16.4l0 88.81c0,9.02 -7.38,16.4 -16.4,16.4l-50.7 0c-9.02,0 -16.4,-7.38 -16.4,-16.4l0 -88.81c0,-9.02 7.38,-16.4 16.4,-16.4z"/>
  <path class="fil1" d="M33.59 29.51l-4.45 0.42c-0.16,-0.79 -0.24,-1.54 -0.24,-2.25 0,-2.17 0.5,-4.06 1.5,-5.68 1,-1.61 2.54,-2.93 4.62,-3.99 2.07,-1.05 4.38,-1.58 6.92,-1.58 2.34,0 4.45,0.46 6.34,1.37 1.89,0.91 3.31,2.09 4.26,3.54 0.95,1.45 1.44,2.97 1.44,4.57 0,1.61 -0.34,3.12 -1.01,4.53 -0.75,1.57 -1.97,3.08 -3.67,4.54 -1.7,1.47 -5.12,3.81 -10.26,7.04l7.4 0c1.2,0 1.96,-0.06 2.28,-0.19 0.32,-0.12 0.61,-0.38 0.84,-0.76 0.23,-0.38 0.43,-1.03 0.59,-1.95l0.17 -1.04 4.28 0 -2.01 11.59 -2.91 0 -0.26 -1.11 -20.3 0 0 -4.36c2.98,-1.99 6.77,-4.94 11.36,-8.82 2.35,-1.99 3.92,-3.71 4.7,-5.16 0.57,-1.05 0.86,-2.16 0.86,-3.32 0,-1.34 -0.54,-2.48 -1.62,-3.41 -1.08,-0.93 -2.53,-1.39 -4.34,-1.39 -1.33,0 -2.5,0.25 -3.48,0.76 -0.98,0.5 -1.75,1.23 -2.31,2.16 -0.56,0.93 -0.83,1.92 -0.83,2.96 0,0.38 0.04,0.89 0.14,1.54z"/>
  <path class="fil2" d="M41.75 67.93c-4.28,-7.05 -11.86,-8.58 -18.62,-5.69 -8.21,3.68 -11.07,17.68 -3.94,25.56 4.89,6.46 17.9,14.62 22.56,21.42 4.66,-6.8 17.67,-14.96 22.56,-21.42 7.13,-7.88 4.27,-21.88 -3.94,-25.56 -6.76,-2.89 -14.33,-1.36 -18.62,5.69z"/>
 </g>
</svg>
