<?xml version="1.0" encoding="UTF-8"?>
<!DOCTYPE svg PUBLIC "-//W3C//DTD SVG 1.1//EN" "http://www.w3.org/Graphics/SVG/1.1/DTD/svg11.dtd">
<!-- Creator: CorelDRAW -->
<svg xmlns="http://www.w3.org/2000/svg" xml:space="preserve" width="14.5523mm" height="21.194mm" version="1.1" style="shape-rendering:geometricPrecision; text-rendering:geometricPrecision; image-rendering:optimizeQuality; fill-rule:evenodd; clip-rule:evenodd"
viewBox="0 0 118.65 172.8"
 xmlns:xlink="http://www.w3.org/1999/xlink"
 xmlns:xodm="http://www.corel.com/coreldraw/odm/2003">
 <defs>
  <style type="text/css">
   <![CDATA[
    .fil0 {fill:#333333}
    .fil1 {fill:white}
    .fil2 {fill:white;fill-rule:nonzero}
   ]]>
  </style>
 </defs>
 <g id="Camada_x0020_1">
  <metadata id="CorelCorpID_0Corel-Layer"/>
  <path class="fil0" d="M23.3 0l72.05 0c12.82,0 23.3,10.49 23.3,23.3l0 126.2c0,12.82 -10.49,23.3 -23.3,23.3l-72.05 0c-12.82,0 -23.3,-10.49 -23.3,-23.3l0 -126.2c0,-12.82 10.49,-23.3 23.3,-23.3z"/>
  <path class="fil1" d="M59.32 86.48c-12.59,17.1 -17.97,19.05 -26.96,27.04 -8.86,8.38 -9.43,17 -0.42,25.9 8.47,6.78 18.25,4.5 23.73,-1.15 0.57,-0.63 1.78,0.41 1.44,1.64 -2.13,7.59 -4.34,12.62 -7.51,15.29 2.61,-1.75 5.61,-1.77 9.72,-1.71 4.11,-0.05 7.12,-0.04 9.72,1.71 -3.17,-2.67 -5.37,-7.7 -7.51,-15.29 -0.34,-1.23 0.87,-2.26 1.44,-1.64 5.47,5.65 15.25,7.93 23.73,1.15 9.01,-8.89 8.44,-17.51 -0.42,-25.9 -8.99,-7.99 -14.37,-9.94 -26.96,-27.04z"/>
  <path class="fil2" d="M47.73 41.94l-6.32 0.59c-0.22,-1.12 -0.34,-2.18 -0.34,-3.19 0,-3.08 0.71,-5.77 2.13,-8.07 1.42,-2.28 3.61,-4.17 6.57,-5.66 2.95,-1.49 6.23,-2.24 9.84,-2.24 3.32,0 6.32,0.65 9,1.94 2.68,1.3 4.7,2.98 6.05,5.03 1.36,2.06 2.04,4.23 2.04,6.5 0,2.29 -0.48,4.43 -1.44,6.43 -1.07,2.23 -2.8,4.38 -5.21,6.45 -2.41,2.08 -7.27,5.41 -14.58,10l10.52 0c1.71,0 2.79,-0.09 3.25,-0.27 0.46,-0.18 0.87,-0.54 1.2,-1.08 0.33,-0.54 0.61,-1.46 0.84,-2.77l0.25 -1.48 6.08 0 -2.85 16.46 -4.13 0 -0.37 -1.58 -28.85 0 0 -6.2c4.24,-2.83 9.62,-7.01 16.14,-12.53 3.34,-2.83 5.56,-5.27 6.67,-7.33 0.81,-1.49 1.22,-3.07 1.22,-4.72 0,-1.91 -0.77,-3.52 -2.3,-4.84 -1.54,-1.32 -3.59,-1.98 -6.16,-1.98 -1.89,0 -3.55,0.36 -4.95,1.08 -1.4,0.71 -2.49,1.74 -3.29,3.07 -0.79,1.33 -1.19,2.72 -1.19,4.2 0,0.54 0.06,1.26 0.19,2.18z"/>
 </g>
</svg>
