<?xml version="1.0" encoding="UTF-8"?>
<!DOCTYPE svg PUBLIC "-//W3C//DTD SVG 1.1//EN" "http://www.w3.org/Graphics/SVG/1.1/DTD/svg11.dtd">
<!-- Creator: CorelDRAW -->
<svg xmlns="http://www.w3.org/2000/svg" xml:space="preserve" width="14.5523mm" height="21.194mm" version="1.1" style="shape-rendering:geometricPrecision; text-rendering:geometricPrecision; image-rendering:optimizeQuality; fill-rule:evenodd; clip-rule:evenodd"
viewBox="0 0 29.53 43"
 xmlns:xlink="http://www.w3.org/1999/xlink"
 xmlns:xodm="http://www.corel.com/coreldraw/odm/2003">
 <defs>
  <style type="text/css">
   <![CDATA[
    .fil0 {fill:#025936}
    .fil2 {fill:white}
    .fil1 {fill:white;fill-rule:nonzero}
   ]]>
  </style>
 </defs>
 <g id="Camada_x0020_1">
  <metadata id="CorelCorpID_0Corel-Layer"/>
  <path class="fil0" d="M5.8 0l17.93 0c3.19,0 5.8,2.61 5.8,5.8l0 31.41c0,3.19 -2.61,5.8 -5.8,5.8l-17.93 0c-3.19,0 -5.8,-2.61 -5.8,-5.8l0 -31.41c0,-3.19 2.61,-5.8 5.8,-5.8z"/>
  <path class="fil1" d="M12.32 9.71l-1.61 0c0,-0.12 0,-0.22 0,-0.3 0,-0.69 0.15,-1.28 0.45,-1.78 0.3,-0.5 0.78,-0.91 1.42,-1.23 0.65,-0.32 1.38,-0.48 2.21,-0.48 0.79,0 1.5,0.14 2.12,0.43 0.63,0.29 1.1,0.65 1.41,1.1 0.31,0.45 0.46,0.91 0.46,1.38 0,0.37 -0.1,0.74 -0.29,1.1 -0.19,0.36 -0.45,0.66 -0.78,0.92 -0.22,0.16 -0.54,0.33 -0.97,0.5 0.39,0.04 0.74,0.14 1.05,0.29 0.31,0.15 0.58,0.34 0.81,0.58 0.23,0.23 0.4,0.49 0.51,0.79 0.11,0.3 0.17,0.61 0.17,0.95 0,0.61 -0.18,1.19 -0.53,1.72 -0.35,0.53 -0.88,0.96 -1.58,1.29 -0.7,0.33 -1.5,0.49 -2.42,0.49 -0.9,0 -1.7,-0.16 -2.4,-0.46 -0.7,-0.31 -1.23,-0.7 -1.58,-1.17 -0.35,-0.48 -0.53,-0.95 -0.53,-1.42 0,-0.36 0.12,-0.66 0.37,-0.92 0.25,-0.26 0.55,-0.39 0.9,-0.39 0.34,0 0.64,0.12 0.89,0.36 0.17,0.15 0.31,0.42 0.43,0.79 0.15,0.49 0.29,0.81 0.41,0.96 0.12,0.16 0.32,0.3 0.6,0.42 0.27,0.12 0.55,0.18 0.84,0.18 0.33,0 0.65,-0.08 0.96,-0.25 0.31,-0.17 0.53,-0.37 0.68,-0.63 0.15,-0.25 0.22,-0.56 0.22,-0.92 0,-0.66 -0.25,-1.14 -0.74,-1.45 -0.38,-0.24 -0.97,-0.36 -1.77,-0.36l-0.51 0 0 -1.54 0.51 0c0.63,0 1.09,-0.05 1.36,-0.14 0.27,-0.1 0.49,-0.26 0.64,-0.48 0.16,-0.22 0.23,-0.47 0.23,-0.73 0,-0.36 -0.13,-0.66 -0.39,-0.92 -0.33,-0.33 -0.83,-0.49 -1.5,-0.49 -0.45,0 -0.81,0.07 -1.1,0.21 -0.29,0.14 -0.52,0.33 -0.68,0.58 -0.16,0.25 -0.26,0.58 -0.29,0.99z"/>
  <path class="fil2" d="M14.76 21.95c2.19,0 3.97,1.78 3.97,3.97 0,1.12 -0.46,2.13 -1.2,2.85 0.54,-0.28 1.16,-0.44 1.82,-0.44 2.19,0 3.97,1.78 3.97,3.97 0,2.19 -1.78,3.97 -3.97,3.97 -1.9,0 -3.48,-1.33 -3.87,-3.11 -0.13,2.33 0.84,3.73 1.9,5.04 -0.63,-0.35 -1.52,-0.5 -2.61,-0.48 -1.09,-0.02 -1.98,0.13 -2.61,0.48 1.07,-1.31 2.03,-2.72 1.9,-5.04l0 -0c-0.39,1.78 -1.98,3.11 -3.87,3.11 -2.19,0 -3.97,-1.78 -3.97,-3.97 0,-2.19 1.78,-3.97 3.97,-3.97 0.66,0 1.27,0.16 1.82,0.44 -0.74,-0.72 -1.2,-1.73 -1.2,-2.85 0,-2.19 1.78,-3.97 3.97,-3.97z"/>
 </g>
</svg>
