<?xml version="1.0" encoding="UTF-8"?>
<!DOCTYPE svg PUBLIC "-//W3C//DTD SVG 1.1//EN" "http://www.w3.org/Graphics/SVG/1.1/DTD/svg11.dtd">
<!-- Creator: CorelDRAW -->
<svg xmlns="http://www.w3.org/2000/svg" xml:space="preserve" width="14.5523mm" height="21.194mm" version="1.1" style="shape-rendering:geometricPrecision; text-rendering:geometricPrecision; image-rendering:optimizeQuality; fill-rule:evenodd; clip-rule:evenodd"
viewBox="0 0 35.98 52.4"
 xmlns:xlink="http://www.w3.org/1999/xlink"
 xmlns:xodm="http://www.corel.com/coreldraw/odm/2003">
 <defs>
  <style type="text/css">
   <![CDATA[
    .fil0 {fill:#003399}
    .fil2 {fill:white}
    .fil1 {fill:white;fill-rule:nonzero}
   ]]>
  </style>
 </defs>
 <g id="Camada_x0020_1">
  <metadata id="CorelCorpID_0Corel-Layer"/>
  <path class="fil0" d="M7.07 0l21.85 0c3.89,0 7.07,3.18 7.07,7.07l0 38.27c0,3.89 -3.18,7.07 -7.07,7.07l-21.85 0c-3.89,0 -7.07,-3.18 -7.07,-7.07l0 -38.27c0,-3.89 3.18,-7.07 7.07,-7.07z"/>
  <path class="fil1" d="M15.01 11.83l-1.96 0c0,-0.15 0,-0.27 0,-0.37 0,-0.84 0.18,-1.56 0.55,-2.17 0.37,-0.61 0.95,-1.1 1.74,-1.49 0.79,-0.39 1.69,-0.58 2.7,-0.58 0.96,0 1.82,0.17 2.59,0.52 0.77,0.35 1.34,0.8 1.71,1.34 0.38,0.54 0.56,1.1 0.56,1.68 0,0.45 -0.12,0.9 -0.35,1.34 -0.24,0.44 -0.55,0.81 -0.95,1.12 -0.27,0.2 -0.66,0.41 -1.19,0.61 0.48,0.05 0.9,0.17 1.28,0.36 0.38,0.19 0.7,0.42 0.98,0.7 0.28,0.28 0.48,0.6 0.62,0.96 0.14,0.36 0.2,0.75 0.2,1.16 0,0.75 -0.21,1.45 -0.64,2.1 -0.43,0.65 -1.07,1.17 -1.92,1.57 -0.85,0.4 -1.83,0.6 -2.95,0.6 -1.09,0 -2.07,-0.19 -2.92,-0.57 -0.85,-0.38 -1.5,-0.86 -1.93,-1.43 -0.43,-0.58 -0.64,-1.15 -0.64,-1.73 0,-0.43 0.15,-0.81 0.45,-1.12 0.3,-0.31 0.67,-0.47 1.1,-0.47 0.41,0 0.77,0.15 1.09,0.44 0.2,0.19 0.38,0.51 0.52,0.97 0.18,0.59 0.35,0.98 0.5,1.17 0.15,0.19 0.39,0.36 0.73,0.51 0.33,0.15 0.67,0.22 1.02,0.22 0.4,0 0.79,-0.1 1.17,-0.3 0.38,-0.2 0.65,-0.46 0.83,-0.77 0.18,-0.31 0.27,-0.68 0.27,-1.12 0,-0.8 -0.3,-1.39 -0.9,-1.77 -0.46,-0.29 -1.18,-0.44 -2.15,-0.44l-0.62 0 0 -1.88 0.62 0c0.77,0 1.32,-0.06 1.65,-0.17 0.33,-0.12 0.59,-0.31 0.78,-0.59 0.19,-0.27 0.28,-0.57 0.28,-0.89 0,-0.43 -0.16,-0.81 -0.47,-1.12 -0.4,-0.4 -1.01,-0.59 -1.82,-0.59 -0.54,0 -0.99,0.08 -1.34,0.25 -0.35,0.17 -0.63,0.41 -0.83,0.71 -0.2,0.31 -0.32,0.71 -0.36,1.21z"/>
  <path class="fil2" d="M17.99 47.06c2.97,-4.65 5.5,-7.99 7.74,-10.49 -2.86,-2.7 -5.41,-6.23 -7.74,-10.35 -2.33,4.12 -4.88,7.65 -7.74,10.35 2.24,2.5 4.77,5.84 7.74,10.49z"/>
 </g>
</svg>
