<?xml version="1.0" encoding="UTF-8"?>
<!DOCTYPE svg PUBLIC "-//W3C//DTD SVG 1.1//EN" "http://www.w3.org/Graphics/SVG/1.1/DTD/svg11.dtd">
<!-- Creator: CorelDRAW -->
<svg xmlns="http://www.w3.org/2000/svg" xml:space="preserve" width="14.5523mm" height="21.194mm" version="1.1" style="shape-rendering:geometricPrecision; text-rendering:geometricPrecision; image-rendering:optimizeQuality; fill-rule:evenodd; clip-rule:evenodd"
viewBox="0 0 73.94 107.69"
 xmlns:xlink="http://www.w3.org/1999/xlink"
 xmlns:xodm="http://www.corel.com/coreldraw/odm/2003">
 <defs>
  <style type="text/css">
   <![CDATA[
    .fil0 {fill:#DF0000}
    .fil2 {fill:white}
    .fil1 {fill:white;fill-rule:nonzero}
   ]]>
  </style>
 </defs>
 <g id="Camada_x0020_1">
  <metadata id="CorelCorpID_0Corel-Layer"/>
  <path class="fil0" d="M14.52 0l44.9 0c7.99,0 14.52,6.53 14.52,14.52l0 78.65c0,7.99 -6.53,14.52 -14.52,14.52l-44.9 0c-7.99,0 -14.52,-6.53 -14.52,-14.52l0 -78.65c0,-7.99 6.53,-14.52 14.52,-14.52z"/>
  <path class="fil1" d="M30.84 24.31l-4.03 0c0,-0.31 0,-0.56 0,-0.76 0,-1.72 0.38,-3.22 1.14,-4.46 0.76,-1.25 1.95,-2.27 3.57,-3.07 1.62,-0.79 3.47,-1.19 5.54,-1.19 1.98,0 3.75,0.36 5.32,1.07 1.58,0.72 2.75,1.63 3.52,2.76 0.77,1.11 1.16,2.27 1.16,3.46 0,0.93 -0.24,1.85 -0.72,2.75 -0.49,0.9 -1.13,1.66 -1.95,2.29 -0.55,0.41 -1.36,0.83 -2.44,1.26 0.98,0.11 1.86,0.35 2.63,0.73 0.77,0.38 1.44,0.86 2.02,1.44 0.57,0.58 0.99,1.24 1.28,1.97 0.28,0.74 0.42,1.53 0.42,2.39 0,1.54 -0.44,2.98 -1.32,4.31 -0.89,1.33 -2.2,2.41 -3.95,3.24 -1.74,0.82 -3.77,1.23 -6.07,1.23 -2.25,0 -4.25,-0.39 -6.01,-1.16 -1.76,-0.77 -3.08,-1.76 -3.97,-2.94 -0.89,-1.19 -1.32,-2.37 -1.32,-3.55 0,-0.89 0.31,-1.66 0.93,-2.3 0.63,-0.64 1.38,-0.96 2.26,-0.96 0.85,0 1.59,0.3 2.24,0.9 0.42,0.38 0.77,1.05 1.07,1.98 0.38,1.22 0.72,2.02 1.02,2.41 0.31,0.39 0.8,0.75 1.49,1.05 0.68,0.31 1.38,0.46 2.1,0.46 0.83,0 1.63,-0.2 2.4,-0.62 0.77,-0.42 1.34,-0.94 1.7,-1.57 0.37,-0.64 0.55,-1.4 0.55,-2.3 0,-1.65 -0.62,-2.86 -1.85,-3.63 -0.95,-0.6 -2.43,-0.9 -4.43,-0.9l-1.27 0 0 -3.86 1.27 0c1.58,0 2.72,-0.12 3.4,-0.36 0.69,-0.24 1.22,-0.64 1.61,-1.21 0.39,-0.56 0.59,-1.17 0.59,-1.82 0,-0.89 -0.33,-1.66 -0.97,-2.29 -0.82,-0.81 -2.07,-1.22 -3.75,-1.22 -1.12,0 -2.04,0.17 -2.76,0.52 -0.73,0.34 -1.29,0.83 -1.7,1.46 -0.41,0.64 -0.65,1.46 -0.73,2.49z"/>
  <path class="fil2" d="M36.97 60.16c-3.79,-6.25 -10.5,-7.6 -16.49,-5.04 -7.27,3.26 -9.81,15.66 -3.49,22.64 4.33,5.72 15.85,12.94 19.98,18.97 4.13,-6.02 15.65,-13.24 19.98,-18.97 6.32,-6.97 3.78,-19.38 -3.49,-22.64 -5.98,-2.56 -12.69,-1.21 -16.49,5.04z"/>
 </g>
</svg>
