<?xml version="1.0" encoding="UTF-8"?>
<!DOCTYPE svg PUBLIC "-//W3C//DTD SVG 1.1//EN" "http://www.w3.org/Graphics/SVG/1.1/DTD/svg11.dtd">
<!-- Creator: CorelDRAW -->
<svg xmlns="http://www.w3.org/2000/svg" xml:space="preserve" width="14.5523mm" height="21.194mm" version="1.1" style="shape-rendering:geometricPrecision; text-rendering:geometricPrecision; image-rendering:optimizeQuality; fill-rule:evenodd; clip-rule:evenodd"
viewBox="0 0 145.32 211.65"
 xmlns:xlink="http://www.w3.org/1999/xlink"
 xmlns:xodm="http://www.corel.com/coreldraw/odm/2003">
 <defs>
  <style type="text/css">
   <![CDATA[
    .fil0 {fill:#333333}
    .fil1 {fill:white}
    .fil2 {fill:white;fill-rule:nonzero}
   ]]>
  </style>
 </defs>
 <g id="Camada_x0020_1">
  <metadata id="CorelCorpID_0Corel-Layer"/>
  <path class="fil0" d="M28.54 0l88.24 0c15.7,0 28.54,12.84 28.54,28.54l0 154.57c0,15.7 -12.84,28.54 -28.54,28.54l-88.24 0c-15.7,0 -28.54,-12.84 -28.54,-28.54l0 -154.57c0,-15.7 12.84,-28.54 28.54,-28.54z"/>
  <path class="fil1" d="M72.66 105.92c-15.42,20.95 -22.01,23.33 -33.02,33.12 -10.85,10.27 -11.56,20.83 -0.52,31.72 10.38,8.31 22.36,5.51 29.06,-1.41 0.7,-0.77 2.18,0.5 1.76,2.01 -2.61,9.29 -5.31,15.46 -9.19,18.73 3.19,-2.15 6.87,-2.17 11.91,-2.1 5.03,-0.07 8.71,-0.05 11.91,2.1 -3.88,-3.27 -6.58,-9.43 -9.19,-18.73 -0.42,-1.5 1.06,-2.77 1.76,-2.01 6.7,6.92 18.68,9.72 29.06,1.41 11.04,-10.89 10.34,-21.45 -0.52,-31.72 -11.01,-9.79 -17.59,-12.17 -33.02,-33.12z"/>
  <path class="fil2" d="M60.61 47.77l-7.93 0c0,-0.61 0,-1.1 0,-1.49 0,-3.39 0.75,-6.32 2.24,-8.77 1.49,-2.46 3.83,-4.46 7.01,-6.04 3.18,-1.56 6.81,-2.34 10.9,-2.34 3.88,0 7.36,0.7 10.45,2.1 3.1,1.41 5.4,3.21 6.92,5.42 1.52,2.19 2.28,4.46 2.28,6.8 0,1.83 -0.47,3.63 -1.41,5.4 -0.95,1.76 -2.22,3.27 -3.83,4.5 -1.07,0.81 -2.67,1.64 -4.79,2.47 1.94,0.21 3.65,0.69 5.17,1.44 1.52,0.75 2.84,1.69 3.96,2.84 1.11,1.14 1.95,2.43 2.51,3.87 0.55,1.45 0.82,3.01 0.82,4.69 0,3.02 -0.86,5.85 -2.6,8.47 -1.74,2.62 -4.33,4.75 -7.76,6.36 -3.43,1.61 -7.4,2.42 -11.93,2.42 -4.42,0 -8.36,-0.77 -11.81,-2.28 -3.45,-1.52 -6.06,-3.46 -7.8,-5.78 -1.74,-2.34 -2.6,-4.66 -2.6,-6.98 0,-1.75 0.62,-3.27 1.83,-4.52 1.23,-1.26 2.71,-1.9 4.45,-1.9 1.66,0 3.13,0.59 4.39,1.77 0.82,0.75 1.52,2.06 2.11,3.9 0.74,2.39 1.41,3.97 2.01,4.75 0.6,0.77 1.57,1.47 2.93,2.07 1.35,0.61 2.72,0.9 4.13,0.9 1.63,0 3.2,-0.4 4.72,-1.22 1.52,-0.82 2.63,-1.84 3.35,-3.09 0.72,-1.25 1.07,-2.76 1.07,-4.52 0,-3.24 -1.22,-5.62 -3.64,-7.14 -1.87,-1.18 -4.77,-1.77 -8.7,-1.77l-2.5 0 0 -7.58 2.5 0c3.11,0 5.35,-0.23 6.68,-0.7 1.35,-0.47 2.39,-1.26 3.17,-2.38 0.77,-1.1 1.15,-2.3 1.15,-3.58 0,-1.75 -0.64,-3.25 -1.91,-4.5 -1.61,-1.6 -4.07,-2.39 -7.36,-2.39 -2.2,0 -4,0.34 -5.42,1.02 -1.43,0.67 -2.54,1.64 -3.34,2.88 -0.81,1.25 -1.28,2.88 -1.44,4.89z"/>
 </g>
</svg>
