<?xml version="1.0" encoding="UTF-8"?>
<!DOCTYPE svg PUBLIC "-//W3C//DTD SVG 1.1//EN" "http://www.w3.org/Graphics/SVG/1.1/DTD/svg11.dtd">
<!-- Creator: CorelDRAW -->
<svg xmlns="http://www.w3.org/2000/svg" xml:space="preserve" width="14.5523mm" height="21.194mm" version="1.1" style="shape-rendering:geometricPrecision; text-rendering:geometricPrecision; image-rendering:optimizeQuality; fill-rule:evenodd; clip-rule:evenodd"
viewBox="0 0 28.24 41.12"
 xmlns:xlink="http://www.w3.org/1999/xlink"
 xmlns:xodm="http://www.corel.com/coreldraw/odm/2003">
 <defs>
  <style type="text/css">
   <![CDATA[
    .fil0 {fill:#025936}
    .fil2 {fill:white}
    .fil1 {fill:white;fill-rule:nonzero}
   ]]>
  </style>
 </defs>
 <g id="Camada_x0020_1">
  <metadata id="CorelCorpID_0Corel-Layer"/>
  <path class="fil0" d="M5.55 0l17.15 0c3.05,0 5.55,2.5 5.55,5.55l0 30.03c0,3.05 -2.5,5.55 -5.55,5.55l-17.15 0c-3.05,0 -5.55,-2.5 -5.55,-5.55l0 -30.03c0,-3.05 2.5,-5.55 5.55,-5.55z"/>
  <path class="fil1" d="M14.42 5.84l2.36 0 0 5.78 1.95 0 0 1.94 -1.95 0 0 2.95 -2.38 0 0 -2.95 -4.89 0 0 -2.39 4.91 -5.34zm-0.02 2.46l-3.09 3.32 3.09 0 0 -3.32z"/>
  <path class="fil2" d="M14.12 20.99c2.1,0 3.79,1.7 3.79,3.79 0,1.07 -0.44,2.03 -1.15,2.72 0.52,-0.27 1.11,-0.42 1.74,-0.42 2.1,0 3.79,1.7 3.79,3.79 0,2.1 -1.7,3.79 -3.79,3.79 -1.81,0 -3.33,-1.27 -3.7,-2.97 -0.12,2.23 0.8,3.57 1.82,4.82 -0.61,-0.33 -1.45,-0.48 -2.5,-0.46 -1.04,-0.02 -1.89,0.12 -2.5,0.46 1.02,-1.26 1.94,-2.6 1.82,-4.82l0 -0c-0.38,1.7 -1.89,2.97 -3.7,2.97 -2.1,0 -3.79,-1.7 -3.79,-3.79 0,-2.1 1.7,-3.79 3.79,-3.79 0.63,0 1.22,0.15 1.74,0.42 -0.71,-0.69 -1.15,-1.65 -1.15,-2.72 0,-2.1 1.7,-3.79 3.79,-3.79z"/>
 </g>
</svg>
