<?xml version="1.0" encoding="UTF-8"?>
<!DOCTYPE svg PUBLIC "-//W3C//DTD SVG 1.1//EN" "http://www.w3.org/Graphics/SVG/1.1/DTD/svg11.dtd">
<!-- Creator: CorelDRAW -->
<svg xmlns="http://www.w3.org/2000/svg" xml:space="preserve" width="14.5523mm" height="21.194mm" version="1.1" style="shape-rendering:geometricPrecision; text-rendering:geometricPrecision; image-rendering:optimizeQuality; fill-rule:evenodd; clip-rule:evenodd"
viewBox="0 0 38.1 55.49"
 xmlns:xlink="http://www.w3.org/1999/xlink"
 xmlns:xodm="http://www.corel.com/coreldraw/odm/2003">
 <defs>
  <style type="text/css">
   <![CDATA[
    .fil0 {fill:#003399}
    .fil2 {fill:white}
    .fil1 {fill:white;fill-rule:nonzero}
   ]]>
  </style>
 </defs>
 <g id="Camada_x0020_1">
  <metadata id="CorelCorpID_0Corel-Layer"/>
  <path class="fil0" d="M7.48 0l23.14 0c4.12,0 7.48,3.37 7.48,7.48l0 40.53c0,4.12 -3.37,7.48 -7.48,7.48l-23.14 0c-4.12,0 -7.48,-3.37 -7.48,-7.48l0 -40.53c0,-4.12 3.37,-7.48 7.48,-7.48z"/>
  <path class="fil1" d="M19.45 7.88l3.19 0 0 7.8 2.63 0 0 2.62 -2.63 0 0 3.98 -3.21 0 0 -3.98 -6.6 0 0 -3.22 6.63 -7.2zm-0.02 3.32l-4.17 4.48 4.17 0 0 -4.48z"/>
  <path class="fil2" d="M19.05 49.84c3.15,-4.92 5.83,-8.46 8.2,-11.11 -3.03,-2.86 -5.73,-6.59 -8.2,-10.96 -2.47,4.37 -5.17,8.1 -8.2,10.96 2.37,2.64 5.05,6.18 8.2,11.11z"/>
 </g>
</svg>
