<?xml version="1.0" encoding="UTF-8"?>
<!DOCTYPE svg PUBLIC "-//W3C//DTD SVG 1.1//EN" "http://www.w3.org/Graphics/SVG/1.1/DTD/svg11.dtd">
<!-- Creator: CorelDRAW -->
<svg xmlns="http://www.w3.org/2000/svg" xml:space="preserve" width="14.5523mm" height="21.194mm" version="1.1" style="shape-rendering:geometricPrecision; text-rendering:geometricPrecision; image-rendering:optimizeQuality; fill-rule:evenodd; clip-rule:evenodd"
viewBox="0 0 66.36 96.64"
 xmlns:xlink="http://www.w3.org/1999/xlink"
 xmlns:xodm="http://www.corel.com/coreldraw/odm/2003">
 <defs>
  <style type="text/css">
   <![CDATA[
    .fil0 {fill:#DF0000}
    .fil2 {fill:white}
    .fil1 {fill:white;fill-rule:nonzero}
   ]]>
  </style>
 </defs>
 <g id="Camada_x0020_1">
  <metadata id="CorelCorpID_0Corel-Layer"/>
  <path class="fil0" d="M13.03 0l40.29 0c7.17,0 13.03,5.86 13.03,13.03l0 70.58c0,7.17 -5.86,13.03 -13.03,13.03l-40.29 0c-7.17,0 -13.03,-5.86 -13.03,-13.03l0 -70.58c0,-7.17 5.86,-13.03 13.03,-13.03z"/>
  <path class="fil1" d="M33.88 13.73l5.55 0 0 13.59 4.59 0 0 4.57 -4.59 0 0 6.92 -5.59 0 0 -6.92 -11.5 0 0 -5.61 11.54 -12.55zm-0.04 5.79l-7.26 7.8 7.26 0 0 -7.8z"/>
  <path class="fil2" d="M33.18 53.98c-3.41,-5.61 -9.43,-6.82 -14.8,-4.52 -6.52,2.92 -8.8,14.05 -3.13,20.31 3.89,5.14 14.23,11.62 17.93,17.02 3.7,-5.41 14.04,-11.89 17.93,-17.02 5.67,-6.26 3.39,-17.39 -3.13,-20.31 -5.37,-2.3 -11.39,-1.08 -14.8,4.52z"/>
 </g>
</svg>
