<?xml version="1.0" encoding="UTF-8"?>
<!DOCTYPE svg PUBLIC "-//W3C//DTD SVG 1.1//EN" "http://www.w3.org/Graphics/SVG/1.1/DTD/svg11.dtd">
<!-- Creator: CorelDRAW -->
<svg xmlns="http://www.w3.org/2000/svg" xml:space="preserve" width="14.5523mm" height="21.194mm" version="1.1" style="shape-rendering:geometricPrecision; text-rendering:geometricPrecision; image-rendering:optimizeQuality; fill-rule:evenodd; clip-rule:evenodd"
viewBox="0 0 27.06 39.4"
 xmlns:xlink="http://www.w3.org/1999/xlink"
 xmlns:xodm="http://www.corel.com/coreldraw/odm/2003">
 <defs>
  <style type="text/css">
   <![CDATA[
    .fil0 {fill:#025936}
    .fil2 {fill:white}
    .fil1 {fill:white;fill-rule:nonzero}
   ]]>
  </style>
 </defs>
 <g id="Camada_x0020_1">
  <metadata id="CorelCorpID_0Corel-Layer"/>
  <path class="fil0" d="M5.31 0l16.43 0c2.92,0 5.31,2.39 5.31,5.31l0 28.78c0,2.92 -2.39,5.31 -5.31,5.31l-16.43 0c-2.92,0 -5.31,-2.39 -5.31,-5.31l0 -28.78c0,-2.92 2.39,-5.31 5.31,-5.31z"/>
  <path class="fil1" d="M9.98 11.3l0.25 -5.62 5.02 0c0.31,0 0.51,-0.02 0.6,-0.08 0.09,-0.05 0.14,-0.14 0.15,-0.27l0.96 0 0 2.54 -5.2 0 -0.06 1.32c0.58,-0.06 1.11,-0.09 1.58,-0.09 0.97,0 1.79,0.15 2.44,0.44 0.65,0.29 1.13,0.69 1.45,1.18 0.31,0.49 0.47,1.07 0.47,1.73 0,1.15 -0.45,2.06 -1.35,2.73 -0.81,0.6 -1.79,0.9 -2.94,0.9 -0.77,0 -1.46,-0.13 -2.08,-0.41 -0.62,-0.27 -1.08,-0.61 -1.38,-1.01 -0.3,-0.41 -0.45,-0.81 -0.45,-1.22 0,-0.33 0.11,-0.6 0.32,-0.82 0.22,-0.22 0.48,-0.33 0.79,-0.33 0.22,0 0.43,0.06 0.61,0.19 0.19,0.13 0.35,0.34 0.48,0.64 0.19,0.41 0.37,0.71 0.54,0.89 0.17,0.19 0.36,0.33 0.58,0.42 0.22,0.1 0.47,0.15 0.75,0.15 0.37,0 0.69,-0.08 0.98,-0.22 0.29,-0.15 0.51,-0.35 0.65,-0.61 0.15,-0.26 0.22,-0.55 0.22,-0.88 0,-0.56 -0.23,-1.02 -0.69,-1.37 -0.46,-0.35 -1.19,-0.53 -2.18,-0.53 -0.88,0 -1.72,0.11 -2.53,0.34z"/>
  <path class="fil2" d="M13.53 20.11c2.01,0 3.64,1.63 3.64,3.64 0,1.02 -0.42,1.95 -1.1,2.61 0.5,-0.26 1.07,-0.4 1.67,-0.4 2.01,0 3.64,1.63 3.64,3.64 0,2.01 -1.63,3.64 -3.64,3.64 -1.74,0 -3.19,-1.22 -3.55,-2.85 -0.12,2.13 0.77,3.42 1.74,4.62 -0.58,-0.32 -1.39,-0.46 -2.39,-0.44 -1,-0.02 -1.81,0.12 -2.39,0.44 0.98,-1.2 1.86,-2.49 1.74,-4.62l0 -0c-0.36,1.63 -1.81,2.85 -3.55,2.85 -2.01,0 -3.64,-1.63 -3.64,-3.64 0,-2.01 1.63,-3.64 3.64,-3.64 0.6,0 1.17,0.15 1.67,0.4 -0.68,-0.66 -1.1,-1.59 -1.1,-2.61 0,-2.01 1.63,-3.64 3.64,-3.64z"/>
 </g>
</svg>
