<?xml version="1.0" encoding="UTF-8"?>
<!DOCTYPE svg PUBLIC "-//W3C//DTD SVG 1.1//EN" "http://www.w3.org/Graphics/SVG/1.1/DTD/svg11.dtd">
<!-- Creator: CorelDRAW -->
<svg xmlns="http://www.w3.org/2000/svg" xml:space="preserve" width="14.5523mm" height="21.194mm" version="1.1" style="shape-rendering:geometricPrecision; text-rendering:geometricPrecision; image-rendering:optimizeQuality; fill-rule:evenodd; clip-rule:evenodd"
viewBox="0 0 40.49 58.97"
 xmlns:xlink="http://www.w3.org/1999/xlink"
 xmlns:xodm="http://www.corel.com/coreldraw/odm/2003">
 <defs>
  <style type="text/css">
   <![CDATA[
    .fil0 {fill:#003399}
    .fil2 {fill:white}
    .fil1 {fill:white;fill-rule:nonzero}
   ]]>
  </style>
 </defs>
 <g id="Camada_x0020_1">
  <metadata id="CorelCorpID_0Corel-Layer"/>
  <path class="fil0" d="M7.95 0l24.58 0c4.37,0 7.95,3.58 7.95,7.95l0 43.06c0,4.37 -3.58,7.95 -7.95,7.95l-24.58 0c-4.37,0 -7.95,-3.58 -7.95,-7.95l0 -43.06c0,-4.37 3.58,-7.95 7.95,-7.95z"/>
  <path class="fil1" d="M14.93 16.91l0.37 -8.41 7.52 0c0.47,0 0.77,-0.04 0.9,-0.11 0.13,-0.07 0.21,-0.21 0.23,-0.4l1.43 0 0 3.8 -7.78 0 -0.09 1.98c0.87,-0.09 1.65,-0.13 2.36,-0.13 1.46,0 2.67,0.22 3.65,0.66 0.98,0.44 1.7,1.03 2.17,1.76 0.47,0.74 0.7,1.6 0.7,2.59 0,1.72 -0.67,3.08 -2.03,4.09 -1.21,0.9 -2.68,1.35 -4.41,1.35 -1.15,0 -2.19,-0.2 -3.12,-0.61 -0.92,-0.41 -1.61,-0.91 -2.06,-1.52 -0.45,-0.61 -0.68,-1.22 -0.68,-1.83 0,-0.49 0.16,-0.9 0.48,-1.23 0.32,-0.33 0.72,-0.5 1.19,-0.5 0.34,0 0.64,0.09 0.92,0.28 0.28,0.19 0.52,0.51 0.73,0.95 0.29,0.61 0.56,1.06 0.81,1.33 0.25,0.28 0.54,0.49 0.87,0.63 0.33,0.15 0.71,0.22 1.12,0.22 0.55,0 1.03,-0.11 1.47,-0.33 0.43,-0.22 0.76,-0.52 0.98,-0.91 0.22,-0.38 0.33,-0.82 0.33,-1.32 0,-0.84 -0.34,-1.52 -1.03,-2.04 -0.69,-0.52 -1.77,-0.79 -3.26,-0.79 -1.32,0 -2.58,0.17 -3.78,0.5z"/>
  <path class="fil2" d="M20.24 52.96c3.35,-5.23 6.19,-8.99 8.71,-11.8 -3.22,-3.04 -6.09,-7.01 -8.71,-11.65 -2.62,4.64 -5.5,8.61 -8.71,11.65 2.52,2.81 5.37,6.57 8.71,11.8z"/>
 </g>
</svg>
