<?xml version="1.0" encoding="UTF-8"?>
<!DOCTYPE svg PUBLIC "-//W3C//DTD SVG 1.1//EN" "http://www.w3.org/Graphics/SVG/1.1/DTD/svg11.dtd">
<!-- Creator: CorelDRAW -->
<svg xmlns="http://www.w3.org/2000/svg" xml:space="preserve" width="14.5523mm" height="21.194mm" version="1.1" style="shape-rendering:geometricPrecision; text-rendering:geometricPrecision; image-rendering:optimizeQuality; fill-rule:evenodd; clip-rule:evenodd"
viewBox="0 0 60.18 87.64"
 xmlns:xlink="http://www.w3.org/1999/xlink"
 xmlns:xodm="http://www.corel.com/coreldraw/odm/2003">
 <defs>
  <style type="text/css">
   <![CDATA[
    .fil0 {fill:#DF0000}
    .fil2 {fill:white}
    .fil1 {fill:white;fill-rule:nonzero}
   ]]>
  </style>
 </defs>
 <g id="Camada_x0020_1">
  <metadata id="CorelCorpID_0Corel-Layer"/>
  <path class="fil0" d="M11.82 0l36.54 0c6.5,0 11.82,5.32 11.82,11.82l0 64.01c0,6.5 -5.32,11.82 -11.82,11.82l-36.54 0c-6.5,0 -11.82,-5.32 -11.82,-11.82l0 -64.01c0,-6.5 5.32,-11.82 11.82,-11.82z"/>
  <path class="fil1" d="M22.19 25.14l0.55 -12.5 11.17 0c0.7,0 1.14,-0.06 1.34,-0.17 0.2,-0.11 0.31,-0.31 0.34,-0.6l2.13 0 0 5.65 -11.57 0 -0.13 2.94c1.29,-0.13 2.46,-0.2 3.5,-0.2 2.17,0 3.98,0.33 5.42,0.98 1.45,0.65 2.52,1.53 3.22,2.62 0.7,1.1 1.05,2.38 1.05,3.85 0,2.56 -1,4.58 -3.01,6.08 -1.8,1.34 -3.98,2 -6.55,2 -1.71,0 -3.25,-0.3 -4.63,-0.9 -1.37,-0.61 -2.39,-1.36 -3.07,-2.25 -0.67,-0.9 -1.01,-1.81 -1.01,-2.72 0,-0.73 0.24,-1.34 0.72,-1.83 0.48,-0.5 1.07,-0.74 1.77,-0.74 0.5,0 0.95,0.14 1.37,0.42 0.41,0.28 0.77,0.75 1.08,1.41 0.43,0.91 0.83,1.57 1.2,1.98 0.37,0.41 0.8,0.72 1.3,0.94 0.49,0.22 1.05,0.32 1.66,0.32 0.81,0 1.54,-0.17 2.18,-0.5 0.64,-0.33 1.13,-0.78 1.46,-1.35 0.33,-0.57 0.49,-1.22 0.49,-1.96 0,-1.24 -0.51,-2.26 -1.53,-3.04 -1.02,-0.78 -2.64,-1.17 -4.84,-1.17 -1.96,0 -3.83,0.25 -5.62,0.75z"/>
  <path class="fil2" d="M30.09 48.96c-3.09,-5.08 -8.55,-6.18 -13.42,-4.1 -5.92,2.65 -7.98,12.75 -2.84,18.42 3.52,4.66 12.9,10.53 16.26,15.44 3.36,-4.9 12.74,-10.78 16.26,-15.44 5.14,-5.68 3.08,-15.77 -2.84,-18.42 -4.87,-2.08 -10.33,-0.98 -13.42,4.1z"/>
 </g>
</svg>
