<?xml version="1.0" encoding="UTF-8"?>
<!DOCTYPE svg PUBLIC "-//W3C//DTD SVG 1.1//EN" "http://www.w3.org/Graphics/SVG/1.1/DTD/svg11.dtd">
<!-- Creator: CorelDRAW -->
<svg xmlns="http://www.w3.org/2000/svg" xml:space="preserve" width="14.5523mm" height="21.194mm" version="1.1" style="shape-rendering:geometricPrecision; text-rendering:geometricPrecision; image-rendering:optimizeQuality; fill-rule:evenodd; clip-rule:evenodd"
viewBox="0 0 264.02 384.52"
 xmlns:xlink="http://www.w3.org/1999/xlink"
 xmlns:xodm="http://www.corel.com/coreldraw/odm/2003">
 <defs>
  <style type="text/css">
   <![CDATA[
    .fil0 {fill:#333333}
    .fil1 {fill:white}
    .fil2 {fill:white;fill-rule:nonzero}
   ]]>
  </style>
 </defs>
 <g id="Camada_x0020_1">
  <metadata id="CorelCorpID_0Corel-Layer"/>
  <path class="fil0" d="M51.85 0l160.32 0c28.52,0 51.85,23.33 51.85,51.85l0 280.82c0,28.52 -23.33,51.85 -51.85,51.85l-160.32 0c-28.52,0 -51.85,-23.33 -51.85,-51.85l0 -280.82c0,-28.52 23.33,-51.85 51.85,-51.85z"/>
  <path class="fil1" d="M132 192.44c-28.02,38.06 -39.99,42.39 -59.99,60.17 -19.72,18.65 -20.99,37.84 -0.94,57.62 18.86,15.1 40.62,10.01 52.8,-2.55 1.27,-1.39 3.97,0.91 3.2,3.64 -4.75,16.89 -9.66,28.09 -16.7,34.03 5.8,-3.9 12.49,-3.94 21.63,-3.82 9.14,-0.12 15.83,-0.08 21.63,3.82 -7.05,-5.93 -11.95,-17.14 -16.7,-34.03 -0.77,-2.73 1.93,-5.03 3.2,-3.64 12.17,12.57 33.93,17.65 52.79,2.55 20.06,-19.78 18.79,-38.97 -0.94,-57.62 -20,-17.79 -31.97,-22.11 -59.99,-60.17z"/>
  <path class="fil2" d="M97.36 110.29l2.42 -54.86 49.02 0c3.07,0 5.01,-0.24 5.87,-0.73 0.88,-0.49 1.38,-1.37 1.5,-2.64l9.34 0 0 24.77 -50.76 0 -0.57 12.9c5.66,-0.59 10.79,-0.88 15.37,-0.88 9.51,0 17.44,1.44 23.79,4.3 6.37,2.86 11.07,6.69 14.14,11.5 3.07,4.81 4.59,10.43 4.59,16.88 0,11.21 -4.4,20.1 -13.21,26.67 -7.89,5.86 -17.47,8.79 -28.73,8.79 -7.51,0 -14.28,-1.32 -20.32,-3.96 -6.01,-2.66 -10.5,-5.96 -13.45,-9.89 -2.95,-3.96 -4.42,-7.94 -4.42,-11.94 0,-3.2 1.05,-5.86 3.16,-8.04 2.12,-2.17 4.7,-3.25 7.75,-3.25 2.19,0 4.18,0.61 5.99,1.86 1.81,1.24 3.37,3.3 4.73,6.2 1.9,4.01 3.66,6.89 5.27,8.67 1.61,1.81 3.52,3.18 5.7,4.13 2.16,0.95 4.61,1.42 7.3,1.42 3.57,0 6.75,-0.73 9.58,-2.17 2.83,-1.47 4.97,-3.42 6.39,-5.94 1.45,-2.49 2.16,-5.35 2.16,-8.6 0,-5.45 -2.23,-9.92 -6.73,-13.34 -4.49,-3.42 -11.57,-5.13 -21.25,-5.13 -8.6,0 -16.82,1.1 -24.64,3.27z"/>
 </g>
</svg>
