<?xml version="1.0" encoding="UTF-8"?>
<!DOCTYPE svg PUBLIC "-//W3C//DTD SVG 1.1//EN" "http://www.w3.org/Graphics/SVG/1.1/DTD/svg11.dtd">
<!-- Creator: CorelDRAW -->
<svg xmlns="http://www.w3.org/2000/svg" xml:space="preserve" width="14.5523mm" height="21.194mm" version="1.1" style="shape-rendering:geometricPrecision; text-rendering:geometricPrecision; image-rendering:optimizeQuality; fill-rule:evenodd; clip-rule:evenodd"
viewBox="0 0 25.97 37.82"
 xmlns:xlink="http://www.w3.org/1999/xlink"
 xmlns:xodm="http://www.corel.com/coreldraw/odm/2003">
 <defs>
  <style type="text/css">
   <![CDATA[
    .fil0 {fill:#025936}
    .fil2 {fill:white}
    .fil1 {fill:white;fill-rule:nonzero}
   ]]>
  </style>
 </defs>
 <g id="Camada_x0020_1">
  <metadata id="CorelCorpID_0Corel-Layer"/>
  <path class="fil0" d="M5.1 0l15.77 0c2.81,0 5.1,2.29 5.1,5.1l0 27.62c0,2.8 -2.29,5.1 -5.1,5.1l-15.77 0c-2.81,0 -5.1,-2.29 -5.1,-5.1l0 -27.62c0,-2.8 2.29,-5.1 5.1,-5.1z"/>
  <path class="fil1" d="M16.07 5.21l0 1.38c-0.87,0.03 -1.57,0.12 -2.09,0.25 -0.52,0.13 -0.96,0.32 -1.3,0.55 -0.35,0.24 -0.63,0.51 -0.85,0.84 -0.22,0.32 -0.37,0.69 -0.45,1.11 0.4,-0.29 0.78,-0.49 1.14,-0.61 0.36,-0.12 0.75,-0.18 1.17,-0.18 0.67,0 1.26,0.14 1.79,0.42 0.53,0.28 0.93,0.66 1.2,1.14 0.28,0.48 0.41,1.03 0.41,1.66 0,1.04 -0.36,1.9 -1.08,2.58 -0.72,0.68 -1.69,1.01 -2.92,1.01 -1.26,0 -2.25,-0.35 -2.97,-1.04 -0.84,-0.81 -1.26,-1.92 -1.26,-3.34 0,-0.96 0.14,-1.78 0.42,-2.45 0.28,-0.67 0.72,-1.27 1.33,-1.78 0.6,-0.52 1.31,-0.9 2.12,-1.15 0.81,-0.25 1.92,-0.37 3.33,-0.38zm-3.01 4.94c-0.33,0 -0.63,0.08 -0.88,0.23 -0.25,0.15 -0.46,0.37 -0.6,0.65 -0.14,0.28 -0.21,0.61 -0.21,0.97 0,0.54 0.16,0.97 0.47,1.31 0.31,0.34 0.71,0.51 1.18,0.51 0.49,0 0.89,-0.17 1.21,-0.51 0.32,-0.34 0.48,-0.78 0.48,-1.33 0,-0.55 -0.15,-0.99 -0.46,-1.33 -0.31,-0.33 -0.7,-0.5 -1.18,-0.5z"/>
  <path class="fil2" d="M12.98 19.3c1.93,0 3.49,1.56 3.49,3.49 0,0.98 -0.41,1.87 -1.06,2.5 0.48,-0.25 1.02,-0.39 1.6,-0.39 1.93,0 3.49,1.56 3.49,3.49 0,1.93 -1.56,3.49 -3.49,3.49 -1.67,0 -3.06,-1.17 -3.41,-2.73 -0.11,2.05 0.73,3.28 1.67,4.44 -0.56,-0.31 -1.34,-0.44 -2.3,-0.42 -0.96,-0.02 -1.74,0.11 -2.3,0.42 0.94,-1.16 1.78,-2.39 1.67,-4.44l0 -0c-0.35,1.56 -1.74,2.73 -3.41,2.73 -1.93,0 -3.49,-1.56 -3.49,-3.49 0,-1.93 1.56,-3.49 3.49,-3.49 0.58,0 1.12,0.14 1.6,0.39 -0.65,-0.63 -1.06,-1.52 -1.06,-2.5 0,-1.93 1.56,-3.49 3.49,-3.49z"/>
 </g>
</svg>
