<?xml version="1.0" encoding="UTF-8"?>
<!DOCTYPE svg PUBLIC "-//W3C//DTD SVG 1.1//EN" "http://www.w3.org/Graphics/SVG/1.1/DTD/svg11.dtd">
<!-- Creator: CorelDRAW -->
<svg xmlns="http://www.w3.org/2000/svg" xml:space="preserve" width="14.5523mm" height="21.194mm" version="1.1" style="shape-rendering:geometricPrecision; text-rendering:geometricPrecision; image-rendering:optimizeQuality; fill-rule:evenodd; clip-rule:evenodd"
viewBox="0 0 43.19 62.9"
 xmlns:xlink="http://www.w3.org/1999/xlink"
 xmlns:xodm="http://www.corel.com/coreldraw/odm/2003">
 <defs>
  <style type="text/css">
   <![CDATA[
    .fil0 {fill:#003399}
    .fil2 {fill:white}
    .fil1 {fill:white;fill-rule:nonzero}
   ]]>
  </style>
 </defs>
 <g id="Camada_x0020_1">
  <metadata id="CorelCorpID_0Corel-Layer"/>
  <path class="fil0" d="M8.48 0l26.23 0c4.67,0 8.48,3.82 8.48,8.48l0 45.94c0,4.67 -3.82,8.48 -8.48,8.48l-26.23 0c-4.67,0 -8.48,-3.82 -8.48,-8.48l0 -45.94c0,-4.67 3.82,-8.48 8.48,-8.48z"/>
  <path class="fil1" d="M26.73 8.66l0 2.3c-1.45,0.06 -2.61,0.2 -3.48,0.42 -0.87,0.22 -1.59,0.54 -2.17,0.92 -0.58,0.39 -1.05,0.86 -1.41,1.39 -0.36,0.54 -0.61,1.15 -0.75,1.84 0.67,-0.48 1.3,-0.82 1.9,-1.02 0.6,-0.2 1.24,-0.3 1.94,-0.3 1.11,0 2.1,0.23 2.97,0.7 0.87,0.47 1.54,1.1 2,1.89 0.46,0.8 0.69,1.71 0.69,2.76 0,1.73 -0.6,3.16 -1.8,4.28 -1.2,1.12 -2.81,1.68 -4.85,1.68 -2.1,0 -3.75,-0.58 -4.93,-1.73 -1.39,-1.34 -2.09,-3.19 -2.09,-5.56 0,-1.6 0.23,-2.96 0.7,-4.08 0.47,-1.12 1.21,-2.11 2.21,-2.97 1,-0.86 2.18,-1.5 3.53,-1.91 1.35,-0.41 3.19,-0.62 5.53,-0.64zm-5 8.22c-0.55,0 -1.05,0.13 -1.47,0.38 -0.42,0.25 -0.76,0.62 -0.99,1.09 -0.24,0.47 -0.35,1.01 -0.35,1.62 0,0.89 0.26,1.61 0.78,2.18 0.52,0.56 1.17,0.85 1.97,0.85 0.81,0 1.48,-0.28 2.01,-0.85 0.53,-0.57 0.79,-1.3 0.79,-2.22 0,-0.92 -0.26,-1.65 -0.77,-2.21 -0.51,-0.56 -1.17,-0.84 -1.97,-0.84z"/>
  <path class="fil2" d="M21.59 56.5c3.57,-5.58 6.61,-9.6 9.3,-12.59 -3.43,-3.24 -6.5,-7.48 -9.3,-12.43 -2.8,4.95 -5.86,9.18 -9.3,12.43 2.69,3 5.73,7.01 9.3,12.59z"/>
 </g>
</svg>
