<?xml version="1.0" encoding="UTF-8"?>
<!DOCTYPE svg PUBLIC "-//W3C//DTD SVG 1.1//EN" "http://www.w3.org/Graphics/SVG/1.1/DTD/svg11.dtd">
<!-- Creator: CorelDRAW -->
<svg xmlns="http://www.w3.org/2000/svg" xml:space="preserve" width="14.5523mm" height="21.194mm" version="1.1" style="shape-rendering:geometricPrecision; text-rendering:geometricPrecision; image-rendering:optimizeQuality; fill-rule:evenodd; clip-rule:evenodd"
viewBox="0 0 55.05 80.18"
 xmlns:xlink="http://www.w3.org/1999/xlink"
 xmlns:xodm="http://www.corel.com/coreldraw/odm/2003">
 <defs>
  <style type="text/css">
   <![CDATA[
    .fil0 {fill:#DF0000}
    .fil2 {fill:white}
    .fil1 {fill:white;fill-rule:nonzero}
   ]]>
  </style>
 </defs>
 <g id="Camada_x0020_1">
  <metadata id="CorelCorpID_0Corel-Layer"/>
  <path class="fil0" d="M10.81 0l33.43 0c5.95,0 10.81,4.87 10.81,10.81l0 58.56c0,5.95 -4.87,10.81 -10.81,10.81l-33.43 0c-5.95,0 -10.81,-4.87 -10.81,-10.81l0 -58.56c0,-5.95 4.87,-10.81 10.81,-10.81z"/>
  <path class="fil1" d="M34.07 11.04l0 2.93c-1.85,0.07 -3.33,0.25 -4.43,0.54 -1.11,0.29 -2.03,0.68 -2.77,1.18 -0.73,0.5 -1.33,1.09 -1.79,1.77 -0.46,0.68 -0.78,1.46 -0.95,2.34 0.85,-0.61 1.66,-1.04 2.42,-1.29 0.76,-0.25 1.59,-0.38 2.48,-0.38 1.41,0 2.68,0.3 3.79,0.89 1.11,0.6 1.96,1.4 2.55,2.41 0.58,1.01 0.88,2.18 0.88,3.51 0,2.21 -0.76,4.03 -2.29,5.46 -1.53,1.43 -3.59,2.14 -6.18,2.14 -2.68,0 -4.78,-0.73 -6.29,-2.2 -1.77,-1.71 -2.66,-4.07 -2.66,-7.08 0,-2.04 0.3,-3.77 0.89,-5.19 0.59,-1.43 1.54,-2.69 2.81,-3.78 1.27,-1.1 2.77,-1.91 4.49,-2.43 1.72,-0.52 4.07,-0.79 7.05,-0.81zm-6.37 10.48c-0.7,0 -1.33,0.16 -1.87,0.48 -0.54,0.32 -0.97,0.78 -1.26,1.39 -0.3,0.6 -0.45,1.29 -0.45,2.06 0,1.14 0.33,2.06 1,2.78 0.66,0.72 1.5,1.08 2.51,1.08 1.04,0 1.89,-0.36 2.56,-1.08 0.67,-0.72 1.01,-1.66 1.01,-2.83 0,-1.17 -0.33,-2.11 -0.98,-2.82 -0.65,-0.71 -1.49,-1.06 -2.51,-1.06z"/>
  <path class="fil2" d="M27.52 44.79c-2.83,-4.65 -7.82,-5.66 -12.28,-3.75 -5.41,2.42 -7.3,11.66 -2.6,16.85 3.22,4.26 11.8,9.64 14.87,14.12 3.07,-4.49 11.65,-9.86 14.87,-14.12 4.7,-5.19 2.81,-14.43 -2.6,-16.85 -4.46,-1.91 -9.45,-0.9 -12.28,3.75z"/>
 </g>
</svg>
