<?xml version="1.0" encoding="UTF-8"?>
<!DOCTYPE svg PUBLIC "-//W3C//DTD SVG 1.1//EN" "http://www.w3.org/Graphics/SVG/1.1/DTD/svg11.dtd">
<!-- Creator: CorelDRAW -->
<svg xmlns="http://www.w3.org/2000/svg" xml:space="preserve" width="14.5523mm" height="21.194mm" version="1.1" style="shape-rendering:geometricPrecision; text-rendering:geometricPrecision; image-rendering:optimizeQuality; fill-rule:evenodd; clip-rule:evenodd"
viewBox="0 0 446.29 649.97"
 xmlns:xlink="http://www.w3.org/1999/xlink"
 xmlns:xodm="http://www.corel.com/coreldraw/odm/2003">
 <defs>
  <style type="text/css">
   <![CDATA[
    .fil0 {fill:#333333}
    .fil1 {fill:white}
    .fil2 {fill:white;fill-rule:nonzero}
   ]]>
  </style>
 </defs>
 <g id="Camada_x0020_1">
  <metadata id="CorelCorpID_0Corel-Layer"/>
  <path class="fil0" d="M87.65 0l271 0c48.21,0 87.65,39.44 87.65,87.64l0 474.69c0,48.2 -39.44,87.64 -87.65,87.64l-271 0c-48.21,0 -87.65,-39.44 -87.65,-87.64l0 -474.69c0,-48.2 39.44,-87.64 87.65,-87.64z"/>
  <path class="fil1" d="M223.13 325.28c-47.36,64.34 -67.6,71.65 -101.4,101.72 -33.34,31.53 -35.49,63.96 -1.59,97.4 31.88,25.52 68.67,16.92 89.24,-4.32 2.14,-2.35 6.7,1.54 5.41,6.16 -8.03,28.54 -16.32,47.48 -28.23,57.51 9.8,-6.59 21.11,-6.65 36.57,-6.45 15.45,-0.2 26.76,-0.14 36.57,6.45 -11.91,-10.03 -20.2,-28.97 -28.23,-57.51 -1.3,-4.62 3.26,-8.51 5.41,-6.16 20.58,21.24 57.36,29.84 89.24,4.32 33.9,-33.44 31.75,-65.87 -1.59,-97.4 -33.8,-30.06 -54.03,-37.38 -101.4,-101.72z"/>
  <path class="fil2" d="M276.15 89.49l0 23.78c-14.98,0.58 -26.95,2.02 -35.95,4.38 -9,2.31 -16.47,5.53 -22.42,9.53 -5.94,4.05 -10.8,8.84 -14.54,14.37 -3.74,5.53 -6.31,11.85 -7.71,18.99 6.91,-4.96 13.46,-8.42 19.6,-10.49 6.19,-2.06 12.86,-3.09 20.09,-3.09 11.45,0 21.69,2.39 30.73,7.22 9.04,4.83 15.9,11.35 20.68,19.57 4.74,8.22 7.11,17.67 7.11,28.49 0,17.92 -6.19,32.7 -18.56,44.26 -12.37,11.6 -29.09,17.38 -50.13,17.38 -21.73,0 -38.72,-5.94 -50.98,-17.87 -14.38,-13.87 -21.57,-32.99 -21.57,-57.43 0,-16.51 2.41,-30.55 7.23,-42.11 4.82,-11.56 12.45,-21.8 22.81,-30.67 10.33,-8.92 22.49,-15.48 36.44,-19.69 13.94,-4.25 32.98,-6.44 57.16,-6.61zm-51.66 84.96c-5.71,0 -10.8,1.32 -15.19,3.92 -4.38,2.6 -7.83,6.36 -10.24,11.23 -2.45,4.87 -3.66,10.44 -3.66,16.72 0,9.21 2.69,16.68 8.07,22.54 5.38,5.82 12.13,8.75 20.33,8.75 8.4,0 15.3,-2.93 20.77,-8.75 5.46,-5.86 8.19,-13.46 8.19,-22.91 0,-9.5 -2.65,-17.09 -7.95,-22.87 -5.3,-5.74 -12.05,-8.63 -20.33,-8.63z"/>
 </g>
</svg>
