<?xml version="1.0" encoding="UTF-8"?>
<!DOCTYPE svg PUBLIC "-//W3C//DTD SVG 1.1//EN" "http://www.w3.org/Graphics/SVG/1.1/DTD/svg11.dtd">
<!-- Creator: CorelDRAW -->
<svg xmlns="http://www.w3.org/2000/svg" xml:space="preserve" width="14.5523mm" height="21.194mm" version="1.1" style="shape-rendering:geometricPrecision; text-rendering:geometricPrecision; image-rendering:optimizeQuality; fill-rule:evenodd; clip-rule:evenodd"
viewBox="0 0 24.97 36.36"
 xmlns:xlink="http://www.w3.org/1999/xlink"
 xmlns:xodm="http://www.corel.com/coreldraw/odm/2003">
 <defs>
  <style type="text/css">
   <![CDATA[
    .fil0 {fill:#025936}
    .fil2 {fill:white}
    .fil1 {fill:white;fill-rule:nonzero}
   ]]>
  </style>
 </defs>
 <g id="Camada_x0020_1">
  <metadata id="CorelCorpID_0Corel-Layer"/>
  <path class="fil0" d="M4.9 0l15.16 0c2.7,0 4.9,2.21 4.9,4.9l0 26.55c0,2.7 -2.21,4.9 -4.9,4.9l-15.16 0c-2.7,0 -4.9,-2.21 -4.9,-4.9l0 -26.55c0,-2.7 2.21,-4.9 4.9,-4.9z"/>
  <path class="fil1" d="M9.39 5.02l0.87 0 0.09 0.29 6.14 0 0 1.3c-0.58,0.58 -1.06,1.13 -1.41,1.64 -0.36,0.52 -0.69,1.12 -1,1.8 -0.31,0.69 -0.53,1.33 -0.68,1.93 -0.15,0.6 -0.28,1.52 -0.4,2.75l-2.36 0c0.11,-1.12 0.28,-2.05 0.53,-2.79 0.25,-0.74 0.65,-1.55 1.2,-2.41 0.55,-0.87 1.13,-1.6 1.75,-2.21l-2.99 0c-0.38,0 -0.63,0.02 -0.75,0.07 -0.12,0.05 -0.21,0.12 -0.28,0.22 -0.07,0.1 -0.15,0.32 -0.24,0.67l-0.14 0.55 -1.25 -0.3 0.92 -3.52z"/>
  <path class="fil2" d="M12.48 18.56c1.85,0 3.35,1.5 3.35,3.35 0,0.94 -0.39,1.8 -1.02,2.41 0.46,-0.24 0.98,-0.37 1.54,-0.37 1.85,0 3.35,1.5 3.35,3.35 0,1.85 -1.5,3.36 -3.35,3.36 -1.6,0 -2.94,-1.12 -3.28,-2.63 -0.11,1.97 0.71,3.15 1.61,4.26 -0.54,-0.3 -1.28,-0.42 -2.21,-0.4 -0.92,-0.02 -1.67,0.11 -2.21,0.4 0.9,-1.11 1.71,-2.3 1.61,-4.27l0 -0c-0.33,1.5 -1.67,2.63 -3.28,2.63 -1.85,0 -3.36,-1.5 -3.36,-3.36 0,-1.85 1.5,-3.35 3.36,-3.35 0.55,0 1.08,0.13 1.54,0.37 -0.63,-0.61 -1.02,-1.46 -1.02,-2.41 0,-1.85 1.5,-3.35 3.36,-3.35z"/>
 </g>
</svg>
