<?xml version="1.0" encoding="UTF-8"?>
<!DOCTYPE svg PUBLIC "-//W3C//DTD SVG 1.1//EN" "http://www.w3.org/Graphics/SVG/1.1/DTD/svg11.dtd">
<!-- Creator: CorelDRAW -->
<svg xmlns="http://www.w3.org/2000/svg" xml:space="preserve" width="14.5523mm" height="21.194mm" version="1.1" style="shape-rendering:geometricPrecision; text-rendering:geometricPrecision; image-rendering:optimizeQuality; fill-rule:evenodd; clip-rule:evenodd"
viewBox="0 0 46.28 67.41"
 xmlns:xlink="http://www.w3.org/1999/xlink"
 xmlns:xodm="http://www.corel.com/coreldraw/odm/2003">
 <defs>
  <style type="text/css">
   <![CDATA[
    .fil0 {fill:#003399}
    .fil2 {fill:white}
    .fil1 {fill:white;fill-rule:nonzero}
   ]]>
  </style>
 </defs>
 <g id="Camada_x0020_1">
  <metadata id="CorelCorpID_0Corel-Layer"/>
  <path class="fil0" d="M9.09 0l28.1 0c5,0 9.09,4.09 9.09,9.09l0 49.23c0,5 -4.09,9.09 -9.09,9.09l-28.1 0c-5,0 -9.09,-4.09 -9.09,-9.09l0 -49.23c0,-5 4.09,-9.09 9.09,-9.09z"/>
  <path class="fil1" d="M17.41 9.31l1.61 0 0.17 0.54 11.38 0 0 2.42c-1.08,1.08 -1.96,2.09 -2.62,3.05 -0.66,0.95 -1.28,2.07 -1.85,3.34 -0.57,1.27 -0.99,2.47 -1.26,3.58 -0.28,1.12 -0.52,2.82 -0.75,5.1l-4.37 0c0.2,-2.07 0.52,-3.79 0.99,-5.17 0.46,-1.38 1.21,-2.87 2.23,-4.47 1.03,-1.61 2.1,-2.97 3.24,-4.1l-5.55 0c-0.71,0 -1.17,0.04 -1.39,0.12 -0.22,0.09 -0.4,0.22 -0.52,0.4 -0.13,0.18 -0.28,0.6 -0.44,1.25l-0.26 1.01 -2.32 -0.56 1.71 -6.52z"/>
  <path class="fil2" d="M23.14 60.54c3.83,-5.98 7.08,-10.28 9.96,-13.49 -3.68,-3.47 -6.96,-8.01 -9.96,-13.32 -3,5.3 -6.28,9.84 -9.96,13.32 2.88,3.21 6.14,7.51 9.96,13.49z"/>
 </g>
</svg>
