<?xml version="1.0" encoding="UTF-8"?>
<!DOCTYPE svg PUBLIC "-//W3C//DTD SVG 1.1//EN" "http://www.w3.org/Graphics/SVG/1.1/DTD/svg11.dtd">
<!-- Creator: CorelDRAW -->
<svg xmlns="http://www.w3.org/2000/svg" xml:space="preserve" width="14.5523mm" height="21.194mm" version="1.1" style="shape-rendering:geometricPrecision; text-rendering:geometricPrecision; image-rendering:optimizeQuality; fill-rule:evenodd; clip-rule:evenodd"
viewBox="0 0 50.73 73.89"
 xmlns:xlink="http://www.w3.org/1999/xlink"
 xmlns:xodm="http://www.corel.com/coreldraw/odm/2003">
 <defs>
  <style type="text/css">
   <![CDATA[
    .fil0 {fill:#DF0000}
    .fil2 {fill:white}
    .fil1 {fill:white;fill-rule:nonzero}
   ]]>
  </style>
 </defs>
 <g id="Camada_x0020_1">
  <metadata id="CorelCorpID_0Corel-Layer"/>
  <path class="fil0" d="M9.96 0l30.81 0c5.48,0 9.96,4.48 9.96,9.96l0 53.96c0,5.48 -4.48,9.96 -9.96,9.96l-30.81 0c-5.48,0 -9.96,-4.48 -9.96,-9.96l0 -53.96c0,-5.48 4.48,-9.96 9.96,-9.96z"/>
  <path class="fil1" d="M19.09 10.2l1.77 0 0.19 0.59 12.48 0 0 2.65c-1.19,1.18 -2.15,2.3 -2.87,3.34 -0.73,1.05 -1.4,2.27 -2.02,3.67 -0.62,1.39 -1.08,2.71 -1.38,3.93 -0.31,1.22 -0.58,3.09 -0.82,5.59l-4.79 0c0.21,-2.27 0.58,-4.16 1.08,-5.66 0.51,-1.51 1.32,-3.14 2.45,-4.9 1.12,-1.76 2.31,-3.26 3.55,-4.5l-6.08 0c-0.78,0 -1.28,0.05 -1.53,0.14 -0.24,0.09 -0.43,0.24 -0.58,0.44 -0.14,0.2 -0.3,0.66 -0.48,1.37l-0.28 1.11 -2.55 -0.61 1.87 -7.14z"/>
  <path class="fil2" d="M25.36 41.27c-2.6,-4.29 -7.21,-5.21 -11.31,-3.46 -4.99,2.23 -6.73,10.75 -2.4,15.53 2.97,3.93 10.88,8.88 13.71,13.01 2.83,-4.13 10.74,-9.09 13.71,-13.01 4.33,-4.79 2.59,-13.3 -2.4,-15.53 -4.11,-1.76 -8.71,-0.83 -11.31,3.46z"/>
 </g>
</svg>
