<?xml version="1.0" encoding="UTF-8"?>
<!DOCTYPE svg PUBLIC "-//W3C//DTD SVG 1.1//EN" "http://www.w3.org/Graphics/SVG/1.1/DTD/svg11.dtd">
<!-- Creator: CorelDRAW -->
<svg xmlns="http://www.w3.org/2000/svg" xml:space="preserve" width="14.5523mm" height="21.194mm" version="1.1" style="shape-rendering:geometricPrecision; text-rendering:geometricPrecision; image-rendering:optimizeQuality; fill-rule:evenodd; clip-rule:evenodd"
viewBox="0 0 1441.22 2098.99"
 xmlns:xlink="http://www.w3.org/1999/xlink"
 xmlns:xodm="http://www.corel.com/coreldraw/odm/2003">
 <defs>
  <style type="text/css">
   <![CDATA[
    .fil0 {fill:#333333}
    .fil1 {fill:white}
    .fil2 {fill:white;fill-rule:nonzero}
   ]]>
  </style>
 </defs>
 <g id="Camada_x0020_1">
  <metadata id="CorelCorpID_0Corel-Layer"/>
  <path class="fil0" d="M283.04 0l875.14 0c155.68,0 283.04,127.36 283.04,283.03l0 1532.93c0,155.67 -127.36,283.03 -283.04,283.03l-875.14 0c-155.68,0 -283.04,-127.36 -283.04,-283.03l0 -1532.93c0,-155.67 127.36,-283.03 283.04,-283.03z"/>
  <path class="fil1" d="M720.54 1050.45c-152.96,207.77 -218.31,231.39 -327.46,328.48 -107.66,101.83 -114.6,206.55 -5.12,314.55 102.95,82.41 221.74,54.65 288.2,-13.94 6.92,-7.6 21.64,4.97 17.46,19.89 -25.93,92.17 -52.71,153.34 -91.16,185.73 31.66,-21.28 68.18,-21.48 118.08,-20.83 49.9,-0.65 86.43,-0.46 118.09,20.83 -38.47,-32.4 -65.25,-93.56 -91.16,-185.73 -4.19,-14.91 10.54,-27.48 17.46,-19.89 66.44,68.59 185.24,96.35 288.19,13.94 109.48,-108 102.54,-212.72 -5.12,-314.55 -109.15,-97.09 -174.49,-120.71 -327.46,-328.48z"/>
  <path class="fil2" d="M542.18 289.8l50.21 0 5.32 16.8 354.39 0 0 75.33c-33.72,33.59 -60.97,65.2 -81.6,94.93 -20.62,29.73 -39.81,64.39 -57.46,104.12 -17.64,39.6 -30.75,76.93 -39.31,111.59 -8.69,34.79 -16.34,87.73 -23.22,158.79l-136.21 0c6.1,-64.39 16.34,-118.12 30.75,-160.92 14.4,-42.93 37.62,-89.33 69.52,-139.33 31.92,-49.99 65.51,-92.53 100.93,-127.72l-172.79 0c-22.06,0 -36.45,1.33 -43.33,3.86 -6.87,2.66 -12.32,6.79 -16.34,12.53 -4.02,5.73 -8.57,18.67 -13.63,38.8l-8.03 31.59 -72.4 -17.46 53.18 -202.92z"/>
 </g>
</svg>
