<?xml version="1.0" encoding="UTF-8"?>
<!DOCTYPE svg PUBLIC "-//W3C//DTD SVG 1.1//EN" "http://www.w3.org/Graphics/SVG/1.1/DTD/svg11.dtd">
<!-- Creator: CorelDRAW -->
<svg xmlns="http://www.w3.org/2000/svg" xml:space="preserve" width="14.5523mm" height="21.194mm" version="1.1" style="shape-rendering:geometricPrecision; text-rendering:geometricPrecision; image-rendering:optimizeQuality; fill-rule:evenodd; clip-rule:evenodd"
viewBox="0 0 49.85 72.61"
 xmlns:xlink="http://www.w3.org/1999/xlink"
 xmlns:xodm="http://www.corel.com/coreldraw/odm/2003">
 <defs>
  <style type="text/css">
   <![CDATA[
    .fil0 {fill:#003399}
    .fil2 {fill:white}
    .fil1 {fill:white;fill-rule:nonzero}
   ]]>
  </style>
 </defs>
 <g id="Camada_x0020_1">
  <metadata id="CorelCorpID_0Corel-Layer"/>
  <path class="fil0" d="M9.79 0l30.27 0c5.39,0 9.79,4.41 9.79,9.79l0 53.03c0,5.38 -4.41,9.79 -9.79,9.79l-30.27 0c-5.39,0 -9.79,-4.41 -9.79,-9.79l0 -53.03c0,-5.38 4.41,-9.79 9.79,-9.79z"/>
  <path class="fil1" d="M28.51 18.69c1.35,0.55 2.4,1.3 3.13,2.24 0.58,0.73 0.87,1.63 0.87,2.71 0,1.65 -0.63,3 -1.9,4.07 -1.41,1.18 -3.31,1.77 -5.69,1.77 -1.59,0 -2.97,-0.25 -4.12,-0.74 -1.16,-0.49 -2.02,-1.13 -2.59,-1.91 -0.57,-0.78 -0.86,-1.58 -0.86,-2.41 0,-0.86 0.31,-1.69 0.93,-2.47 0.62,-0.78 1.59,-1.45 2.91,-2 -1.1,-0.51 -1.92,-1.17 -2.48,-1.98 -0.55,-0.81 -0.83,-1.7 -0.83,-2.67 0,-0.96 0.26,-1.84 0.79,-2.61 0.52,-0.78 1.33,-1.43 2.43,-1.93 1.1,-0.5 2.37,-0.75 3.8,-0.75 1.81,0 3.36,0.4 4.65,1.21 1.29,0.81 1.93,1.9 1.93,3.29 0,0.81 -0.22,1.55 -0.65,2.22 -0.44,0.67 -1.21,1.33 -2.32,1.98zm-2.51 -1.15l0.49 -0.56c0.31,-0.34 0.52,-0.61 0.63,-0.8 0.16,-0.26 0.27,-0.5 0.34,-0.72 0.07,-0.22 0.1,-0.45 0.1,-0.67 0,-0.48 -0.25,-0.92 -0.75,-1.29 -0.5,-0.37 -1.19,-0.56 -2.08,-0.56 -0.85,0 -1.52,0.18 -1.99,0.52 -0.47,0.35 -0.7,0.75 -0.7,1.21 0,0.41 0.14,0.75 0.42,1.04 0.38,0.39 1.07,0.79 2.07,1.22l1.47 0.61zm-2.23 3.67c-0.85,0.45 -1.48,0.94 -1.88,1.45 -0.4,0.52 -0.61,1.02 -0.61,1.5 0,0.38 0.14,0.76 0.41,1.13 0.27,0.38 0.69,0.68 1.25,0.91 0.56,0.23 1.22,0.35 1.97,0.35 0.74,0 1.4,-0.11 1.97,-0.32 0.57,-0.21 0.97,-0.48 1.21,-0.78 0.24,-0.31 0.36,-0.65 0.36,-1.01 0,-0.45 -0.15,-0.83 -0.45,-1.13 -0.43,-0.43 -1.18,-0.87 -2.24,-1.3l-1.98 -0.8z"/>
  <path class="fil2" d="M24.92 65.21c4.12,-6.44 7.62,-11.08 10.73,-14.53 -3.96,-3.74 -7.5,-8.63 -10.73,-14.34 -3.23,5.71 -6.77,10.6 -10.73,14.34 3.1,3.46 6.61,8.09 10.73,14.53z"/>
 </g>
</svg>
