<?xml version="1.0" encoding="UTF-8"?>
<!DOCTYPE svg PUBLIC "-//W3C//DTD SVG 1.1//EN" "http://www.w3.org/Graphics/SVG/1.1/DTD/svg11.dtd">
<!-- Creator: CorelDRAW -->
<svg xmlns="http://www.w3.org/2000/svg" xml:space="preserve" width="14.5523mm" height="21.194mm" version="1.1" style="shape-rendering:geometricPrecision; text-rendering:geometricPrecision; image-rendering:optimizeQuality; fill-rule:evenodd; clip-rule:evenodd"
viewBox="0 0 47.04 68.51"
 xmlns:xlink="http://www.w3.org/1999/xlink"
 xmlns:xodm="http://www.corel.com/coreldraw/odm/2003">
 <defs>
  <style type="text/css">
   <![CDATA[
    .fil0 {fill:#DF0000}
    .fil2 {fill:white}
    .fil1 {fill:white;fill-rule:nonzero}
   ]]>
  </style>
 </defs>
 <g id="Camada_x0020_1">
  <metadata id="CorelCorpID_0Corel-Layer"/>
  <path class="fil0" d="M9.24 0l28.56 0c5.08,0 9.24,4.16 9.24,9.24l0 50.04c0,5.08 -4.16,9.24 -9.24,9.24l-28.56 0c-5.08,0 -9.24,-4.16 -9.24,-9.24l0 -50.04c0,-5.08 4.16,-9.24 9.24,-9.24z"/>
  <path class="fil1" d="M26.9 17.64c1.28,0.52 2.26,1.22 2.96,2.12 0.55,0.69 0.82,1.54 0.82,2.56 0,1.56 -0.6,2.83 -1.79,3.84 -1.33,1.11 -3.12,1.67 -5.36,1.67 -1.5,0 -2.8,-0.23 -3.89,-0.7 -1.09,-0.47 -1.91,-1.07 -2.45,-1.8 -0.54,-0.74 -0.81,-1.49 -0.81,-2.28 0,-0.81 0.29,-1.59 0.88,-2.33 0.59,-0.74 1.5,-1.37 2.75,-1.89 -1.04,-0.48 -1.82,-1.11 -2.34,-1.87 -0.52,-0.77 -0.78,-1.61 -0.78,-2.52 0,-0.91 0.25,-1.73 0.74,-2.47 0.49,-0.74 1.26,-1.34 2.29,-1.82 1.04,-0.47 2.24,-0.71 3.58,-0.71 1.71,0 3.17,0.38 4.39,1.14 1.22,0.76 1.83,1.79 1.83,3.1 0,0.76 -0.2,1.46 -0.61,2.09 -0.41,0.64 -1.14,1.26 -2.19,1.87zm-2.37 -1.09l0.46 -0.53c0.3,-0.32 0.5,-0.57 0.6,-0.75 0.15,-0.25 0.25,-0.47 0.32,-0.68 0.06,-0.21 0.09,-0.42 0.09,-0.64 0,-0.46 -0.23,-0.87 -0.7,-1.22 -0.47,-0.35 -1.13,-0.53 -1.96,-0.53 -0.8,0 -1.43,0.17 -1.88,0.49 -0.44,0.33 -0.66,0.71 -0.66,1.14 0,0.38 0.13,0.71 0.4,0.98 0.36,0.37 1.01,0.75 1.96,1.15l1.38 0.57zm-2.1 3.46c-0.8,0.43 -1.39,0.88 -1.77,1.37 -0.38,0.49 -0.57,0.96 -0.57,1.41 0,0.36 0.13,0.71 0.39,1.07 0.26,0.36 0.65,0.64 1.18,0.86 0.53,0.22 1.15,0.33 1.85,0.33 0.7,0 1.32,-0.1 1.86,-0.3 0.53,-0.2 0.91,-0.45 1.14,-0.74 0.22,-0.3 0.34,-0.61 0.34,-0.95 0,-0.43 -0.14,-0.78 -0.43,-1.06 -0.41,-0.41 -1.11,-0.82 -2.12,-1.23l-1.87 -0.75z"/>
  <path class="fil2" d="M23.52 38.27c-2.41,-3.97 -6.68,-4.83 -10.49,-3.21 -4.63,2.07 -6.24,9.96 -2.22,14.4 2.76,3.64 10.08,8.23 12.71,12.07 2.63,-3.83 9.95,-8.43 12.71,-12.07 4.02,-4.44 2.4,-12.33 -2.22,-14.4 -3.81,-1.63 -8.07,-0.77 -10.49,3.21z"/>
 </g>
</svg>
