<?xml version="1.0" encoding="UTF-8"?>
<!DOCTYPE svg PUBLIC "-//W3C//DTD SVG 1.1//EN" "http://www.w3.org/Graphics/SVG/1.1/DTD/svg11.dtd">
<!-- Creator: CorelDRAW -->
<svg xmlns="http://www.w3.org/2000/svg" xml:space="preserve" width="14.5523mm" height="21.194mm" version="1.1" style="shape-rendering:geometricPrecision; text-rendering:geometricPrecision; image-rendering:optimizeQuality; fill-rule:evenodd; clip-rule:evenodd"
viewBox="0 0 1172.34 1707.4"
 xmlns:xlink="http://www.w3.org/1999/xlink"
 xmlns:xodm="http://www.corel.com/coreldraw/odm/2003">
 <defs>
  <style type="text/css">
   <![CDATA[
    .fil0 {fill:#333333}
    .fil1 {fill:white}
    .fil2 {fill:white;fill-rule:nonzero}
   ]]>
  </style>
 </defs>
 <g id="Camada_x0020_1">
  <metadata id="CorelCorpID_0Corel-Layer"/>
  <path class="fil0" d="M230.23 0l711.87 0c126.63,0 230.23,103.6 230.23,230.23l0 1246.95c0,126.63 -103.6,230.23 -230.23,230.23l-711.87 0c-126.63,0 -230.23,-103.6 -230.23,-230.23l0 -1246.95c0,-126.63 103.6,-230.23 230.23,-230.23z"/>
  <path class="fil1" d="M586.11 854.47c-124.43,169.01 -177.58,188.22 -266.37,267.2 -87.58,82.83 -93.22,168.02 -4.16,255.87 83.74,67.03 180.38,44.45 234.42,-11.34 5.64,-6.18 17.61,4.04 14.21,16.18 -21.09,74.98 -42.87,124.73 -74.16,151.08 25.76,-17.31 55.46,-17.47 96.05,-16.94 40.59,-0.53 70.31,-0.37 96.06,16.94 -31.29,-26.35 -53.07,-76.11 -74.16,-151.08 -3.41,-12.13 8.57,-22.36 14.2,-16.18 54.05,55.8 150.68,78.38 234.42,11.34 89.05,-87.85 83.41,-173.04 -4.16,-255.87 -88.79,-78.97 -141.94,-98.19 -266.37,-267.2z"/>
  <path class="fil2" d="M670.34 439.51c31.86,12.91 56.34,30.48 73.65,52.71 13.61,17.14 20.37,38.39 20.37,63.76 0,38.83 -14.88,70.6 -44.64,95.66 -33.23,27.65 -77.77,41.53 -133.69,41.53 -37.46,0 -69.75,-5.85 -96.98,-17.46 -27.22,-11.6 -47.59,-26.57 -60.98,-44.9 -13.4,-18.33 -20.16,-37.19 -20.16,-56.72 0,-20.28 7.28,-39.69 21.85,-58.02 14.66,-18.43 37.45,-34.16 68.48,-47.06 -25.85,-12.04 -45.27,-27.54 -58.25,-46.64 -12.98,-19.08 -19.42,-40.01 -19.42,-62.9 0,-22.56 6.12,-43.16 18.47,-61.48 12.23,-18.44 31.34,-33.51 57.19,-45.33 25.95,-11.71 55.72,-17.57 89.27,-17.57 42.52,0 78.93,9.43 109.31,28.41 30.29,18.98 45.48,44.68 45.48,77.32 0,18.98 -5.07,36.44 -15.31,52.16 -10.23,15.84 -28.49,31.35 -54.65,46.52zm-59.1 -27.11l11.51 -13.12c7.38,-8.02 12.34,-14.32 14.87,-18.76 3.7,-6.18 6.33,-11.82 7.91,-17.02 1.59,-5.21 2.33,-10.52 2.33,-15.84 0,-11.38 -5.81,-21.58 -17.52,-30.36 -11.71,-8.79 -28.07,-13.24 -48.96,-13.24 -20.05,0 -35.67,4.12 -46.75,12.26 -11.09,8.24 -16.57,17.67 -16.57,28.52 0,9.55 3.28,17.67 9.93,24.51 8.97,9.11 25.22,18.66 48.75,28.74l34.5 14.32zm-52.44 86.32c-20.05,10.63 -34.71,22.02 -44.22,34.17 -9.49,12.25 -14.24,23.97 -14.24,35.25 0,8.89 3.27,17.79 9.71,26.57 6.44,8.89 16.25,15.94 29.34,21.36 13.18,5.42 28.59,8.14 46.22,8.14 17.51,0 32.92,-2.5 46.32,-7.48 13.29,-4.99 22.79,-11.17 28.38,-18.44 5.6,-7.37 8.44,-15.29 8.44,-23.75 0,-10.63 -3.59,-19.41 -10.66,-26.46 -10.13,-10.2 -27.75,-20.39 -52.76,-30.59l-46.53 -18.76z"/>
 </g>
</svg>
