<?xml version="1.0" encoding="UTF-8"?>
<!DOCTYPE svg PUBLIC "-//W3C//DTD SVG 1.1//EN" "http://www.w3.org/Graphics/SVG/1.1/DTD/svg11.dtd">
<!-- Creator: CorelDRAW -->
<svg xmlns="http://www.w3.org/2000/svg" xml:space="preserve" width="14.5523mm" height="21.194mm" version="1.1" style="shape-rendering:geometricPrecision; text-rendering:geometricPrecision; image-rendering:optimizeQuality; fill-rule:evenodd; clip-rule:evenodd"
viewBox="0 0 23.18 33.75"
 xmlns:xlink="http://www.w3.org/1999/xlink"
 xmlns:xodm="http://www.corel.com/coreldraw/odm/2003">
 <defs>
  <style type="text/css">
   <![CDATA[
    .fil0 {fill:#025936}
    .fil2 {fill:white}
    .fil1 {fill:white;fill-rule:nonzero}
   ]]>
  </style>
 </defs>
 <g id="Camada_x0020_1">
  <metadata id="CorelCorpID_0Corel-Layer"/>
  <path class="fil0" d="M4.55 0l14.07 0c2.5,0 4.55,2.05 4.55,4.55l0 24.65c0,2.5 -2.05,4.55 -4.55,4.55l-14.07 0c-2.5,0 -4.55,-2.05 -4.55,-4.55l0 -24.65c0,-2.5 2.05,-4.55 4.55,-4.55z"/>
  <path class="fil1" d="M8.83 13.7l0 -1.23c0.78,-0.03 1.41,-0.11 1.87,-0.23 0.46,-0.12 0.85,-0.28 1.16,-0.49 0.31,-0.21 0.56,-0.46 0.76,-0.74 0.19,-0.29 0.33,-0.62 0.4,-0.99 -0.36,0.26 -0.7,0.44 -1.02,0.55 -0.32,0.11 -0.67,0.16 -1.04,0.16 -0.6,0 -1.13,-0.13 -1.6,-0.38 -0.47,-0.25 -0.83,-0.59 -1.07,-1.01 -0.24,-0.42 -0.37,-0.92 -0.37,-1.48 0,-0.93 0.32,-1.7 0.96,-2.3 0.64,-0.6 1.51,-0.9 2.61,-0.9 1.13,0 2.01,0.31 2.65,0.93 0.75,0.72 1.12,1.72 1.12,2.99 0,0.85 -0.13,1.58 -0.38,2.18 -0.25,0.6 -0.65,1.14 -1.18,1.6 -0.54,0.46 -1.17,0.8 -1.89,1.02 -0.72,0.22 -1.71,0.33 -2.97,0.34zm2.68 -4.41c0.3,0 0.56,-0.07 0.79,-0.2 0.23,-0.13 0.41,-0.33 0.53,-0.58 0.13,-0.26 0.19,-0.55 0.19,-0.87 0,-0.48 -0.14,-0.87 -0.42,-1.17 -0.28,-0.3 -0.63,-0.45 -1.06,-0.45 -0.43,0 -0.79,0.15 -1.08,0.45 -0.28,0.3 -0.43,0.7 -0.43,1.19 0,0.5 0.14,0.89 0.41,1.19 0.28,0.3 0.63,0.45 1.05,0.45z"/>
  <path class="fil2" d="M11.59 17.23c1.72,0 3.11,1.39 3.11,3.11 0,0.88 -0.36,1.67 -0.95,2.23 0.43,-0.22 0.91,-0.35 1.43,-0.35 1.72,0 3.11,1.39 3.11,3.11 0,1.72 -1.39,3.11 -3.11,3.11 -1.49,0 -2.73,-1.04 -3.04,-2.44 -0.1,1.83 0.66,2.93 1.49,3.96 -0.5,-0.27 -1.19,-0.39 -2.05,-0.38 -0.86,-0.01 -1.55,0.1 -2.05,0.38 0.84,-1.03 1.59,-2.13 1.49,-3.96l0 -0c-0.31,1.4 -1.55,2.44 -3.04,2.44 -1.72,0 -3.11,-1.39 -3.11,-3.11 0,-1.72 1.39,-3.11 3.11,-3.11 0.51,0 1,0.13 1.43,0.35 -0.58,-0.57 -0.95,-1.36 -0.95,-2.24 0,-1.72 1.39,-3.11 3.11,-3.11z"/>
 </g>
</svg>
