<?xml version="1.0" encoding="UTF-8"?>
<!DOCTYPE svg PUBLIC "-//W3C//DTD SVG 1.1//EN" "http://www.w3.org/Graphics/SVG/1.1/DTD/svg11.dtd">
<!-- Creator: CorelDRAW -->
<svg xmlns="http://www.w3.org/2000/svg" xml:space="preserve" width="14.5523mm" height="21.194mm" version="1.1" style="shape-rendering:geometricPrecision; text-rendering:geometricPrecision; image-rendering:optimizeQuality; fill-rule:evenodd; clip-rule:evenodd"
viewBox="0 0 54.02 78.67"
 xmlns:xlink="http://www.w3.org/1999/xlink"
 xmlns:xodm="http://www.corel.com/coreldraw/odm/2003">
 <defs>
  <style type="text/css">
   <![CDATA[
    .fil0 {fill:#003399}
    .fil2 {fill:white}
    .fil1 {fill:white;fill-rule:nonzero}
   ]]>
  </style>
 </defs>
 <g id="Camada_x0020_1">
  <metadata id="CorelCorpID_0Corel-Layer"/>
  <path class="fil0" d="M10.61 0l32.8 0c5.84,0 10.61,4.77 10.61,10.61l0 57.46c0,5.83 -4.77,10.61 -10.61,10.61l-32.8 0c-5.84,0 -10.61,-4.77 -10.61,-10.61l0 -57.46c0,-5.83 4.77,-10.61 10.61,-10.61z"/>
  <path class="fil1" d="M20.59 31.94l0 -2.88c1.82,-0.08 3.28,-0.26 4.36,-0.53 1.08,-0.28 1.98,-0.66 2.71,-1.15 0.72,-0.49 1.31,-1.07 1.76,-1.73 0.44,-0.67 0.76,-1.44 0.94,-2.31 -0.84,0.6 -1.63,1.03 -2.38,1.28 -0.75,0.24 -1.56,0.37 -2.43,0.37 -1.39,0 -2.64,-0.29 -3.73,-0.88 -1.1,-0.58 -1.93,-1.37 -2.5,-2.36 -0.57,-0.98 -0.86,-2.13 -0.86,-3.45 0,-2.17 0.74,-3.95 2.24,-5.36 1.49,-1.4 3.52,-2.1 6.08,-2.1 2.63,0 4.69,0.72 6.17,2.16 1.74,1.69 2.61,4.01 2.61,6.97 0,1.99 -0.3,3.68 -0.88,5.09 -0.59,1.4 -1.51,2.65 -2.75,3.72 -1.25,1.08 -2.72,1.87 -4.4,2.38 -1.69,0.51 -4,0.77 -6.93,0.78zm6.24 -10.28c0.7,0 1.31,-0.15 1.84,-0.47 0.53,-0.31 0.95,-0.76 1.24,-1.36 0.3,-0.6 0.44,-1.27 0.44,-2.04 0,-1.11 -0.33,-2.02 -0.98,-2.72 -0.65,-0.7 -1.47,-1.05 -2.47,-1.05 -1.01,0 -1.85,0.35 -2.51,1.05 -0.66,0.7 -0.99,1.62 -0.99,2.77 0,1.15 0.32,2.08 0.96,2.77 0.65,0.7 1.46,1.05 2.45,1.05z"/>
  <path class="fil2" d="M27.01 70.66c4.46,-6.98 8.26,-12 11.63,-15.75 -4.29,-4.05 -8.13,-9.35 -11.63,-15.54 -3.5,6.19 -7.33,11.49 -11.63,15.54 3.36,3.75 7.16,8.77 11.63,15.75z"/>
 </g>
</svg>
