<?xml version="1.0" encoding="UTF-8"?>
<!DOCTYPE svg PUBLIC "-//W3C//DTD SVG 1.1//EN" "http://www.w3.org/Graphics/SVG/1.1/DTD/svg11.dtd">
<!-- Creator: CorelDRAW -->
<svg xmlns="http://www.w3.org/2000/svg" xml:space="preserve" width="14.5523mm" height="21.194mm" version="1.1" style="shape-rendering:geometricPrecision; text-rendering:geometricPrecision; image-rendering:optimizeQuality; fill-rule:evenodd; clip-rule:evenodd"
viewBox="0 0 43.85 63.86"
 xmlns:xlink="http://www.w3.org/1999/xlink"
 xmlns:xodm="http://www.corel.com/coreldraw/odm/2003">
 <defs>
  <style type="text/css">
   <![CDATA[
    .fil0 {fill:#DF0000}
    .fil2 {fill:white}
    .fil1 {fill:white;fill-rule:nonzero}
   ]]>
  </style>
 </defs>
 <g id="Camada_x0020_1">
  <metadata id="CorelCorpID_0Corel-Layer"/>
  <path class="fil0" d="M8.61 0l26.63 0c4.74,0 8.61,3.88 8.61,8.61l0 46.64c0,4.74 -3.88,8.61 -8.61,8.61l-26.63 0c-4.74,0 -8.61,-3.88 -8.61,-8.61l0 -46.64c0,-4.74 3.88,-8.61 8.61,-8.61z"/>
  <path class="fil1" d="M16.71 25.93l0 -2.34c1.48,-0.06 2.66,-0.21 3.54,-0.43 0.88,-0.23 1.61,-0.54 2.2,-0.93 0.59,-0.4 1.07,-0.87 1.43,-1.41 0.36,-0.54 0.62,-1.17 0.76,-1.87 -0.68,0.49 -1.33,0.84 -1.93,1.04 -0.61,0.2 -1.27,0.3 -1.97,0.3 -1.13,0 -2.14,-0.24 -3.03,-0.72 -0.89,-0.47 -1.57,-1.12 -2.03,-1.92 -0.46,-0.8 -0.69,-1.73 -0.69,-2.8 0,-1.76 0.6,-3.21 1.82,-4.35 1.21,-1.14 2.86,-1.7 4.93,-1.7 2.14,0 3.81,0.58 5.01,1.76 1.41,1.37 2.12,3.25 2.12,5.65 0,1.61 -0.24,2.99 -0.72,4.13 -0.48,1.14 -1.22,2.15 -2.23,3.02 -1.01,0.88 -2.21,1.52 -3.57,1.93 -1.37,0.42 -3.24,0.63 -5.62,0.64zm5.07 -8.35c0.56,0 1.07,-0.13 1.5,-0.38 0.43,-0.25 0.77,-0.62 1.01,-1.1 0.24,-0.49 0.36,-1.03 0.36,-1.65 0,-0.9 -0.26,-1.64 -0.79,-2.21 -0.53,-0.57 -1.2,-0.86 -2,-0.86 -0.82,0 -1.5,0.28 -2.04,0.86 -0.54,0.57 -0.81,1.32 -0.81,2.25 0,0.94 0.26,1.69 0.78,2.25 0.53,0.57 1.19,0.85 1.99,0.85z"/>
  <path class="fil2" d="M21.92 35.67c-2.25,-3.7 -6.23,-4.51 -9.78,-2.99 -4.31,1.93 -5.82,9.29 -2.07,13.42 2.57,3.39 9.4,7.68 11.85,11.25 2.45,-3.57 9.28,-7.85 11.85,-11.25 3.75,-4.14 2.24,-11.49 -2.07,-13.42 -3.55,-1.52 -7.53,-0.72 -9.78,2.99z"/>
 </g>
</svg>
