<?xml version="1.0" encoding="UTF-8"?>
<!DOCTYPE svg PUBLIC "-//W3C//DTD SVG 1.1//EN" "http://www.w3.org/Graphics/SVG/1.1/DTD/svg11.dtd">
<!-- Creator: CorelDRAW -->
<svg xmlns="http://www.w3.org/2000/svg" xml:space="preserve" width="14.5523mm" height="21.194mm" version="1.1" style="shape-rendering:geometricPrecision; text-rendering:geometricPrecision; image-rendering:optimizeQuality; fill-rule:evenodd; clip-rule:evenodd"
viewBox="0 0 416.69 606.87"
 xmlns:xlink="http://www.w3.org/1999/xlink"
 xmlns:xodm="http://www.corel.com/coreldraw/odm/2003">
 <defs>
  <style type="text/css">
   <![CDATA[
    .fil0 {fill:#333333}
    .fil1 {fill:white}
    .fil2 {fill:white;fill-rule:nonzero}
   ]]>
  </style>
 </defs>
 <g id="Camada_x0020_1">
  <metadata id="CorelCorpID_0Corel-Layer"/>
  <path class="fil0" d="M81.83 0l253.03 0c45.01,0 81.83,36.82 81.83,81.83l0 443.21c0,45.01 -36.82,81.83 -81.83,81.83l-253.03 0c-45.01,0 -81.83,-36.82 -81.83,-81.83l0 -443.21c0,-45.01 36.82,-81.83 81.83,-81.83z"/>
  <path class="fil1" d="M208.32 303.71c-44.23,60.07 -63.12,66.9 -94.68,94.97 -31.13,29.44 -33.13,59.72 -1.48,90.95 29.77,23.83 64.11,15.8 83.32,-4.03 2,-2.2 6.26,1.44 5.05,5.75 -7.5,26.65 -15.24,44.33 -26.36,53.7 9.15,-6.15 19.71,-6.21 34.14,-6.02 14.43,-0.19 24.99,-0.13 34.14,6.02 -11.12,-9.37 -18.86,-27.05 -26.36,-53.7 -1.21,-4.31 3.05,-7.95 5.05,-5.75 19.21,19.83 53.56,27.86 83.32,4.03 31.65,-31.23 29.65,-61.5 -1.48,-90.95 -31.56,-28.07 -50.45,-34.9 -94.68,-94.97z"/>
  <path class="fil2" d="M158.82 246.38l0 -22.2c14.07,-0.62 25.28,-1.96 33.64,-4.12 8.33,-2.16 15.3,-5.09 20.93,-8.87 5.59,-3.78 10.13,-8.25 13.58,-13.38 3.41,-5.17 5.85,-11.1 7.24,-17.81 -6.45,4.66 -12.6,7.94 -18.38,9.87 -5.82,1.89 -12.04,2.85 -18.72,2.85 -10.73,0 -20.33,-2.28 -28.8,-6.82 -8.48,-4.51 -14.89,-10.6 -19.31,-18.23 -4.39,-7.59 -6.6,-16.46 -6.6,-26.6 0,-16.73 5.74,-30.49 17.25,-41.32 11.52,-10.8 27.15,-16.19 46.88,-16.19 20.29,0 36.16,5.55 47.6,16.69 13.43,13.03 20.14,30.91 20.14,53.73 0,15.34 -2.29,28.41 -6.82,39.24 -4.54,10.83 -11.63,20.43 -21.23,28.72 -9.64,8.32 -20.96,14.45 -33.94,18.39 -13.01,3.97 -30.83,5.98 -53.45,6.05zm48.16 -79.33c5.36,0 10.13,-1.19 14.21,-3.62 4.13,-2.39 7.31,-5.9 9.6,-10.49 2.29,-4.62 3.41,-9.83 3.41,-15.73 0,-8.6 -2.51,-15.57 -7.54,-21.01 -5.03,-5.43 -11.36,-8.13 -19.02,-8.13 -7.8,0 -14.25,2.7 -19.35,8.13 -5.1,5.43 -7.65,12.53 -7.65,21.36 0,8.9 2.47,16.04 7.42,21.39 4.99,5.4 11.29,8.09 18.9,8.09z"/>
 </g>
</svg>
