<?xml version="1.0" encoding="UTF-8"?>
<!DOCTYPE svg PUBLIC "-//W3C//DTD SVG 1.1//EN" "http://www.w3.org/Graphics/SVG/1.1/DTD/svg11.dtd">
<!-- Creator: CorelDRAW -->
<svg xmlns="http://www.w3.org/2000/svg" xml:space="preserve" width="14.5523mm" height="21.194mm" version="1.1" style="shape-rendering:geometricPrecision; text-rendering:geometricPrecision; image-rendering:optimizeQuality; fill-rule:evenodd; clip-rule:evenodd"
viewBox="0 0 32.49 47.33"
 xmlns:xlink="http://www.w3.org/1999/xlink"
 xmlns:xodm="http://www.corel.com/coreldraw/odm/2003">
 <defs>
  <style type="text/css">
   <![CDATA[
    .fil0 {fill:#025936}
    .fil2 {fill:white}
    .fil1 {fill:white;fill-rule:nonzero}
   ]]>
  </style>
 </defs>
 <g id="Camada_x0020_1">
  <metadata id="CorelCorpID_0Corel-Layer"/>
  <path class="fil0" d="M6.38 0l19.73 0c3.51,0 6.38,2.87 6.38,6.38l0 34.56c0,3.51 -2.87,6.38 -6.38,6.38l-19.73 0c-3.51,0 -6.38,-2.87 -6.38,-6.38l0 -34.56c0,-3.51 2.87,-6.38 6.38,-6.38z"/>
  <path class="fil1" d="M14.91 6.72l2.7 0 3.59 9.49c0.2,0.5 0.37,0.81 0.52,0.93 0.15,0.12 0.43,0.17 0.83,0.17l0 1.7 -5.65 0 0 -1.7 0.34 -0.01c0.31,0 0.53,-0.04 0.66,-0.13 0.13,-0.08 0.19,-0.19 0.19,-0.31 0,-0.11 -0.05,-0.32 -0.16,-0.65l-0.37 -1.12 -3.62 0 -0.45 1.24c-0.09,0.26 -0.14,0.44 -0.14,0.52 0,0.09 0.03,0.18 0.1,0.26 0.06,0.08 0.17,0.13 0.32,0.17 0.1,0.02 0.37,0.04 0.81,0.04l0 1.7 -4.63 0 0 -1.7c0.3,0 0.51,-0.03 0.65,-0.08 0.13,-0.05 0.25,-0.13 0.34,-0.24 0.09,-0.11 0.19,-0.3 0.3,-0.59l3.68 -9.68zm-0.35 6.62l2.37 0 -1.16 -3.36 -1.21 3.36z"/>
  <path class="fil2" d="M16.25 24.15c2.41,0 4.37,1.95 4.37,4.37 0,1.23 -0.51,2.34 -1.33,3.13 0.6,-0.31 1.28,-0.49 2,-0.49 2.41,0 4.37,1.95 4.37,4.37 0,2.41 -1.95,4.37 -4.37,4.37 -2.09,0 -3.83,-1.46 -4.26,-3.42 -0.14,2.56 0.92,4.11 2.09,5.55 -0.7,-0.38 -1.67,-0.55 -2.87,-0.53 -1.2,-0.02 -2.18,0.14 -2.87,0.53 1.17,-1.45 2.23,-2.99 2.09,-5.55l0 -0c-0.43,1.96 -2.18,3.42 -4.26,3.42 -2.41,0 -4.37,-1.95 -4.37,-4.37 0,-2.41 1.95,-4.37 4.37,-4.37 0.72,0 1.4,0.18 2,0.49 -0.82,-0.79 -1.33,-1.9 -1.33,-3.13 0,-2.41 1.95,-4.37 4.37,-4.37z"/>
 </g>
</svg>
