<?xml version="1.0" encoding="UTF-8"?>
<!DOCTYPE svg PUBLIC "-//W3C//DTD SVG 1.1//EN" "http://www.w3.org/Graphics/SVG/1.1/DTD/svg11.dtd">
<!-- Creator: CorelDRAW -->
<svg xmlns="http://www.w3.org/2000/svg" xml:space="preserve" width="14.5523mm" height="21.194mm" version="1.1" style="shape-rendering:geometricPrecision; text-rendering:geometricPrecision; image-rendering:optimizeQuality; fill-rule:evenodd; clip-rule:evenodd"
viewBox="0 0 32.38 47.15"
 xmlns:xlink="http://www.w3.org/1999/xlink"
 xmlns:xodm="http://www.corel.com/coreldraw/odm/2003">
 <defs>
  <style type="text/css">
   <![CDATA[
    .fil0 {fill:#003399}
    .fil2 {fill:white}
    .fil1 {fill:white;fill-rule:nonzero}
   ]]>
  </style>
 </defs>
 <g id="Camada_x0020_1">
  <metadata id="CorelCorpID_0Corel-Layer"/>
  <path class="fil0" d="M6.36 0l19.66 0c3.5,0 6.36,2.86 6.36,6.36l0 34.44c0,3.5 -2.86,6.36 -6.36,6.36l-19.66 0c-3.5,0 -6.36,-2.86 -6.36,-6.36l0 -34.44c0,-3.5 2.86,-6.36 6.36,-6.36z"/>
  <path class="fil1" d="M14.85 6.7l2.69 0 3.58 9.45c0.2,0.5 0.37,0.81 0.52,0.92 0.15,0.12 0.43,0.17 0.83,0.17l0 1.69 -5.63 0 0 -1.69 0.34 -0.01c0.31,0 0.53,-0.04 0.66,-0.13 0.13,-0.08 0.19,-0.19 0.19,-0.31 0,-0.1 -0.05,-0.32 -0.16,-0.65l-0.36 -1.11 -3.61 0 -0.45 1.24c-0.09,0.26 -0.14,0.43 -0.14,0.52 0,0.09 0.03,0.18 0.1,0.25 0.06,0.07 0.17,0.13 0.32,0.16 0.1,0.02 0.37,0.04 0.81,0.04l0 1.69 -4.62 0 0 -1.69c0.3,0 0.51,-0.03 0.65,-0.08 0.13,-0.05 0.25,-0.13 0.34,-0.24 0.09,-0.1 0.19,-0.3 0.29,-0.59l3.66 -9.65zm-0.34 6.6l2.36 0 -1.15 -3.35 -1.21 3.35z"/>
  <path class="fil2" d="M16.19 42.35c2.68,-4.18 4.95,-7.19 6.97,-9.44 -2.57,-2.43 -4.87,-5.6 -6.97,-9.31 -2.1,3.71 -4.4,6.88 -6.97,9.31 2.02,2.25 4.29,5.26 6.97,9.44z"/>
 </g>
</svg>
