<?xml version="1.0" encoding="UTF-8"?>
<!DOCTYPE svg PUBLIC "-//W3C//DTD SVG 1.1//EN" "http://www.w3.org/Graphics/SVG/1.1/DTD/svg11.dtd">
<!-- Creator: CorelDRAW -->
<svg xmlns="http://www.w3.org/2000/svg" xml:space="preserve" width="14.5523mm" height="21.194mm" version="1.1" style="shape-rendering:geometricPrecision; text-rendering:geometricPrecision; image-rendering:optimizeQuality; fill-rule:evenodd; clip-rule:evenodd"
viewBox="0 0 95.88 139.64"
 xmlns:xlink="http://www.w3.org/1999/xlink"
 xmlns:xodm="http://www.corel.com/coreldraw/odm/2003">
 <defs>
  <style type="text/css">
   <![CDATA[
    .fil0 {fill:#DF0000}
    .fil2 {fill:white}
    .fil1 {fill:white;fill-rule:nonzero}
   ]]>
  </style>
 </defs>
 <g id="Camada_x0020_1">
  <metadata id="CorelCorpID_0Corel-Layer"/>
  <path class="fil0" d="M18.83 0l58.22 0c10.36,0 18.83,8.47 18.83,18.83l0 101.98c0,10.36 -8.47,18.83 -18.83,18.83l-58.22 0c-10.36,0 -18.83,-8.47 -18.83,-18.83l0 -101.98c0,-10.36 8.47,-18.83 18.83,-18.83z"/>
  <path class="fil1" d="M43.99 19.84l7.96 0 10.59 27.99c0.58,1.47 1.09,2.39 1.53,2.73 0.45,0.35 1.27,0.51 2.46,0.51l0 5 -16.67 0 0 -5 1.01 -0.03c0.92,0 1.57,-0.12 1.94,-0.38 0.37,-0.25 0.55,-0.56 0.55,-0.92 0,-0.31 -0.16,-0.95 -0.48,-1.92l-1.08 -3.29 -10.68 0 -1.32 3.66c-0.27,0.78 -0.41,1.29 -0.41,1.53 0,0.28 0.09,0.52 0.29,0.75 0.19,0.22 0.51,0.39 0.95,0.49 0.29,0.07 1.09,0.11 2.39,0.11l0 5 -13.67 0 0 -5c0.88,0 1.52,-0.08 1.92,-0.23 0.4,-0.16 0.73,-0.39 0.99,-0.7 0.26,-0.31 0.55,-0.9 0.87,-1.74l10.85 -28.57zm-1.02 19.53l6.99 0 -3.42 -9.92 -3.57 9.92z"/>
  <path class="fil2" d="M47.94 78c-4.92,-8.1 -13.62,-9.85 -21.38,-6.53 -9.43,4.22 -12.72,20.31 -4.53,29.35 5.62,7.42 20.55,16.78 25.9,24.59 5.35,-7.81 20.29,-17.17 25.9,-24.59 8.19,-9.04 4.9,-25.13 -4.53,-29.35 -7.76,-3.32 -16.46,-1.57 -21.38,6.53z"/>
 </g>
</svg>
