<?xml version="1.0" encoding="UTF-8"?>
<!DOCTYPE svg PUBLIC "-//W3C//DTD SVG 1.1//EN" "http://www.w3.org/Graphics/SVG/1.1/DTD/svg11.dtd">
<!-- Creator: CorelDRAW -->
<svg xmlns="http://www.w3.org/2000/svg" xml:space="preserve" width="14.5523mm" height="21.194mm" version="1.1" style="shape-rendering:geometricPrecision; text-rendering:geometricPrecision; image-rendering:optimizeQuality; fill-rule:evenodd; clip-rule:evenodd"
viewBox="0 0 100.25 146.01"
 xmlns:xlink="http://www.w3.org/1999/xlink"
 xmlns:xodm="http://www.corel.com/coreldraw/odm/2003">
 <defs>
  <style type="text/css">
   <![CDATA[
    .fil0 {fill:#333333}
    .fil1 {fill:white}
    .fil2 {fill:white;fill-rule:nonzero}
   ]]>
  </style>
 </defs>
 <g id="Camada_x0020_1">
  <metadata id="CorelCorpID_0Corel-Layer"/>
  <path class="fil0" d="M19.69 0l60.87 0c10.83,0 19.69,8.86 19.69,19.69l0 106.63c0,10.83 -8.86,19.69 -19.69,19.69l-60.87 0c-10.83,0 -19.69,-8.86 -19.69,-19.69l0 -106.63c0,-10.83 8.86,-19.69 19.69,-19.69z"/>
  <path class="fil1" d="M50.13 73.07c-10.64,14.45 -15.19,16.1 -22.78,22.85 -7.49,7.08 -7.97,14.37 -0.36,21.88 7.16,5.73 15.42,3.8 20.05,-0.97 0.48,-0.53 1.51,0.35 1.21,1.38 -1.8,6.41 -3.67,10.67 -6.34,12.92 2.2,-1.48 4.74,-1.49 8.21,-1.45 3.47,-0.05 6.01,-0.03 8.21,1.45 -2.68,-2.25 -4.54,-6.51 -6.34,-12.92 -0.29,-1.04 0.73,-1.91 1.21,-1.38 4.62,4.77 12.89,6.7 20.05,0.97 7.62,-7.51 7.13,-14.8 -0.36,-21.88 -7.59,-6.75 -12.14,-8.4 -22.78,-22.85z"/>
  <path class="fil2" d="M45.99 20.74l8.33 0 11.07 29.27c0.6,1.54 1.14,2.5 1.6,2.86 0.47,0.36 1.33,0.54 2.57,0.54l0 5.23 -17.43 0 0 -5.23 1.06 -0.03c0.97,0 1.64,-0.13 2.03,-0.4 0.39,-0.26 0.58,-0.58 0.58,-0.96 0,-0.32 -0.16,-0.99 -0.51,-2.01l-1.13 -3.44 -11.17 0 -1.38 3.83c-0.28,0.82 -0.42,1.34 -0.42,1.6 0,0.29 0.1,0.55 0.31,0.79 0.2,0.23 0.53,0.41 0.99,0.51 0.3,0.07 1.14,0.11 2.5,0.11l0 5.23 -14.29 0 0 -5.23c0.92,0 1.59,-0.08 2.01,-0.24 0.41,-0.17 0.77,-0.41 1.04,-0.73 0.27,-0.32 0.58,-0.94 0.91,-1.82l11.34 -29.87zm-1.07 20.42l7.31 0 -3.57 -10.37 -3.74 10.37z"/>
 </g>
</svg>
