<?xml version="1.0" encoding="UTF-8"?>
<!DOCTYPE svg PUBLIC "-//W3C//DTD SVG 1.1//EN" "http://www.w3.org/Graphics/SVG/1.1/DTD/svg11.dtd">
<!-- Creator: CorelDRAW -->
<svg xmlns="http://www.w3.org/2000/svg" xml:space="preserve" width="14.5523mm" height="21.194mm" version="1.1" style="shape-rendering:geometricPrecision; text-rendering:geometricPrecision; image-rendering:optimizeQuality; fill-rule:evenodd; clip-rule:evenodd"
viewBox="0 0 21.63 31.49"
 xmlns:xlink="http://www.w3.org/1999/xlink"
 xmlns:xodm="http://www.corel.com/coreldraw/odm/2003">
 <defs>
  <style type="text/css">
   <![CDATA[
    .fil0 {fill:#025936}
    .fil2 {fill:white}
    .fil1 {fill:white;fill-rule:nonzero}
   ]]>
  </style>
 </defs>
 <g id="Camada_x0020_1">
  <metadata id="CorelCorpID_0Corel-Layer"/>
  <path class="fil0" d="M4.25 0l13.13 0c2.34,0 4.25,1.91 4.25,4.25l0 23c0,2.34 -1.91,4.25 -4.25,4.25l-13.13 0c-2.34,0 -4.25,-1.91 -4.25,-4.25l0 -23c0,-2.34 1.91,-4.25 4.25,-4.25z"/>
  <path class="fil1" d="M10.53 4.41l3.88 0 0 1.13 -0.33 0c-0.22,0 -0.37,0.02 -0.44,0.06 -0.07,0.04 -0.12,0.09 -0.15,0.17 -0.03,0.08 -0.05,0.26 -0.05,0.53l0 3.27c0,0.51 -0.03,0.88 -0.08,1.12 -0.07,0.34 -0.25,0.67 -0.52,1 -0.27,0.33 -0.62,0.58 -1.05,0.76 -0.43,0.18 -0.94,0.27 -1.53,0.27 -0.63,0 -1.18,-0.11 -1.62,-0.33 -0.45,-0.22 -0.8,-0.53 -1.05,-0.92 -0.25,-0.39 -0.38,-0.79 -0.38,-1.21 0,-0.38 0.11,-0.69 0.32,-0.93 0.22,-0.24 0.48,-0.36 0.8,-0.36 0.19,0 0.36,0.04 0.49,0.11 0.14,0.08 0.24,0.19 0.32,0.35 0.08,0.15 0.12,0.32 0.12,0.49l0 0.38c0,0.21 0.05,0.42 0.15,0.61 0.07,0.14 0.19,0.26 0.36,0.35 0.17,0.09 0.35,0.13 0.56,0.13 0.27,0 0.51,-0.08 0.7,-0.25 0.19,-0.16 0.32,-0.38 0.38,-0.65 0.04,-0.16 0.06,-0.48 0.06,-0.97l0 -3.39c0,-0.17 -0.01,-0.28 -0.02,-0.33 -0.03,-0.1 -0.08,-0.17 -0.16,-0.21 -0.08,-0.04 -0.21,-0.06 -0.39,-0.06l-0.39 0 0 -1.13z"/>
  <path class="fil2" d="M10.81 16.07c1.61,0 2.91,1.3 2.91,2.91 0,0.82 -0.34,1.56 -0.88,2.09 0.4,-0.21 0.85,-0.32 1.33,-0.32 1.61,0 2.91,1.3 2.91,2.91 0,1.61 -1.3,2.91 -2.91,2.91 -1.39,0 -2.55,-0.97 -2.84,-2.27 -0.09,1.71 0.61,2.73 1.39,3.69 -0.46,-0.26 -1.11,-0.36 -1.91,-0.35 -0.8,-0.01 -1.45,0.1 -1.91,0.35 0.78,-0.96 1.48,-1.99 1.39,-3.69l0 -0c-0.29,1.3 -1.45,2.28 -2.84,2.28 -1.61,0 -2.91,-1.3 -2.91,-2.91 0,-1.61 1.3,-2.91 2.91,-2.91 0.48,0 0.93,0.12 1.33,0.32 -0.54,-0.53 -0.88,-1.27 -0.88,-2.09 0,-1.61 1.3,-2.91 2.91,-2.91z"/>
 </g>
</svg>
