<?xml version="1.0" encoding="UTF-8"?>
<!DOCTYPE svg PUBLIC "-//W3C//DTD SVG 1.1//EN" "http://www.w3.org/Graphics/SVG/1.1/DTD/svg11.dtd">
<!-- Creator: CorelDRAW -->
<svg xmlns="http://www.w3.org/2000/svg" xml:space="preserve" width="14.5523mm" height="21.194mm" version="1.1" style="shape-rendering:geometricPrecision; text-rendering:geometricPrecision; image-rendering:optimizeQuality; fill-rule:evenodd; clip-rule:evenodd"
viewBox="0 0 64.86 94.46"
 xmlns:xlink="http://www.w3.org/1999/xlink"
 xmlns:xodm="http://www.corel.com/coreldraw/odm/2003">
 <defs>
  <style type="text/css">
   <![CDATA[
    .fil0 {fill:#003399}
    .fil2 {fill:white}
    .fil1 {fill:white;fill-rule:nonzero}
   ]]>
  </style>
 </defs>
 <g id="Camada_x0020_1">
  <metadata id="CorelCorpID_0Corel-Layer"/>
  <path class="fil0" d="M12.74 0l39.38 0c7.01,0 12.74,5.73 12.74,12.74l0 68.99c0,7.01 -5.73,12.74 -12.74,12.74l-39.38 0c-7.01,0 -12.74,-5.73 -12.74,-12.74l0 -68.99c0,-7.01 5.73,-12.74 12.74,-12.74z"/>
  <path class="fil1" d="M31.58 13.22l11.63 0 0 3.38 -0.98 0c-0.67,0 -1.1,0.05 -1.31,0.17 -0.2,0.11 -0.36,0.28 -0.44,0.52 -0.09,0.23 -0.14,0.77 -0.14,1.6l0 9.82c0,1.54 -0.08,2.65 -0.24,3.35 -0.22,1.01 -0.74,2 -1.55,2.99 -0.82,0.98 -1.87,1.75 -3.16,2.28 -1.28,0.54 -2.81,0.81 -4.59,0.81 -1.9,0 -3.53,-0.34 -4.86,-1 -1.34,-0.67 -2.39,-1.59 -3.16,-2.76 -0.76,-1.17 -1.14,-2.38 -1.14,-3.62 0,-1.14 0.33,-2.07 0.97,-2.8 0.65,-0.73 1.45,-1.09 2.4,-1.09 0.58,0 1.07,0.11 1.48,0.34 0.41,0.23 0.73,0.58 0.97,1.04 0.25,0.46 0.37,0.95 0.37,1.48l0 1.15c0,0.64 0.15,1.25 0.45,1.84 0.22,0.43 0.57,0.79 1.07,1.06 0.5,0.27 1.06,0.4 1.69,0.4 0.82,0 1.52,-0.25 2.1,-0.74 0.57,-0.49 0.95,-1.14 1.14,-1.95 0.11,-0.47 0.17,-1.43 0.17,-2.91l0 -10.16c0,-0.52 -0.02,-0.85 -0.07,-1 -0.09,-0.29 -0.25,-0.5 -0.47,-0.62 -0.23,-0.13 -0.62,-0.19 -1.17,-0.19l-1.16 0 0 -3.38z"/>
  <path class="fil2" d="M32.42 84.84c5.36,-8.38 9.92,-14.41 13.96,-18.91 -5.15,-4.87 -9.76,-11.23 -13.96,-18.66 -4.2,7.43 -8.8,13.79 -13.96,18.66 4.04,4.5 8.6,10.53 13.96,18.91z"/>
 </g>
</svg>
