<?xml version="1.0" encoding="UTF-8"?>
<!DOCTYPE svg PUBLIC "-//W3C//DTD SVG 1.1//EN" "http://www.w3.org/Graphics/SVG/1.1/DTD/svg11.dtd">
<!-- Creator: CorelDRAW -->
<svg xmlns="http://www.w3.org/2000/svg" xml:space="preserve" width="14.5523mm" height="21.194mm" version="1.1" style="shape-rendering:geometricPrecision; text-rendering:geometricPrecision; image-rendering:optimizeQuality; fill-rule:evenodd; clip-rule:evenodd"
viewBox="0 0 38.61 56.24"
 xmlns:xlink="http://www.w3.org/1999/xlink"
 xmlns:xodm="http://www.corel.com/coreldraw/odm/2003">
 <defs>
  <style type="text/css">
   <![CDATA[
    .fil0 {fill:#DF0000}
    .fil2 {fill:white}
    .fil1 {fill:white;fill-rule:nonzero}
   ]]>
  </style>
 </defs>
 <g id="Camada_x0020_1">
  <metadata id="CorelCorpID_0Corel-Layer"/>
  <path class="fil0" d="M7.58 0l23.45 0c4.17,0 7.58,3.41 7.58,7.58l0 41.07c0,4.17 -3.41,7.58 -7.58,7.58l-23.45 0c-4.17,0 -7.58,-3.41 -7.58,-7.58l0 -41.07c0,-4.17 3.41,-7.58 7.58,-7.58z"/>
  <path class="fil1" d="M18.8 7.87l6.92 0 0 2.01 -0.58 0c-0.4,0 -0.65,0.03 -0.78,0.1 -0.12,0.06 -0.21,0.17 -0.26,0.31 -0.06,0.14 -0.08,0.46 -0.08,0.95l0 5.84c0,0.91 -0.05,1.58 -0.14,2 -0.13,0.6 -0.44,1.19 -0.92,1.78 -0.49,0.59 -1.12,1.04 -1.88,1.36 -0.76,0.32 -1.68,0.48 -2.73,0.48 -1.13,0 -2.1,-0.2 -2.9,-0.6 -0.8,-0.4 -1.42,-0.95 -1.88,-1.64 -0.46,-0.7 -0.68,-1.41 -0.68,-2.15 0,-0.68 0.19,-1.23 0.58,-1.66 0.39,-0.43 0.86,-0.65 1.43,-0.65 0.35,0 0.64,0.07 0.88,0.2 0.24,0.14 0.43,0.34 0.58,0.62 0.15,0.28 0.22,0.57 0.22,0.88l0 0.68c0,0.38 0.09,0.75 0.27,1.1 0.13,0.26 0.34,0.47 0.64,0.63 0.3,0.16 0.63,0.24 1.01,0.24 0.49,0 0.91,-0.15 1.25,-0.44 0.34,-0.29 0.57,-0.68 0.68,-1.16 0.07,-0.28 0.1,-0.85 0.1,-1.73l0 -6.05c0,-0.31 -0.01,-0.5 -0.04,-0.59 -0.06,-0.18 -0.15,-0.3 -0.28,-0.37 -0.14,-0.08 -0.37,-0.11 -0.69,-0.11l-0.69 0 0 -2.01z"/>
  <path class="fil2" d="M19.3 31.41c-1.98,-3.26 -5.48,-3.97 -8.61,-2.63 -3.8,1.7 -5.12,8.18 -1.82,11.82 2.26,2.99 8.28,6.76 10.43,9.9 2.15,-3.15 8.17,-6.92 10.43,-9.9 3.3,-3.64 1.97,-10.12 -1.82,-11.82 -3.12,-1.34 -6.63,-0.63 -8.61,2.63z"/>
 </g>
</svg>
