<?xml version="1.0" encoding="UTF-8"?>
<!DOCTYPE svg PUBLIC "-//W3C//DTD SVG 1.1//EN" "http://www.w3.org/Graphics/SVG/1.1/DTD/svg11.dtd">
<!-- Creator: CorelDRAW -->
<svg xmlns="http://www.w3.org/2000/svg" xml:space="preserve" width="14.5523mm" height="21.194mm" version="1.1" style="shape-rendering:geometricPrecision; text-rendering:geometricPrecision; image-rendering:optimizeQuality; fill-rule:evenodd; clip-rule:evenodd"
viewBox="0 0 182.03 265.11"
 xmlns:xlink="http://www.w3.org/1999/xlink"
 xmlns:xodm="http://www.corel.com/coreldraw/odm/2003">
 <defs>
  <style type="text/css">
   <![CDATA[
    .fil0 {fill:#333333}
    .fil1 {fill:white}
    .fil2 {fill:white;fill-rule:nonzero}
   ]]>
  </style>
 </defs>
 <g id="Camada_x0020_1">
  <metadata id="CorelCorpID_0Corel-Layer"/>
  <path class="fil0" d="M35.75 0l110.53 0c19.66,0 35.75,16.09 35.75,35.75l0 193.62c0,19.66 -16.09,35.75 -35.75,35.75l-110.53 0c-19.66,0 -35.75,-16.09 -35.75,-35.75l0 -193.62c0,-19.66 16.09,-35.75 35.75,-35.75z"/>
  <path class="fil1" d="M91 132.68c-19.32,26.24 -27.57,29.23 -41.36,41.49 -13.6,12.86 -14.47,26.09 -0.65,39.73 13,10.41 28.01,6.9 36.4,-1.76 0.87,-0.96 2.73,0.63 2.21,2.51 -3.27,11.64 -6.66,19.37 -11.51,23.46 4,-2.69 8.61,-2.71 14.91,-2.63 6.3,-0.08 10.92,-0.06 14.91,2.63 -4.86,-4.09 -8.24,-11.82 -11.51,-23.46 -0.53,-1.88 1.33,-3.47 2.21,-2.51 8.39,8.66 23.4,12.17 36.4,1.76 13.83,-13.64 12.95,-26.87 -0.65,-39.73 -13.79,-12.26 -22.04,-15.25 -41.36,-41.49z"/>
  <path class="fil2" d="M88.64 37.11l32.64 0 0 9.5 -2.75 0c-1.87,0 -3.08,0.15 -3.67,0.47 -0.57,0.3 -1,0.79 -1.24,1.45 -0.26,0.66 -0.39,2.16 -0.39,4.48l0 27.55c0,4.31 -0.23,7.44 -0.67,9.41 -0.61,2.83 -2.07,5.62 -4.36,8.39 -2.31,2.76 -5.26,4.9 -8.86,6.4 -3.59,1.52 -7.9,2.27 -12.88,2.27 -5.34,0 -9.9,-0.94 -13.65,-2.81 -3.77,-1.87 -6.72,-4.46 -8.86,-7.75 -2.15,-3.28 -3.21,-6.67 -3.21,-10.15 0,-3.2 0.92,-5.81 2.74,-7.85 1.82,-2.04 4.06,-3.06 6.75,-3.06 1.64,0 3.01,0.32 4.15,0.96 1.15,0.64 2.05,1.62 2.74,2.91 0.69,1.3 1.03,2.68 1.03,4.16l0 3.22c0,1.8 0.43,3.52 1.26,5.17 0.61,1.21 1.6,2.21 3.01,2.96 1.39,0.76 2.98,1.13 4.75,1.13 2.31,0 4.28,-0.69 5.88,-2.07 1.6,-1.38 2.67,-3.2 3.19,-5.47 0.31,-1.31 0.47,-4.03 0.47,-8.17l0 -28.53c0,-1.45 -0.07,-2.37 -0.2,-2.79 -0.26,-0.83 -0.7,-1.41 -1.33,-1.75 -0.64,-0.35 -1.74,-0.52 -3.28,-0.52l-3.26 0 0 -9.5z"/>
 </g>
</svg>
