<?xml version="1.0" encoding="UTF-8"?>
<!DOCTYPE svg PUBLIC "-//W3C//DTD SVG 1.1//EN" "http://www.w3.org/Graphics/SVG/1.1/DTD/svg11.dtd">
<!-- Creator: CorelDRAW -->
<svg xmlns="http://www.w3.org/2000/svg" xml:space="preserve" width="14.5523mm" height="21.194mm" version="1.1" style="shape-rendering:geometricPrecision; text-rendering:geometricPrecision; image-rendering:optimizeQuality; fill-rule:evenodd; clip-rule:evenodd"
viewBox="0 0 20.27 29.52"
 xmlns:xlink="http://www.w3.org/1999/xlink"
 xmlns:xodm="http://www.corel.com/coreldraw/odm/2003">
 <defs>
  <style type="text/css">
   <![CDATA[
    .fil0 {fill:#025936}
    .fil2 {fill:white}
    .fil1 {fill:white;fill-rule:nonzero}
   ]]>
  </style>
 </defs>
 <g id="Camada_x0020_1">
  <metadata id="CorelCorpID_0Corel-Layer"/>
  <path class="fil0" d="M3.98 0l12.31 0c2.19,0 3.98,1.79 3.98,3.98l0 21.56c0,2.19 -1.79,3.98 -3.98,3.98l-12.31 0c-2.19,0 -3.98,-1.79 -3.98,-3.98l0 -21.56c0,-2.19 1.79,-3.98 3.98,-3.98z"/>
  <path class="fil1" d="M5.95 4.19l3.63 0 0 1.06 -0.24 0c-0.23,0 -0.37,0.01 -0.42,0.04 -0.08,0.04 -0.14,0.1 -0.18,0.17 -0.04,0.07 -0.05,0.21 -0.05,0.41l0 2.04 2.32 -2.21c0.1,-0.1 0.17,-0.17 0.19,-0.2 0.02,-0.03 0.03,-0.07 0.03,-0.09 0,-0.05 -0.02,-0.09 -0.06,-0.12 -0.04,-0.03 -0.14,-0.04 -0.31,-0.04l-0.3 0 0 -1.06 3.38 0 0 1.06 -0.11 0c-0.16,0 -0.27,0.01 -0.33,0.02 -0.06,0.02 -0.13,0.05 -0.22,0.11 -0.09,0.06 -0.2,0.15 -0.34,0.27l-1.81 1.61 2.16 2.99c0.19,0.26 0.32,0.41 0.41,0.46 0.11,0.07 0.28,0.1 0.5,0.1l0.14 0 0 1.06 -3.78 0 0 -1.06 0.15 0c0.28,0 0.44,-0.01 0.5,-0.04 0.06,-0.02 0.09,-0.06 0.09,-0.1 0,-0.04 -0.05,-0.15 -0.17,-0.31l-1.32 -1.92 -1.12 1 0 0.78c0,0.19 0.02,0.32 0.05,0.4 0.03,0.08 0.09,0.13 0.15,0.16 0.07,0.03 0.2,0.05 0.39,0.05l0.3 0 0 1.06 -3.63 0 0 -1.06 0.27 0c0.21,0 0.35,-0.02 0.42,-0.05 0.07,-0.03 0.12,-0.09 0.16,-0.17 0.03,-0.06 0.04,-0.21 0.04,-0.45l0 -4.19c0,-0.23 -0.02,-0.38 -0.05,-0.46 -0.03,-0.08 -0.08,-0.13 -0.16,-0.17 -0.07,-0.04 -0.2,-0.06 -0.39,-0.06l-0.31 0 0 -1.06z"/>
  <path class="fil2" d="M10.13 15.07c1.5,0 2.72,1.22 2.72,2.72 0,0.77 -0.32,1.46 -0.83,1.95 0.37,-0.19 0.8,-0.3 1.25,-0.3 1.5,0 2.72,1.22 2.72,2.72 0,1.5 -1.22,2.72 -2.72,2.72 -1.3,0 -2.39,-0.91 -2.66,-2.13 -0.09,1.6 0.57,2.56 1.3,3.46 -0.43,-0.24 -1.04,-0.34 -1.79,-0.33 -0.75,-0.01 -1.36,0.09 -1.79,0.33 0.73,-0.9 1.39,-1.86 1.3,-3.46l0 -0c-0.27,1.22 -1.36,2.13 -2.66,2.13 -1.5,0 -2.72,-1.22 -2.72,-2.72 0,-1.5 1.22,-2.72 2.72,-2.72 0.45,0 0.87,0.11 1.25,0.3 -0.51,-0.5 -0.83,-1.19 -0.83,-1.95 0,-1.5 1.22,-2.72 2.72,-2.72z"/>
 </g>
</svg>
