<?xml version="1.0" encoding="UTF-8"?>
<!DOCTYPE svg PUBLIC "-//W3C//DTD SVG 1.1//EN" "http://www.w3.org/Graphics/SVG/1.1/DTD/svg11.dtd">
<!-- Creator: CorelDRAW -->
<svg xmlns="http://www.w3.org/2000/svg" xml:space="preserve" width="14.5523mm" height="21.194mm" version="1.1" style="shape-rendering:geometricPrecision; text-rendering:geometricPrecision; image-rendering:optimizeQuality; fill-rule:evenodd; clip-rule:evenodd"
viewBox="0 0 81.14 118.17"
 xmlns:xlink="http://www.w3.org/1999/xlink"
 xmlns:xodm="http://www.corel.com/coreldraw/odm/2003">
 <defs>
  <style type="text/css">
   <![CDATA[
    .fil0 {fill:#003399}
    .fil2 {fill:white}
    .fil1 {fill:white;fill-rule:nonzero}
   ]]>
  </style>
 </defs>
 <g id="Camada_x0020_1">
  <metadata id="CorelCorpID_0Corel-Layer"/>
  <path class="fil0" d="M15.93 0l49.27 0c8.76,0 15.93,7.17 15.93,15.93l0 86.3c0,8.76 -7.17,15.93 -15.93,15.93l-49.27 0c-8.76,0 -15.93,-7.17 -15.93,-15.93l0 -86.3c0,-8.76 7.17,-15.93 15.93,-15.93z"/>
  <path class="fil1" d="M23.8 16.79l14.55 0 0 4.23 -0.95 0c-0.92,0 -1.48,0.05 -1.69,0.16 -0.34,0.16 -0.58,0.38 -0.73,0.68 -0.15,0.29 -0.22,0.85 -0.22,1.65l0 8.16 9.28 -8.85c0.42,-0.4 0.66,-0.67 0.75,-0.81 0.08,-0.13 0.12,-0.26 0.12,-0.36 0,-0.21 -0.08,-0.37 -0.25,-0.47 -0.16,-0.1 -0.58,-0.16 -1.26,-0.16l-1.21 0 0 -4.23 13.54 0 0 4.23 -0.45 0c-0.63,0 -1.07,0.03 -1.31,0.1 -0.24,0.07 -0.54,0.21 -0.89,0.43 -0.35,0.23 -0.8,0.59 -1.36,1.08l-7.24 6.43 8.63 11.95c0.74,1.03 1.29,1.64 1.63,1.82 0.46,0.26 1.12,0.4 1.99,0.4l0.58 0 0 4.23 -15.12 0 0 -4.23 0.61 0c1.1,0 1.77,-0.05 2.02,-0.16 0.23,-0.1 0.35,-0.23 0.35,-0.4 0,-0.17 -0.22,-0.59 -0.66,-1.26l-5.27 -7.68 -4.48 3.99 0 3.11c0,0.77 0.07,1.29 0.21,1.58 0.14,0.3 0.34,0.5 0.6,0.63 0.26,0.13 0.79,0.19 1.58,0.19l1.21 0 0 4.23 -14.55 0 0 -4.23 1.1 0c0.85,0 1.42,-0.07 1.7,-0.21 0.28,-0.14 0.5,-0.36 0.62,-0.67 0.12,-0.25 0.18,-0.86 0.18,-1.81l0 -16.77c0,-0.91 -0.07,-1.52 -0.2,-1.82 -0.12,-0.31 -0.34,-0.54 -0.62,-0.69 -0.28,-0.16 -0.8,-0.23 -1.55,-0.23l-1.23 0 0 -4.23z"/>
  <path class="fil2" d="M40.56 106.13c6.71,-10.48 12.41,-18.03 17.46,-23.65 -6.45,-6.09 -12.2,-14.04 -17.46,-23.34 -5.26,9.3 -11.01,17.25 -17.46,23.34 5.05,5.63 10.76,13.17 17.46,23.65z"/>
 </g>
</svg>
