<?xml version="1.0" encoding="UTF-8"?>
<!DOCTYPE svg PUBLIC "-//W3C//DTD SVG 1.1//EN" "http://www.w3.org/Graphics/SVG/1.1/DTD/svg11.dtd">
<!-- Creator: CorelDRAW -->
<svg xmlns="http://www.w3.org/2000/svg" xml:space="preserve" width="14.5523mm" height="21.194mm" version="1.1" style="shape-rendering:geometricPrecision; text-rendering:geometricPrecision; image-rendering:optimizeQuality; fill-rule:evenodd; clip-rule:evenodd"
viewBox="0 0 34.49 50.23"
 xmlns:xlink="http://www.w3.org/1999/xlink"
 xmlns:xodm="http://www.corel.com/coreldraw/odm/2003">
 <defs>
  <style type="text/css">
   <![CDATA[
    .fil0 {fill:#DF0000}
    .fil2 {fill:white}
    .fil1 {fill:white;fill-rule:nonzero}
   ]]>
  </style>
 </defs>
 <g id="Camada_x0020_1">
  <metadata id="CorelCorpID_0Corel-Layer"/>
  <path class="fil0" d="M6.77 0l20.94 0c3.73,0 6.77,3.05 6.77,6.77l0 36.69c0,3.73 -3.05,6.77 -6.77,6.77l-20.94 0c-3.73,0 -6.77,-3.05 -6.77,-6.77l0 -36.69c0,-3.73 3.05,-6.77 6.77,-6.77z"/>
  <path class="fil1" d="M10.12 7.14l6.18 0 0 1.8 -0.4 0c-0.39,0 -0.63,0.02 -0.72,0.07 -0.14,0.07 -0.25,0.16 -0.31,0.29 -0.06,0.12 -0.09,0.36 -0.09,0.7l0 3.47 3.95 -3.76c0.18,-0.17 0.28,-0.28 0.32,-0.34 0.03,-0.06 0.05,-0.11 0.05,-0.15 0,-0.09 -0.03,-0.16 -0.11,-0.2 -0.07,-0.04 -0.25,-0.07 -0.53,-0.07l-0.51 0 0 -1.8 5.76 0 0 1.8 -0.19 0c-0.27,0 -0.45,0.01 -0.56,0.04 -0.1,0.03 -0.23,0.09 -0.38,0.18 -0.15,0.1 -0.34,0.25 -0.58,0.46l-3.08 2.73 3.67 5.08c0.32,0.44 0.55,0.7 0.69,0.78 0.2,0.11 0.48,0.17 0.84,0.17l0.25 0 0 1.8 -6.43 0 0 -1.8 0.26 0c0.47,0 0.75,-0.02 0.86,-0.07 0.1,-0.04 0.15,-0.1 0.15,-0.17 0,-0.07 -0.09,-0.25 -0.28,-0.54l-2.24 -3.26 -1.91 1.69 0 1.32c0,0.33 0.03,0.55 0.09,0.67 0.06,0.13 0.15,0.21 0.25,0.27 0.11,0.05 0.34,0.08 0.67,0.08l0.51 0 0 1.8 -6.18 0 0 -1.8 0.47 0c0.36,0 0.6,-0.03 0.72,-0.09 0.12,-0.06 0.21,-0.15 0.26,-0.28 0.05,-0.11 0.07,-0.36 0.07,-0.77l0 -7.13c0,-0.39 -0.03,-0.64 -0.08,-0.78 -0.05,-0.13 -0.14,-0.23 -0.26,-0.29 -0.12,-0.07 -0.34,-0.1 -0.66,-0.1l-0.52 0 0 -1.8z"/>
  <path class="fil2" d="M17.24 28.06c-1.77,-2.91 -4.9,-3.54 -7.69,-2.35 -3.39,1.52 -4.57,7.31 -1.63,10.56 2.02,2.67 7.39,6.04 9.32,8.85 1.92,-2.81 7.3,-6.18 9.32,-8.85 2.95,-3.25 1.76,-9.04 -1.63,-10.56 -2.79,-1.19 -5.92,-0.56 -7.69,2.35z"/>
 </g>
</svg>
