<?xml version="1.0" encoding="UTF-8"?>
<!DOCTYPE svg PUBLIC "-//W3C//DTD SVG 1.1//EN" "http://www.w3.org/Graphics/SVG/1.1/DTD/svg11.dtd">
<!-- Creator: CorelDRAW -->
<svg xmlns="http://www.w3.org/2000/svg" xml:space="preserve" width="14.5523mm" height="21.194mm" version="1.1" style="shape-rendering:geometricPrecision; text-rendering:geometricPrecision; image-rendering:optimizeQuality; fill-rule:evenodd; clip-rule:evenodd"
viewBox="0 0 116.45 169.6"
 xmlns:xlink="http://www.w3.org/1999/xlink"
 xmlns:xodm="http://www.corel.com/coreldraw/odm/2003">
 <defs>
  <style type="text/css">
   <![CDATA[
    .fil0 {fill:#333333}
    .fil1 {fill:white}
    .fil2 {fill:white;fill-rule:nonzero}
   ]]>
  </style>
 </defs>
 <g id="Camada_x0020_1">
  <metadata id="CorelCorpID_0Corel-Layer"/>
  <path class="fil0" d="M22.87 0l70.71 0c12.58,0 22.87,10.29 22.87,22.87l0 123.86c0,12.58 -10.29,22.87 -22.87,22.87l-70.71 0c-12.58,0 -22.87,-10.29 -22.87,-22.87l0 -123.86c0,-12.58 10.29,-22.87 22.87,-22.87z"/>
  <path class="fil1" d="M58.22 84.88c-12.36,16.79 -17.64,18.7 -26.46,26.54 -8.7,8.23 -9.26,16.69 -0.41,25.42 8.32,6.66 17.92,4.42 23.29,-1.13 0.56,-0.61 1.75,0.4 1.41,1.61 -2.09,7.45 -4.26,12.39 -7.37,15.01 2.56,-1.72 5.51,-1.74 9.54,-1.68 4.03,-0.05 6.98,-0.04 9.54,1.68 -3.11,-2.62 -5.27,-7.56 -7.37,-15.01 -0.34,-1.21 0.85,-2.22 1.41,-1.61 5.37,5.54 14.97,7.79 23.29,1.13 8.85,-8.73 8.29,-17.19 -0.41,-25.42 -8.82,-7.84 -14.1,-9.75 -26.46,-26.54z"/>
  <path class="fil2" d="M34.16 24.09l20.88 0 0 6.08 -1.36 0c-1.32,0 -2.13,0.08 -2.43,0.23 -0.48,0.23 -0.83,0.55 -1.05,0.97 -0.21,0.42 -0.31,1.22 -0.31,2.37l0 11.71 13.32 -12.7c0.6,-0.57 0.95,-0.96 1.08,-1.16 0.12,-0.19 0.18,-0.38 0.18,-0.52 0,-0.3 -0.12,-0.53 -0.36,-0.67 -0.23,-0.15 -0.83,-0.23 -1.8,-0.23l-1.73 0 0 -6.08 19.43 0 0 6.08 -0.65 0c-0.9,0 -1.53,0.04 -1.88,0.14 -0.35,0.1 -0.78,0.3 -1.28,0.61 -0.5,0.32 -1.15,0.84 -1.95,1.55l-10.39 9.22 12.39 17.15c1.07,1.48 1.85,2.35 2.34,2.62 0.66,0.38 1.61,0.57 2.85,0.57l0.83 0 0 6.08 -21.7 0 0 -6.08 0.87 0c1.58,0 2.55,-0.08 2.89,-0.23 0.34,-0.14 0.5,-0.33 0.5,-0.57 0,-0.25 -0.31,-0.85 -0.95,-1.81l-7.57 -11.02 -6.44 5.72 0 4.46c0,1.1 0.11,1.85 0.3,2.27 0.2,0.43 0.49,0.72 0.86,0.91 0.38,0.18 1.13,0.27 2.26,0.27l1.73 0 0 6.08 -20.88 0 0 -6.08 1.57 0c1.22,0 2.03,-0.1 2.44,-0.3 0.41,-0.19 0.71,-0.52 0.89,-0.96 0.17,-0.36 0.25,-1.23 0.25,-2.6l0 -24.07c0,-1.3 -0.09,-2.18 -0.28,-2.62 -0.18,-0.44 -0.48,-0.78 -0.89,-0.99 -0.41,-0.23 -1.15,-0.33 -2.22,-0.33l-1.76 0 0 -6.08z"/>
 </g>
</svg>
