<?xml version="1.0" encoding="UTF-8"?>
<!DOCTYPE svg PUBLIC "-//W3C//DTD SVG 1.1//EN" "http://www.w3.org/Graphics/SVG/1.1/DTD/svg11.dtd">
<!-- Creator: CorelDRAW -->
<svg xmlns="http://www.w3.org/2000/svg" xml:space="preserve" width="14.5523mm" height="21.194mm" version="1.1" style="shape-rendering:geometricPrecision; text-rendering:geometricPrecision; image-rendering:optimizeQuality; fill-rule:evenodd; clip-rule:evenodd"
viewBox="0 0 20.93 30.48"
 xmlns:xlink="http://www.w3.org/1999/xlink"
 xmlns:xodm="http://www.corel.com/coreldraw/odm/2003">
 <defs>
  <style type="text/css">
   <![CDATA[
    .fil0 {fill:#025936}
    .fil2 {fill:white}
    .fil1 {fill:white;fill-rule:nonzero}
   ]]>
  </style>
 </defs>
 <g id="Camada_x0020_1">
  <metadata id="CorelCorpID_0Corel-Layer"/>
  <path class="fil0" d="M4.11 0l12.71 0c2.26,0 4.11,1.85 4.11,4.11l0 22.26c0,2.26 -1.85,4.11 -4.11,4.11l-12.71 0c-2.26,0 -4.11,-1.85 -4.11,-4.11l0 -22.26c0,-2.26 1.85,-4.11 4.11,-4.11z"/>
  <path class="fil1" d="M9.5 11.2c-0.83,-0.14 -1.54,-0.52 -2.13,-1.15 -0.69,-0.75 -1.04,-1.69 -1.04,-2.84 0,-1.21 0.38,-2.19 1.15,-2.96 0.76,-0.77 1.76,-1.15 3,-1.15 1.23,0 2.22,0.38 2.98,1.14 0.76,0.76 1.13,1.74 1.13,2.94 0,0.7 -0.13,1.34 -0.4,1.9 -0.26,0.57 -0.63,1.03 -1.1,1.38 -0.47,0.36 -1.04,0.6 -1.71,0.73 0.01,0.33 0.13,0.59 0.35,0.76 0.22,0.17 0.49,0.25 0.8,0.25 0.24,0 0.48,-0.04 0.74,-0.12 0.25,-0.08 0.48,-0.19 0.68,-0.33l0.54 0.96c-0.41,0.26 -0.8,0.45 -1.19,0.57 -0.38,0.12 -0.79,0.17 -1.23,0.17 -0.54,0 -1.01,-0.09 -1.41,-0.29 -0.4,-0.19 -0.7,-0.47 -0.9,-0.85 -0.16,-0.3 -0.25,-0.68 -0.26,-1.13zm1.02 -6.84c-0.59,0 -1.05,0.22 -1.4,0.68 -0.44,0.57 -0.65,1.3 -0.65,2.2 0,0.9 0.2,1.61 0.61,2.13 0.35,0.45 0.81,0.67 1.39,0.67 0.58,0 1.04,-0.22 1.38,-0.67 0.41,-0.53 0.61,-1.25 0.61,-2.14 0,-0.63 -0.09,-1.16 -0.26,-1.58 -0.18,-0.43 -0.41,-0.75 -0.71,-0.96 -0.3,-0.21 -0.62,-0.32 -0.97,-0.32z"/>
  <path class="fil2" d="M10.46 15.55c1.55,0 2.81,1.26 2.81,2.81 0,0.79 -0.33,1.51 -0.85,2.02 0.39,-0.2 0.82,-0.31 1.29,-0.31 1.55,0 2.81,1.26 2.81,2.81 0,1.55 -1.26,2.81 -2.81,2.81 -1.34,0 -2.47,-0.94 -2.75,-2.2 -0.09,1.65 0.59,2.64 1.35,3.57 -0.45,-0.25 -1.08,-0.35 -1.85,-0.34 -0.77,-0.01 -1.4,0.09 -1.85,0.34 0.76,-0.93 1.44,-1.92 1.35,-3.58l0 -0c-0.28,1.26 -1.4,2.2 -2.75,2.2 -1.55,0 -2.81,-1.26 -2.81,-2.81 0,-1.55 1.26,-2.81 2.81,-2.81 0.46,0 0.9,0.11 1.29,0.31 -0.53,-0.51 -0.85,-1.23 -0.85,-2.02 0,-1.55 1.26,-2.81 2.81,-2.81z"/>
 </g>
</svg>
