<?xml version="1.0" encoding="UTF-8"?>
<!DOCTYPE svg PUBLIC "-//W3C//DTD SVG 1.1//EN" "http://www.w3.org/Graphics/SVG/1.1/DTD/svg11.dtd">
<!-- Creator: CorelDRAW -->
<svg xmlns="http://www.w3.org/2000/svg" xml:space="preserve" width="14.5523mm" height="21.194mm" version="1.1" style="shape-rendering:geometricPrecision; text-rendering:geometricPrecision; image-rendering:optimizeQuality; fill-rule:evenodd; clip-rule:evenodd"
viewBox="0 0 72.09 104.99"
 xmlns:xlink="http://www.w3.org/1999/xlink"
 xmlns:xodm="http://www.corel.com/coreldraw/odm/2003">
 <defs>
  <style type="text/css">
   <![CDATA[
    .fil0 {fill:#003399}
    .fil2 {fill:white}
    .fil1 {fill:white;fill-rule:nonzero}
   ]]>
  </style>
 </defs>
 <g id="Camada_x0020_1">
  <metadata id="CorelCorpID_0Corel-Layer"/>
  <path class="fil0" d="M14.16 0l43.78 0c7.79,0 14.16,6.37 14.16,14.16l0 76.68c0,7.79 -6.37,14.16 -14.16,14.16l-43.78 0c-7.79,0 -14.16,-6.37 -14.16,-14.16l0 -76.68c0,-7.79 6.37,-14.16 14.16,-14.16z"/>
  <path class="fil1" d="M32.13 38.58c-2.87,-0.47 -5.32,-1.79 -7.33,-3.96 -2.38,-2.58 -3.57,-5.84 -3.57,-9.77 0,-4.15 1.32,-7.55 3.95,-10.19 2.63,-2.65 6.08,-3.97 10.35,-3.97 4.24,0 7.65,1.31 10.26,3.94 2.6,2.63 3.91,6.01 3.91,10.13 0,2.42 -0.45,4.6 -1.36,6.55 -0.91,1.95 -2.17,3.53 -3.79,4.77 -1.62,1.24 -3.58,2.07 -5.9,2.5 0.04,1.15 0.43,2.02 1.19,2.61 0.76,0.58 1.68,0.87 2.76,0.87 0.82,0 1.67,-0.13 2.54,-0.41 0.88,-0.27 1.65,-0.65 2.34,-1.13l1.86 3.29c-1.4,0.91 -2.76,1.56 -4.09,1.96 -1.32,0.4 -2.74,0.6 -4.24,0.6 -1.87,0 -3.49,-0.33 -4.87,-0.99 -1.37,-0.66 -2.4,-1.63 -3.1,-2.92 -0.55,-1.03 -0.85,-2.33 -0.89,-3.89zm3.51 -23.57c-2.02,0 -3.62,0.77 -4.81,2.33 -1.5,1.95 -2.25,4.47 -2.25,7.56 0,3.09 0.69,5.54 2.09,7.33 1.21,1.54 2.8,2.31 4.78,2.31 1.99,0 3.58,-0.77 4.77,-2.31 1.41,-1.83 2.11,-4.29 2.11,-7.37 0,-2.16 -0.3,-3.98 -0.9,-5.46 -0.6,-1.47 -1.41,-2.57 -2.45,-3.3 -1.02,-0.73 -2.14,-1.09 -3.34,-1.09z"/>
  <path class="fil2" d="M36.04 94.3c5.96,-9.31 11.03,-16.02 15.52,-21.02 -5.73,-5.41 -10.84,-12.48 -15.52,-20.74 -4.67,8.26 -9.79,15.33 -15.52,20.74 4.49,5 9.56,11.7 15.52,21.02z"/>
 </g>
</svg>
