<?xml version="1.0" encoding="UTF-8"?>
<!DOCTYPE svg PUBLIC "-//W3C//DTD SVG 1.1//EN" "http://www.w3.org/Graphics/SVG/1.1/DTD/svg11.dtd">
<!-- Creator: CorelDRAW -->
<svg xmlns="http://www.w3.org/2000/svg" xml:space="preserve" width="14.5523mm" height="21.194mm" version="1.1" style="shape-rendering:geometricPrecision; text-rendering:geometricPrecision; image-rendering:optimizeQuality; fill-rule:evenodd; clip-rule:evenodd"
viewBox="0 0 36.44 53.07"
 xmlns:xlink="http://www.w3.org/1999/xlink"
 xmlns:xodm="http://www.corel.com/coreldraw/odm/2003">
 <defs>
  <style type="text/css">
   <![CDATA[
    .fil0 {fill:#DF0000}
    .fil2 {fill:white}
    .fil1 {fill:white;fill-rule:nonzero}
   ]]>
  </style>
 </defs>
 <g id="Camada_x0020_1">
  <metadata id="CorelCorpID_0Corel-Layer"/>
  <path class="fil0" d="M7.16 0l22.12 0c3.94,0 7.16,3.22 7.16,7.16l0 38.75c0,3.94 -3.22,7.16 -7.16,7.16l-22.12 0c-3.94,0 -7.16,-3.22 -7.16,-7.16l0 -38.75c0,-3.94 3.22,-7.16 7.16,-7.16z"/>
  <path class="fil1" d="M16.53 19.5c-1.45,-0.24 -2.69,-0.9 -3.71,-2 -1.2,-1.3 -1.8,-2.95 -1.8,-4.94 0,-2.1 0.67,-3.82 1.99,-5.15 1.33,-1.34 3.07,-2.01 5.23,-2.01 2.14,0 3.87,0.66 5.18,1.99 1.31,1.33 1.97,3.04 1.97,5.12 0,1.22 -0.23,2.33 -0.69,3.31 -0.46,0.98 -1.1,1.79 -1.92,2.41 -0.82,0.63 -1.81,1.05 -2.98,1.26 0.02,0.58 0.22,1.02 0.6,1.32 0.38,0.29 0.85,0.44 1.4,0.44 0.41,0 0.84,-0.07 1.29,-0.21 0.44,-0.14 0.84,-0.33 1.18,-0.57l0.94 1.67c-0.71,0.46 -1.4,0.79 -2.07,0.99 -0.67,0.2 -1.38,0.3 -2.15,0.3 -0.94,0 -1.76,-0.17 -2.46,-0.5 -0.69,-0.33 -1.21,-0.83 -1.57,-1.48 -0.28,-0.52 -0.43,-1.18 -0.45,-1.97zm1.77 -11.91c-1.02,0 -1.83,0.39 -2.43,1.18 -0.76,0.99 -1.13,2.26 -1.13,3.82 0,1.56 0.35,2.8 1.06,3.7 0.61,0.78 1.41,1.17 2.41,1.17 1,0 1.81,-0.39 2.41,-1.17 0.71,-0.93 1.07,-2.17 1.07,-3.72 0,-1.09 -0.15,-2.01 -0.46,-2.76 -0.3,-0.74 -0.72,-1.3 -1.24,-1.67 -0.52,-0.37 -1.08,-0.55 -1.69,-0.55z"/>
  <path class="fil2" d="M18.22 29.64c-1.87,-3.08 -5.18,-3.74 -8.12,-2.48 -3.58,1.6 -4.83,7.72 -1.72,11.15 2.13,2.82 7.81,6.38 9.84,9.35 2.03,-2.97 7.71,-6.53 9.84,-9.35 3.11,-3.44 1.86,-9.55 -1.72,-11.15 -2.95,-1.26 -6.25,-0.6 -8.12,2.48z"/>
 </g>
</svg>
