<?xml version="1.0" encoding="UTF-8"?>
<!DOCTYPE svg PUBLIC "-//W3C//DTD SVG 1.1//EN" "http://www.w3.org/Graphics/SVG/1.1/DTD/svg11.dtd">
<!-- Creator: CorelDRAW -->
<svg xmlns="http://www.w3.org/2000/svg" xml:space="preserve" width="14.5523mm" height="21.194mm" version="1.1" style="shape-rendering:geometricPrecision; text-rendering:geometricPrecision; image-rendering:optimizeQuality; fill-rule:evenodd; clip-rule:evenodd"
viewBox="0 0 142.04 206.86"
 xmlns:xlink="http://www.w3.org/1999/xlink"
 xmlns:xodm="http://www.corel.com/coreldraw/odm/2003">
 <defs>
  <style type="text/css">
   <![CDATA[
    .fil0 {fill:#333333}
    .fil1 {fill:white}
    .fil2 {fill:white;fill-rule:nonzero}
   ]]>
  </style>
 </defs>
 <g id="Camada_x0020_1">
  <metadata id="CorelCorpID_0Corel-Layer"/>
  <path class="fil0" d="M27.89 0l86.25 0c15.34,0 27.89,12.55 27.89,27.89l0 151.08c0,15.34 -12.55,27.89 -27.89,27.89l-86.25 0c-15.34,0 -27.89,-12.55 -27.89,-27.89l0 -151.08c0,-15.34 12.55,-27.89 27.89,-27.89z"/>
  <path class="fil1" d="M71.01 103.53c-15.08,20.48 -21.52,22.8 -32.27,32.37 -10.61,10.04 -11.29,20.36 -0.5,31 10.15,8.12 21.85,5.39 28.4,-1.37 0.68,-0.75 2.13,0.49 1.72,1.96 -2.55,9.08 -5.19,15.11 -8.98,18.3 3.12,-2.1 6.72,-2.12 11.64,-2.05 4.92,-0.06 8.52,-0.04 11.64,2.05 -3.79,-3.19 -6.43,-9.22 -8.98,-18.3 -0.41,-1.47 1.04,-2.71 1.72,-1.96 6.55,6.76 18.26,9.5 28.4,1.37 10.79,-10.64 10.11,-20.96 -0.5,-31 -10.76,-9.57 -17.2,-11.9 -32.27,-32.37z"/>
  <path class="fil2" d="M64.45 76.02c-5.66,-0.92 -10.48,-3.52 -14.45,-7.8 -4.69,-5.09 -7.03,-11.5 -7.03,-19.25 0,-8.19 2.6,-14.87 7.77,-20.08 5.18,-5.22 11.98,-7.82 20.39,-7.82 8.35,0 15.07,2.59 20.21,7.77 5.13,5.18 7.7,11.84 7.7,19.96 0,4.77 -0.9,9.07 -2.68,12.9 -1.79,3.84 -4.28,6.96 -7.47,9.4 -3.18,2.44 -7.06,4.09 -11.63,4.93 0.08,2.27 0.86,3.98 2.35,5.14 1.5,1.14 3.31,1.72 5.45,1.72 1.61,0 3.29,-0.26 5.01,-0.8 1.73,-0.54 3.26,-1.27 4.6,-2.22l3.66 6.49c-2.76,1.79 -5.45,3.07 -8.07,3.86 -2.61,0.79 -5.4,1.18 -8.36,1.18 -3.68,0 -6.88,-0.64 -9.59,-1.94 -2.7,-1.3 -4.73,-3.22 -6.11,-5.75 -1.09,-2.04 -1.67,-4.6 -1.75,-7.67zm6.92 -46.43c-3.98,0 -7.13,1.52 -9.47,4.59 -2.95,3.85 -4.42,8.82 -4.42,14.9 0,6.08 1.37,10.91 4.12,14.44 2.38,3.04 5.51,4.55 9.41,4.55 3.91,0 7.04,-1.51 9.4,-4.55 2.77,-3.61 4.16,-8.46 4.16,-14.52 0,-4.26 -0.59,-7.84 -1.78,-10.75 -1.19,-2.89 -2.79,-5.06 -4.82,-6.5 -2.02,-1.43 -4.22,-2.15 -6.58,-2.15z"/>
 </g>
</svg>
