<?xml version="1.0" encoding="UTF-8"?>
<!DOCTYPE svg PUBLIC "-//W3C//DTD SVG 1.1//EN" "http://www.w3.org/Graphics/SVG/1.1/DTD/svg11.dtd">
<!-- Creator: CorelDRAW -->
<svg xmlns="http://www.w3.org/2000/svg" xml:space="preserve" width="14.5523mm" height="21.194mm" version="1.1" style="shape-rendering:geometricPrecision; text-rendering:geometricPrecision; image-rendering:optimizeQuality; fill-rule:evenodd; clip-rule:evenodd"
viewBox="0 0 22.37 32.58"
 xmlns:xlink="http://www.w3.org/1999/xlink"
 xmlns:xodm="http://www.corel.com/coreldraw/odm/2003">
 <defs>
  <style type="text/css">
   <![CDATA[
    .fil0 {fill:#025936}
    .fil2 {fill:white}
    .fil1 {fill:white;fill-rule:nonzero}
   ]]>
  </style>
 </defs>
 <g id="Camada_x0020_1">
  <metadata id="CorelCorpID_0Corel-Layer"/>
  <path class="fil0" d="M4.39 0l13.59 0c2.42,0 4.39,1.98 4.39,4.39l0 23.8c0,2.42 -1.98,4.39 -4.39,4.39l-13.59 0c-2.42,0 -4.39,-1.98 -4.39,-4.39l0 -23.8c0,-2.42 1.98,-4.39 4.39,-4.39z"/>
  <path class="fil1" d="M7.99 4.49l0.78 0 0.08 0.29 4.65 0 0.1 -0.29 0.78 0 1.01 2.97 -1.09 0.4c-0.24,-0.49 -0.42,-0.81 -0.53,-0.96 -0.21,-0.29 -0.45,-0.53 -0.72,-0.7 -0.2,-0.13 -0.41,-0.19 -0.61,-0.19 -0.09,0 -0.16,0.02 -0.2,0.07 -0.03,0.05 -0.05,0.15 -0.05,0.32l0 4.86c0,0.29 0.01,0.47 0.03,0.54 0.02,0.07 0.05,0.13 0.1,0.17 0.05,0.04 0.11,0.07 0.2,0.08 0.08,0.01 0.3,0.02 0.66,0.02l0 1.17 -4.01 0 0 -1.17 0.24 0c0.27,0 0.44,-0.02 0.52,-0.05 0.07,-0.03 0.13,-0.1 0.17,-0.18 0.04,-0.09 0.06,-0.27 0.06,-0.54l0 -4.97c0,-0.14 -0.02,-0.23 -0.05,-0.27 -0.03,-0.04 -0.1,-0.05 -0.2,-0.05 -0.21,0 -0.43,0.08 -0.69,0.24 -0.25,0.16 -0.48,0.38 -0.68,0.67 -0.08,0.11 -0.25,0.43 -0.5,0.95l-1.08 -0.4 1.01 -2.97z"/>
  <path class="fil2" d="M11.19 16.63c1.66,0 3.01,1.35 3.01,3.01 0,0.85 -0.35,1.61 -0.91,2.16 0.41,-0.21 0.88,-0.33 1.38,-0.33 1.66,0 3.01,1.35 3.01,3.01 0,1.66 -1.35,3.01 -3.01,3.01 -1.44,0 -2.64,-1.01 -2.94,-2.35 -0.1,1.76 0.63,2.83 1.44,3.82 -0.48,-0.26 -1.15,-0.38 -1.98,-0.36 -0.83,-0.01 -1.5,0.1 -1.98,0.36 0.81,-1 1.54,-2.06 1.44,-3.82l0 -0c-0.3,1.35 -1.5,2.36 -2.94,2.36 -1.66,0 -3.01,-1.35 -3.01,-3.01 0,-1.66 1.35,-3.01 3.01,-3.01 0.5,0 0.97,0.12 1.38,0.33 -0.56,-0.55 -0.91,-1.31 -0.91,-2.16 0,-1.66 1.35,-3.01 3.01,-3.01z"/>
 </g>
</svg>
