<?xml version="1.0" encoding="UTF-8"?>
<!DOCTYPE svg PUBLIC "-//W3C//DTD SVG 1.1//EN" "http://www.w3.org/Graphics/SVG/1.1/DTD/svg11.dtd">
<!-- Creator: CorelDRAW -->
<svg xmlns="http://www.w3.org/2000/svg" xml:space="preserve" width="14.5523mm" height="21.194mm" version="1.1" style="shape-rendering:geometricPrecision; text-rendering:geometricPrecision; image-rendering:optimizeQuality; fill-rule:evenodd; clip-rule:evenodd"
viewBox="0 0 58.94 85.85"
 xmlns:xlink="http://www.w3.org/1999/xlink"
 xmlns:xodm="http://www.corel.com/coreldraw/odm/2003">
 <defs>
  <style type="text/css">
   <![CDATA[
    .fil0 {fill:#003399}
    .fil2 {fill:white}
    .fil1 {fill:white;fill-rule:nonzero}
   ]]>
  </style>
 </defs>
 <g id="Camada_x0020_1">
  <metadata id="CorelCorpID_0Corel-Layer"/>
  <path class="fil0" d="M11.58 0l35.79 0c6.37,0 11.58,5.21 11.58,11.58l0 62.7c0,6.37 -5.21,11.58 -11.58,11.58l-35.79 0c-6.37,0 -11.58,-5.21 -11.58,-11.58l0 -62.7c0,-6.37 5.21,-11.58 11.58,-11.58z"/>
  <path class="fil1" d="M21.05 11.82l2.05 0 0.22 0.75 12.25 0 0.27 -0.75 2.05 0 2.66 7.83 -2.86 1.04c-0.64,-1.3 -1.1,-2.14 -1.38,-2.54 -0.55,-0.77 -1.18,-1.39 -1.9,-1.83 -0.54,-0.34 -1.07,-0.51 -1.6,-0.51 -0.25,0 -0.42,0.06 -0.51,0.19 -0.09,0.12 -0.14,0.4 -0.14,0.83l0 12.79c0,0.76 0.03,1.23 0.08,1.42 0.05,0.2 0.14,0.34 0.27,0.46 0.12,0.11 0.3,0.19 0.51,0.22 0.22,0.04 0.8,0.05 1.75,0.05l0 3.08 -10.57 0 0 -3.08 0.64 0c0.71,0 1.16,-0.04 1.36,-0.14 0.2,-0.09 0.35,-0.25 0.46,-0.48 0.1,-0.23 0.15,-0.7 0.15,-1.42l0 -13.08c0,-0.37 -0.04,-0.61 -0.13,-0.7 -0.08,-0.09 -0.26,-0.14 -0.52,-0.14 -0.54,0 -1.15,0.21 -1.81,0.62 -0.67,0.41 -1.26,1 -1.78,1.76 -0.21,0.29 -0.65,1.13 -1.32,2.5l-2.84 -1.04 2.66 -7.83z"/>
  <path class="fil2" d="M29.47 77.1c4.87,-7.62 9.02,-13.1 12.69,-17.18 -4.68,-4.42 -8.87,-10.2 -12.69,-16.96 -3.82,6.75 -8,12.53 -12.69,16.96 3.67,4.09 7.81,9.57 12.69,17.18z"/>
 </g>
</svg>
