<?xml version="1.0" encoding="UTF-8"?>
<!DOCTYPE svg PUBLIC "-//W3C//DTD SVG 1.1//EN" "http://www.w3.org/Graphics/SVG/1.1/DTD/svg11.dtd">
<!-- Creator: CorelDRAW -->
<svg xmlns="http://www.w3.org/2000/svg" xml:space="preserve" width="14.5523mm" height="21.194mm" version="1.1" style="shape-rendering:geometricPrecision; text-rendering:geometricPrecision; image-rendering:optimizeQuality; fill-rule:evenodd; clip-rule:evenodd"
viewBox="0 0 41.07 59.81"
 xmlns:xlink="http://www.w3.org/1999/xlink"
 xmlns:xodm="http://www.corel.com/coreldraw/odm/2003">
 <defs>
  <style type="text/css">
   <![CDATA[
    .fil0 {fill:#DF0000}
    .fil2 {fill:white}
    .fil1 {fill:white;fill-rule:nonzero}
   ]]>
  </style>
 </defs>
 <g id="Camada_x0020_1">
  <metadata id="CorelCorpID_0Corel-Layer"/>
  <path class="fil0" d="M8.06 0l24.94 0c4.44,0 8.06,3.63 8.06,8.06l0 43.68c0,4.44 -3.63,8.06 -8.06,8.06l-24.94 0c-4.44,0 -8.06,-3.63 -8.06,-8.06l0 -43.68c0,-4.44 3.63,-8.06 8.06,-8.06z"/>
  <path class="fil1" d="M14.67 8.23l1.43 0 0.15 0.52 8.53 0 0.18 -0.52 1.43 0 1.86 5.46 -2 0.73c-0.45,-0.9 -0.77,-1.49 -0.96,-1.77 -0.38,-0.54 -0.82,-0.97 -1.32,-1.28 -0.37,-0.24 -0.75,-0.36 -1.12,-0.36 -0.17,0 -0.29,0.04 -0.36,0.13 -0.06,0.08 -0.1,0.28 -0.1,0.58l0 8.91c0,0.53 0.02,0.85 0.06,0.99 0.04,0.14 0.1,0.24 0.18,0.32 0.08,0.08 0.21,0.13 0.36,0.16 0.15,0.03 0.56,0.04 1.22,0.04l0 2.14 -7.36 0 0 -2.14 0.45 0c0.49,0 0.81,-0.03 0.95,-0.1 0.14,-0.06 0.24,-0.17 0.32,-0.33 0.07,-0.16 0.11,-0.49 0.11,-0.99l0 -9.11c0,-0.26 -0.03,-0.42 -0.09,-0.49 -0.06,-0.06 -0.18,-0.1 -0.37,-0.1 -0.38,0 -0.8,0.14 -1.26,0.43 -0.47,0.29 -0.88,0.7 -1.24,1.22 -0.14,0.21 -0.45,0.79 -0.92,1.74l-1.98 -0.73 1.86 -5.46z"/>
  <path class="fil2" d="M20.53 33.41c-2.11,-3.47 -5.83,-4.22 -9.16,-2.8 -4.04,1.81 -5.45,8.7 -1.94,12.57 2.41,3.18 8.8,7.19 11.1,10.53 2.29,-3.35 8.69,-7.36 11.1,-10.53 3.51,-3.87 2.1,-10.76 -1.94,-12.57 -3.32,-1.42 -7.05,-0.67 -9.16,2.8z"/>
 </g>
</svg>
