<?xml version="1.0" encoding="UTF-8"?>
<!DOCTYPE svg PUBLIC "-//W3C//DTD SVG 1.1//EN" "http://www.w3.org/Graphics/SVG/1.1/DTD/svg11.dtd">
<!-- Creator: CorelDRAW -->
<svg xmlns="http://www.w3.org/2000/svg" xml:space="preserve" width="14.5523mm" height="21.194mm" version="1.1" style="shape-rendering:geometricPrecision; text-rendering:geometricPrecision; image-rendering:optimizeQuality; fill-rule:evenodd; clip-rule:evenodd"
viewBox="0 0 253.38 369.02"
 xmlns:xlink="http://www.w3.org/1999/xlink"
 xmlns:xodm="http://www.corel.com/coreldraw/odm/2003">
 <defs>
  <style type="text/css">
   <![CDATA[
    .fil0 {fill:#333333}
    .fil1 {fill:white}
    .fil2 {fill:white;fill-rule:nonzero}
   ]]>
  </style>
 </defs>
 <g id="Camada_x0020_1">
  <metadata id="CorelCorpID_0Corel-Layer"/>
  <path class="fil0" d="M49.76 0l153.86 0c27.37,0 49.76,22.39 49.76,49.76l0 269.5c0,27.37 -22.39,49.76 -49.76,49.76l-153.86 0c-27.37,0 -49.76,-22.39 -49.76,-49.76l0 -269.5c0,-27.37 22.39,-49.76 49.76,-49.76z"/>
  <path class="fil1" d="M126.67 184.68c-26.89,36.53 -38.38,40.68 -57.57,57.75 -18.93,17.9 -20.15,36.31 -0.9,55.3 18.1,14.49 38.98,9.61 50.67,-2.45 1.22,-1.34 3.81,0.87 3.07,3.5 -4.56,16.2 -9.26,26.96 -16.03,32.65 5.57,-3.74 11.99,-3.78 20.76,-3.66 8.77,-0.11 15.19,-0.08 20.76,3.66 -6.76,-5.7 -11.47,-16.45 -16.03,-32.65 -0.74,-2.62 1.85,-4.83 3.07,-3.5 11.68,12.06 32.57,16.94 50.67,2.45 19.25,-18.99 18.03,-37.4 -0.9,-55.3 -19.19,-17.07 -30.68,-21.22 -57.57,-57.75z"/>
  <path class="fil2" d="M90.5 50.81l8.8 0 0.93 3.24 52.66 0 1.14 -3.24 8.8 0 11.45 33.66 -12.31 4.48c-2.76,-5.58 -4.74,-9.21 -5.95,-10.9 -2.35,-3.33 -5.09,-5.98 -8.16,-7.88 -2.31,-1.48 -4.61,-2.2 -6.89,-2.2 -1.07,0 -1.8,0.26 -2.21,0.8 -0.39,0.52 -0.59,1.71 -0.59,3.59l0 54.99c0,3.26 0.11,5.27 0.34,6.09 0.23,0.84 0.59,1.48 1.14,1.97 0.52,0.47 1.28,0.8 2.21,0.96 0.93,0.16 3.44,0.24 7.53,0.24l0 13.22 -45.43 0 0 -13.22 2.76 0c3.03,0 4.99,-0.19 5.84,-0.59 0.84,-0.37 1.51,-1.08 1.96,-2.06 0.43,-0.98 0.66,-3.02 0.66,-6.12l0 -56.23c0,-1.59 -0.18,-2.6 -0.55,-3.02 -0.34,-0.4 -1.12,-0.61 -2.26,-0.61 -2.33,0 -4.93,0.89 -7.78,2.67 -2.87,1.78 -5.43,4.29 -7.66,7.55 -0.89,1.27 -2.78,4.85 -5.68,10.76l-12.2 -4.48 11.45 -33.66z"/>
 </g>
</svg>
